<?xml version="1.0" encoding="UTF-8" standalone="no"?>
<!DOCTYPE svg PUBLIC "-//W3C//DTD SVG 1.1//EN" "http://www.w3.org/Graphics/SVG/1.1/DTD/svg11.dtd">
<svg width="100%" height="100%" viewBox="0 0 490 490" version="1.1" xmlns="http://www.w3.org/2000/svg" xmlns:xlink="http://www.w3.org/1999/xlink" xml:space="preserve" xmlns:serif="http://www.serif.com/" style="fill-rule:evenodd;clip-rule:evenodd;stroke-linejoin:round;stroke-miterlimit:2;">
    <g transform="matrix(1,0,0,1,-1684.78,-533.821)">
        <path d="M2135.39,533.821L1792.54,533.821C1771.34,533.821 1754.13,551.034 1754.13,572.236C1754.13,593.438 1771.34,610.651 1792.54,610.651L2042.64,610.651L1696.03,957.267C1681.04,972.259 1681.04,996.602 1696.03,1011.59C1711.02,1026.59 1735.36,1026.59 1750.36,1011.59L2096.97,664.977L2096.97,915.078C2096.97,936.279 2114.18,953.492 2135.39,953.492C2156.59,953.492 2173.8,936.279 2173.8,915.078L2173.8,572.236C2173.8,567.05 2172.77,562.103 2170.9,557.588L2170.89,557.561L2170.88,557.533L2170.87,557.505L2170.86,557.478C2168.99,552.966 2166.22,548.74 2162.55,545.073C2158.88,541.406 2154.66,538.636 2150.14,536.763L2150.12,536.752L2150.09,536.74L2150.06,536.728L2150.03,536.718C2146.82,535.388 2143.38,534.483 2139.79,534.072L2139.55,534.045L2139.31,534.02L2139.07,533.996L2138.83,533.974L2138.58,533.953L2138.34,533.933L2138.1,533.916L2137.85,533.899L2137.61,533.885L2137.36,533.871L2137.12,533.86L2136.87,533.85L2136.62,533.841L2136.38,533.834L2136.13,533.828L2135.88,533.825L2135.63,533.822L2135.39,533.821Z" style="fill:rgb(26,0,0);"/>
    </g>
</svg>
