<?xml version="1.0" standalone="no"?>
<!DOCTYPE svg PUBLIC "-//W3C//DTD SVG 20010904//EN"
 "http://www.w3.org/TR/2001/REC-SVG-20010904/DTD/svg10.dtd">
<svg version="1.0" xmlns="http://www.w3.org/2000/svg"
 width="512.000000pt" height="512.000000pt" viewBox="0 0 512.000000 512.000000"
 preserveAspectRatio="xMidYMid meet">

<g transform="translate(0.000000,512.000000) scale(0.100000,-0.100000)"
fill="#ff0000" stroke="none">
<path d="M3925 5105 c-139 -24 -275 -79 -402 -161 -63 -41 -3023 -2989 -3048
-3035 -13 -24 -441 -1545 -468 -1662 -26 -116 54 -230 171 -243 40 -5 164 28
875 230 455 130 840 242 855 250 36 19 78 65 91 99 16 42 13 124 -5 160 -9 18
-251 268 -536 556 l-520 524 1186 1186 1186 1186 442 -443 443 -443 -923 -917
c-668 -664 -926 -927 -937 -954 -29 -72 -13 -161 38 -217 54 -59 158 -77 231
-41 56 27 2288 2262 2340 2343 125 193 183 401 173 617 -12 257 -110 483 -291
668 -137 141 -315 242 -506 287 -100 23 -293 28 -395 10z m300 -400 c298 -62
511 -341 492 -645 -10 -154 -67 -284 -179 -404 l-57 -61 -443 442 -442 442 34
37 c48 50 147 119 213 150 114 52 253 66 382 39z m-2803 -3946 c-8 -8 -925
-269 -929 -265 -2 2 56 213 127 469 72 257 130 470 130 474 0 4 153 -145 340
-332 187 -187 336 -342 332 -346z"/>
</g>
</svg>
