<?xml version="1.0" encoding="UTF-8" standalone="no"?>
<!DOCTYPE svg PUBLIC "-//W3C//DTD SVG 1.1//EN" "http://www.w3.org/Graphics/SVG/1.1/DTD/svg11.dtd">
<svg width="100%" height="100%" viewBox="0 0 433 524" version="1.1" xmlns="http://www.w3.org/2000/svg" xmlns:xlink="http://www.w3.org/1999/xlink" xml:space="preserve" xmlns:serif="http://www.serif.com/" style="fill-rule:evenodd;clip-rule:evenodd;stroke-linecap:round;stroke-linejoin:round;stroke-miterlimit:1.5;">
    <g transform="matrix(1,0,0,1,-29.3637,11.0675)">
        <path d="M279.183,101.334L323.122,66.565" style="fill:none;stroke:white;stroke-width:42px;"/>
    </g>
    <g transform="matrix(0.802339,-0.596868,0.596868,0.802339,-84.3052,160.453)">
        <path d="M279.183,101.334L323.122,66.565" style="fill:none;stroke:white;stroke-width:42px;"/>
    </g>
    <g transform="matrix(0.14529,-0.989389,0.989389,0.14529,-16.0383,341.783)">
        <path d="M279.183,101.334L323.122,66.565" style="fill:none;stroke:white;stroke-width:42px;"/>
    </g>
    <g transform="matrix(-0.596868,-0.802339,0.802339,-0.596868,160.453,421.731)">
        <path d="M279.183,101.334L323.122,66.565" style="fill:none;stroke:white;stroke-width:42px;"/>
    </g>
    <g transform="matrix(1,0,0,1,-29.3637,11.0675)">
        <path d="M347.002,512C324.573,512.001 302.942,499.487 292.523,478.202L262.367,421.738L245.259,454.392C244.821,455.23 244.322,456.036 243.77,456.803C232.543,472.384 214.071,477.921 200.395,477.921C200.285,477.921 200.175,477.921 200.064,477.92C184.78,477.819 169.561,471.261 158.312,459.924C146.628,448.152 140.195,432.525 140.195,415.919L140.195,156.963C140.195,133.343 153.503,112.491 174.925,102.543C196.143,92.689 220.4,95.821 238.394,110.692L445.912,265.449C454.771,272.046 456.604,284.577 450.008,293.436C443.41,302.295 430.881,304.128 422.022,297.531L214.06,142.442C213.733,142.198 213.413,141.945 213.101,141.681C204.054,134.041 194.491,137.561 191.773,138.822C189.057,140.083 180.197,145.118 180.197,156.963L180.197,415.92C180.197,428.807 190.806,437.858 200.329,437.92L200.421,437.92C204.313,437.92 208.592,436.308 210.724,434.122L244.482,369.684C247.92,363.12 254.708,358.995 262.119,358.965L262.199,358.965C269.579,358.965 276.362,363.029 279.841,369.543L327.992,459.698C328.128,459.952 328.258,460.209 328.382,460.469C333.182,470.472 345.28,474.824 355.348,470.163C360.362,467.845 364.144,463.705 366.001,458.504C367.802,453.463 367.571,448.046 365.36,443.194L316.763,356.717C313.283,350.524 313.349,342.95 316.937,336.819C320.524,330.688 327.095,326.92 334.199,326.92L402.768,326.92C414.372,326.327 419.005,317.189 420.155,314.381C421.335,311.502 424.54,301.423 416.259,292.64C408.682,284.603 409.054,271.946 417.09,264.368C425.127,256.79 437.785,257.164 445.362,265.2C461.773,282.605 466.299,307.259 457.171,329.542C448.095,351.702 427.7,366.02 403.946,366.907C403.698,366.917 403.449,366.921 403.2,366.921L368.381,366.921L400.577,424.214C400.774,424.566 400.962,424.923 401.138,425.286C408.269,439.992 409.168,456.568 403.67,471.96C398.173,487.352 386.977,499.607 372.143,506.468C364.02,510.221 355.453,511.999 347.002,512Z" style="fill:white;fill-rule:nonzero;stroke:white;stroke-width:1px;stroke-linecap:butt;stroke-miterlimit:2;"/>
    </g>
    <g transform="matrix(-0.989389,-0.14529,0.14529,-0.989389,341.783,353.464)">
        <path d="M279.183,101.334L323.122,66.565" style="fill:none;stroke:white;stroke-width:42px;"/>
    </g>
</svg>
