<?xml version="1.0" encoding="UTF-8" standalone="no"?>
<!DOCTYPE svg PUBLIC "-//W3C//DTD SVG 1.1//EN" "http://www.w3.org/Graphics/SVG/1.1/DTD/svg11.dtd">
<svg width="100%" height="100%" viewBox="0 0 435 468" version="1.1" xmlns="http://www.w3.org/2000/svg" xmlns:xlink="http://www.w3.org/1999/xlink" xml:space="preserve" xmlns:serif="http://www.serif.com/" style="fill-rule:evenodd;clip-rule:evenodd;stroke-linejoin:round;stroke-miterlimit:2;">
    <g transform="matrix(0.476282,0,0,0.476282,-113.117,-83.4979)">
        <path d="M441,1156.9C397.9,1152.8 357.2,1136.7 323.9,1110.5C310.9,1100.3 291,1080.5 291,1077.8C291,1077.1 290,1076 288.8,1075.5C287.5,1074.9 286.1,1073.1 285.5,1071.3C285,1069.5 284.2,1068 283.7,1068C282.4,1068 280.9,1066.2 274.8,1057.4C262,1039.1 250.9,1014.2 244.5,989.7C238.9,968 237.5,956.7 237.5,930C237.5,903.5 238.8,892.6 244.5,870.3C265.3,789.4 331.1,725.8 413,707.6C435.6,702.6 434.2,702.7 549.3,702.3L658,701.9L658,705C658,708.1 655.4,712.3 641.8,731.2C635.8,739.4 630.3,747 600.4,788.5C593.2,798.4 584.3,810.9 580.4,816.3C573.6,825.9 573.4,826 569.8,825.7C566.7,825.5 566,825.8 566,827.2C566,828.9 563.2,829 515.8,829C485.2,829 462,829.4 456.5,830.1C408.1,836 371,873 365.1,921.3C361.8,948.5 374.5,981.2 396.6,1002C444.4,1047.2 517,1036.5 551.4,979.4C553.4,976.2 555,973.2 555,972.8C555,972.3 534.1,972 508.5,972L462,972L462,968.9C462,966.6 464.3,962.6 471.2,953.1C480.4,940.4 512.9,895.4 518.5,887.5C520.2,885.2 523.5,880.6 525.9,877.2C528.6,873.4 531,871 532.1,871C533.4,871 534,870.3 534,868.6C534,866.9 534.9,865.7 536.7,864.8C538.6,863.9 539.8,862.2 540.6,859.5C541.2,857.2 542.4,855.4 543.3,855.2C544.3,855 545,853.9 545,852.7C545,851.5 545.9,849.4 547,848L548.9,845.5L693.1,844.9L692.7,900.2C692.3,960.3 692,963.9 686,988C682,1004.1 677.9,1015.3 670.1,1031.5C636.2,1101.5 567.8,1149 489.1,1157C477.4,1158.1 453.7,1158.1 441,1156.9Z" style="fill:white;fill-rule:nonzero;"/>
    </g>
    <g transform="matrix(0.403125,0,0,0.394716,-77.5805,-10.9099)">
        <path d="M989.4,1186.5C933.1,1179.3 881.2,1154.1 841.8,1114.8C794.9,1068 769,1005.1 769,938.2C769,898.9 776.8,864.8 794,829.5C818.1,780 856.8,740.4 905,716.1C977.5,679.4 1060,679.5 1132.2,716.2C1179.3,740.1 1217.6,778.7 1241.7,826.5C1278.9,900.2 1276.6,989.9 1235.6,1061.5C1196.8,1129.2 1133,1172.9 1054.4,1185.5C1040.4,1187.8 1003.8,1188.3 989.4,1186.5Z" style="fill:rgb(253,2,79);fill-rule:nonzero;"/>
    </g>
    <g transform="matrix(0.414831,0,0,0.414831,-71.4819,-45.9611)">
        <path d="M450.9,508.3C450.8,412.5 450.5,396.6 449.4,403C448.3,409.6 448.2,405.4 448.5,369.5C448.7,347 449.3,326.3 449.8,323.5C450.6,319 450.8,319.6 451,330C451.2,336.3 451.5,340.2 451.6,338.5C451.8,336.9 452.5,331.3 453.1,326.2C457.8,285.2 475,243.1 501.3,208.1C509.6,197 532.2,173.8 542.7,165.7C583.9,133.4 636.3,113.8 684.5,112.7C694.4,112.5 695.5,112.7 695.4,114.3C695.3,115.2 695.2,229.6 695.1,368.5L695,621L451,621L450.9,508.3Z" style="fill:rgb(253,2,79);fill-rule:nonzero;"/>
    </g>
    <g transform="matrix(0.414831,0,0,0.414831,-71.4819,-45.9611)">
        <path d="M206.4,619.5C206.2,619 206.1,504.7 206.2,365.5L206.5,112.5L328.8,112.2L451,112L451,252.4C451,387.5 450.9,393.4 449,406.5C446.4,424 444.6,432.7 440.9,445.3C425.8,496.1 395.3,539.8 352.4,572.1C313.6,601.2 264.2,618.6 215.1,620.2C210.1,620.4 206.6,620.1 206.4,619.5Z" style="fill:white;fill-rule:nonzero;stroke:white;stroke-width:2.41px;"/>
    </g>
    <g transform="matrix(0.414831,0,0,0.414831,-77.84,-45.6973)">
        <path d="M969.3,643.4C891.4,634 822.5,586 788.2,517.4C774.3,489.5 767.2,462.8 765,429.5C764.4,420.6 764,352.8 764,263.3L764,112L978,112L978,258C978,416 977.9,413.1 983.4,432.1C996.1,476 1030.6,509.4 1075.3,520.9C1111.3,530.2 1153,522.1 1182.3,500.2C1206.2,482.2 1221.7,459.8 1230.9,430L1232.9,423.5L1232.4,431C1230.3,461.9 1223.3,488.5 1210.1,515.5C1187.7,561.2 1152.3,596.5 1105.3,620.1C1080.9,632.4 1050.8,641.2 1024,644C1010.8,645.3 982.7,645.1 969.3,643.4Z" style="fill:white;fill-rule:nonzero;stroke:white;stroke-width:2.41px;"/>
    </g>
    <g transform="matrix(0.414831,0,0,0.414831,-79.1675,-45.6973)">
        <path d="M1088,526.9C1037.1,520.6 994.7,484.4 980.4,435.1C974.9,416.1 975,419.2 975,259.5L975,112L1236.1,112L1236,265.6C1235.9,391.6 1235.6,419.2 1234.5,419.6C1233.6,420 1233,423.4 1232.5,430.3C1231.9,438.4 1231.1,442 1228.5,448.2C1219.2,470.2 1204.9,488.5 1185.3,503.2C1171.5,513.5 1154.2,521.2 1136,525.1C1124.9,527.4 1099.6,528.4 1088,526.9Z" style="fill:rgb(253,2,79);fill-rule:nonzero;"/>
    </g>
</svg>
