<?xml version="1.0" encoding="UTF-8" standalone="no"?>
<!DOCTYPE svg PUBLIC "-//W3C//DTD SVG 1.1//EN" "http://www.w3.org/Graphics/SVG/1.1/DTD/svg11.dtd">
<svg width="100%" height="100%" viewBox="0 0 2805 2080" version="1.1" xmlns="http://www.w3.org/2000/svg" xmlns:xlink="http://www.w3.org/1999/xlink" xml:space="preserve" xmlns:serif="http://www.serif.com/" style="fill-rule:evenodd;clip-rule:evenodd;stroke-linejoin:round;stroke-miterlimit:2;">
    <g transform="matrix(1.14417,0,0,1.09425,1085.28,843.674)">
        <g transform="matrix(1.39718,0,0,1.4699,1488.56,-933.784)">
            <g transform="matrix(930.619,0,0,874.094,-1368.86,722.606)">
                <path d="M0.348,-0.514C0.282,-0.514 0.232,-0.49 0.205,-0.453L0.205,-0.7L0.055,-0.7L0.055,-0L0.205,-0L0.205,-0.273C0.205,-0.344 0.243,-0.376 0.298,-0.376C0.346,-0.376 0.385,-0.347 0.385,-0.285L0.385,-0L0.535,-0L0.535,-0.307C0.535,-0.442 0.449,-0.514 0.348,-0.514Z" style="fill:white;fill-rule:nonzero;"/>
            </g>
            <g transform="matrix(882.107,0,0,876.719,-853.458,710.332)">
                <path d="M0.378,-0.5L0.378,-0.227C0.378,-0.156 0.34,-0.124 0.285,-0.124C0.237,-0.124 0.198,-0.153 0.198,-0.215L0.198,-0.5L0.048,-0.5L0.048,-0.193C0.048,-0.058 0.134,0.014 0.235,0.014C0.301,0.014 0.351,-0.01 0.378,-0.047L0.378,-0L0.528,-0L0.528,-0.5L0.378,-0.5Z" style="fill:white;fill-rule:nonzero;"/>
            </g>
            <g transform="matrix(4.63442e-17,-0.752236,0.664443,4.04369e-17,-3908.76,10152.5)">
                <path d="M12661.4,3689.61L12835.3,3510.59C12835.3,3510.59 13009.2,3689.61 13009.2,3689.61L13070.3,3752.55L13180.8,3613.28L12835.3,3257.57L12489.8,3613.28L12600.3,3752.55L12661.4,3689.61Z" style="fill:white;"/>
            </g>
        </g>
        <g transform="matrix(1.39718,0,0,1.4699,1488.56,-933.784)">
            <g transform="matrix(873.417,0,0,868.082,-1367.08,1217.64)">
                <path d="M0.41,-0.5L0.41,-0.449C0.377,-0.49 0.341,-0.514 0.276,-0.514C0.134,-0.514 0.03,-0.398 0.03,-0.26C0.03,-0.122 0.134,-0.006 0.276,-0.006C0.341,-0.006 0.389,-0.03 0.422,-0.071L0.422,-0.025C0.422,0.046 0.379,0.082 0.309,0.082C0.243,0.082 0.214,0.054 0.195,0.019L0.067,0.093C0.113,0.175 0.2,0.214 0.304,0.214C0.437,0.214 0.568,0.143 0.568,-0.025L0.568,-0.5L0.41,-0.5ZM0.301,-0.144C0.23,-0.144 0.18,-0.191 0.18,-0.26C0.18,-0.329 0.23,-0.376 0.301,-0.376C0.372,-0.376 0.422,-0.329 0.422,-0.26C0.422,-0.191 0.372,-0.144 0.301,-0.144Z" style="fill:url(#_Linear1);fill-rule:nonzero;"/>
            </g>
            <g transform="matrix(839.368,0,0,834.241,-836.298,1200.72)">
                <path d="M0.295,0.014C0.442,0.014 0.56,-0.101 0.56,-0.25C0.56,-0.399 0.442,-0.514 0.295,-0.514C0.148,-0.514 0.03,-0.399 0.03,-0.25C0.03,-0.101 0.148,0.014 0.295,0.014ZM0.295,-0.132C0.23,-0.132 0.18,-0.179 0.18,-0.25C0.18,-0.321 0.23,-0.368 0.295,-0.368C0.36,-0.368 0.41,-0.321 0.41,-0.25C0.41,-0.179 0.36,-0.132 0.295,-0.132Z" style="fill:url(#_Linear2);fill-rule:nonzero;"/>
            </g>
            <g transform="matrix(4.43055e-17,0.719144,-0.635213,3.8658e-17,2075.89,-8242.47)">
                <path d="M12664,3692.82L12835.3,3516.41L13070.6,3758.65L13186.2,3612.98L12835.3,3251.74L12484.4,3612.98L12600,3758.65L12664,3692.82Z" style="fill:url(#_Linear3);"/>
            </g>
        </g>
    </g>
    <defs>
        <linearGradient id="_Linear1" x1="0" y1="0" x2="1" y2="0" gradientUnits="userSpaceOnUse" gradientTransform="matrix(0.865213,-0.817773,0.817773,0.865213,0.154985,0.341117)"><stop offset="0" style="stop-color:rgb(255,0,0);stop-opacity:1"/><stop offset="0.29" style="stop-color:rgb(226,9,34);stop-opacity:1"/><stop offset="0.59" style="stop-color:rgb(141,37,134);stop-opacity:1"/><stop offset="1" style="stop-color:rgb(46,39,175);stop-opacity:1"/></linearGradient>
        <linearGradient id="_Linear2" x1="0" y1="0" x2="1" y2="0" gradientUnits="userSpaceOnUse" gradientTransform="matrix(0.90031,-0.850946,0.850946,0.90031,-0.471089,0.37524)"><stop offset="0" style="stop-color:rgb(255,0,0);stop-opacity:1"/><stop offset="0.29" style="stop-color:rgb(226,9,34);stop-opacity:1"/><stop offset="0.59" style="stop-color:rgb(141,37,134);stop-opacity:1"/><stop offset="1" style="stop-color:rgb(46,39,175);stop-opacity:1"/></linearGradient>
        <linearGradient id="_Linear3" x1="0" y1="0" x2="1" y2="0" gradientUnits="userSpaceOnUse" gradientTransform="matrix(1226.21,583.03,-511.839,1396.76,12034.9,3113.97)"><stop offset="0" style="stop-color:rgb(255,0,0);stop-opacity:1"/><stop offset="0.26" style="stop-color:rgb(228,9,31);stop-opacity:1"/><stop offset="0.5" style="stop-color:rgb(141,37,134);stop-opacity:1"/><stop offset="1" style="stop-color:rgb(46,39,175);stop-opacity:1"/></linearGradient>
    </defs>
</svg>
