<?xml version="1.0" encoding="UTF-8" standalone="no"?>
<!DOCTYPE svg PUBLIC "-//W3C//DTD SVG 1.1//EN" "http://www.w3.org/Graphics/SVG/1.1/DTD/svg11.dtd">
<svg width="100%" height="100%" viewBox="0 0 6955 5170" version="1.1" xmlns="http://www.w3.org/2000/svg" xmlns:xlink="http://www.w3.org/1999/xlink" xml:space="preserve" xmlns:serif="http://www.serif.com/" style="fill-rule:evenodd;clip-rule:evenodd;stroke-linejoin:round;stroke-miterlimit:2;">
    <g transform="matrix(1,0,0,1,-3817.22,-3562.92)">
        <g transform="matrix(3.97431,0,0,3.99874,10680.8,3120.1)">
            <g transform="matrix(930.619,0,0,874.094,-1368.86,722.606)">
                <path d="M0.348,-0.514C0.282,-0.514 0.232,-0.49 0.205,-0.453L0.205,-0.7L0.055,-0.7L0.055,-0L0.205,-0L0.205,-0.273C0.205,-0.344 0.243,-0.376 0.298,-0.376C0.346,-0.376 0.385,-0.347 0.385,-0.285L0.385,-0L0.535,-0L0.535,-0.307C0.535,-0.442 0.449,-0.514 0.348,-0.514Z" style="fill:white;fill-rule:nonzero;"/>
            </g>
            <g transform="matrix(882.107,0,0,876.719,-853.458,710.332)">
                <path d="M0.378,-0.5L0.378,-0.227C0.378,-0.156 0.34,-0.124 0.285,-0.124C0.237,-0.124 0.198,-0.153 0.198,-0.215L0.198,-0.5L0.048,-0.5L0.048,-0.193C0.048,-0.058 0.134,0.014 0.235,0.014C0.301,0.014 0.351,-0.01 0.378,-0.047L0.378,-0L0.528,-0L0.528,-0.5L0.378,-0.5Z" style="fill:white;fill-rule:nonzero;"/>
            </g>
        </g>
        <g transform="matrix(3.97431,0,0,3.99874,10680.8,3120.1)">
            <g transform="matrix(873.417,0,0,868.082,-1367.08,1217.64)">
                <path d="M0.41,-0.5L0.41,-0.449C0.377,-0.49 0.341,-0.514 0.276,-0.514C0.134,-0.514 0.03,-0.398 0.03,-0.26C0.03,-0.122 0.134,-0.006 0.276,-0.006C0.341,-0.006 0.389,-0.03 0.422,-0.071L0.422,-0.025C0.422,0.046 0.379,0.082 0.309,0.082C0.243,0.082 0.214,0.054 0.195,0.019L0.067,0.093C0.113,0.175 0.2,0.214 0.304,0.214C0.437,0.214 0.568,0.143 0.568,-0.025L0.568,-0.5L0.41,-0.5ZM0.301,-0.144C0.23,-0.144 0.18,-0.191 0.18,-0.26C0.18,-0.329 0.23,-0.376 0.301,-0.376C0.372,-0.376 0.422,-0.329 0.422,-0.26C0.422,-0.191 0.372,-0.144 0.301,-0.144Z" style="fill:white;fill-rule:nonzero;"/>
            </g>
            <g transform="matrix(839.368,0,0,834.241,-836.298,1200.72)">
                <path d="M0.295,0.014C0.442,0.014 0.56,-0.101 0.56,-0.25C0.56,-0.399 0.442,-0.514 0.295,-0.514C0.148,-0.514 0.03,-0.399 0.03,-0.25C0.03,-0.101 0.148,0.014 0.295,0.014ZM0.295,-0.132C0.23,-0.132 0.18,-0.179 0.18,-0.25C0.18,-0.321 0.23,-0.368 0.295,-0.368C0.36,-0.368 0.41,-0.321 0.41,-0.25C0.41,-0.179 0.36,-0.132 0.295,-0.132Z" style="fill:white;fill-rule:nonzero;"/>
            </g>
        </g>
        <g transform="matrix(1,0,0,1,134.694,0)">
            <path d="M3829.66,5271.45C3746.11,5178.99 3746.11,5038.29 3829.66,4945.84C3993.37,4764.7 4257.29,4472.68 4428.31,4283.44C4472.39,4234.68 4534.02,4205.42 4599.67,4202.1C4665.31,4198.79 4729.59,4221.69 4778.35,4265.77C4778.35,4265.77 4778.35,4265.77 4778.35,4265.77C4879.91,4357.57 4887.83,4514.33 4796.03,4615.9C4614.94,4816.27 4350.7,5108.64 4350.7,5108.64C4350.7,5108.64 4614.94,5401.01 4796.03,5601.38C4887.83,5702.95 4879.91,5859.71 4778.35,5951.52C4778.35,5951.52 4778.35,5951.52 4778.35,5951.52C4729.59,5995.59 4665.31,6018.49 4599.67,6015.18C4534.02,6011.86 4472.39,5982.61 4428.31,5933.84C4257.29,5744.6 3993.37,5452.58 3829.66,5271.45Z" style="fill:url(#_Linear1);"/>
        </g>
        <g transform="matrix(-1,0,0,1,14454.2,1945.66)">
            <path d="M3829.66,5271.45C3746.11,5178.99 3746.11,5038.29 3829.66,4945.84C3993.37,4764.7 4257.29,4472.68 4428.31,4283.44C4472.39,4234.68 4534.02,4205.42 4599.67,4202.1C4665.31,4198.79 4729.59,4221.69 4778.35,4265.77C4778.35,4265.77 4778.35,4265.77 4778.35,4265.77C4879.91,4357.57 4887.83,4514.33 4796.03,4615.9C4614.94,4816.27 4350.7,5108.64 4350.7,5108.64C4350.7,5108.64 4614.94,5401.01 4796.03,5601.38C4887.83,5702.95 4879.91,5859.71 4778.35,5951.52C4778.35,5951.52 4778.35,5951.52 4778.35,5951.52C4729.59,5995.59 4665.31,6018.49 4599.67,6015.18C4534.02,6011.86 4472.39,5982.61 4428.31,5933.84C4257.29,5744.6 3993.37,5452.58 3829.66,5271.45Z" style="fill:url(#_Linear2);"/>
        </g>
    </g>
    <defs>
        <linearGradient id="_Linear1" x1="0" y1="0" x2="1" y2="0" gradientUnits="userSpaceOnUse" gradientTransform="matrix(-1093.02,3106.79,-3106.79,-1093.02,4860.02,3098.12)"><stop offset="0" style="stop-color:rgb(255,0,0);stop-opacity:1"/><stop offset="0.26" style="stop-color:rgb(251,1,5);stop-opacity:1"/><stop offset="0.5" style="stop-color:rgb(236,5,22);stop-opacity:1"/><stop offset="0.77" style="stop-color:rgb(124,59,157);stop-opacity:1"/><stop offset="1" style="stop-color:rgb(79,72,197);stop-opacity:1"/></linearGradient>
        <linearGradient id="_Linear2" x1="0" y1="0" x2="1" y2="0" gradientUnits="userSpaceOnUse" gradientTransform="matrix(618.901,-2556.47,2556.47,618.901,3990.28,7070.36)"><stop offset="0" style="stop-color:rgb(255,0,0);stop-opacity:1"/><stop offset="0.26" style="stop-color:rgb(251,1,5);stop-opacity:1"/><stop offset="0.5" style="stop-color:rgb(236,5,22);stop-opacity:1"/><stop offset="0.77" style="stop-color:rgb(124,59,157);stop-opacity:1"/><stop offset="1" style="stop-color:rgb(79,72,197);stop-opacity:1"/></linearGradient>
    </defs>
</svg>
