<?xml version="1.0" standalone="no"?>
<!DOCTYPE svg PUBLIC "-//W3C//DTD SVG 20010904//EN"
 "http://www.w3.org/TR/2001/REC-SVG-20010904/DTD/svg10.dtd">
<svg version="1.0" xmlns="http://www.w3.org/2000/svg"
 width="512.000000pt" height="512.000000pt" viewBox="0 0 512.000000 512.000000"
 preserveAspectRatio="xMidYMid meet">

<g transform="translate(0.000000,512.000000) scale(0.100000,-0.100000)"
fill="#ff0000" stroke="none">
<path d="M2370 5105 c-210 -34 -367 -112 -511 -255 -135 -134 -210 -267 -258
-461 -117 -475 21 -1003 356 -1359 41 -44 74 -82 72 -84 -2 -2 -30 -15 -63
-29 -137 -63 -292 -190 -395 -328 -101 -133 -159 -250 -211 -424 l-28 -90
-148 -5 c-122 -5 -157 -9 -195 -26 -66 -31 -114 -78 -146 -142 l-28 -57 -3
-772 -2 -773 -346 0 c-326 0 -347 -1 -384 -20 -45 -23 -80 -80 -80 -130 0 -50
35 -107 80 -130 39 -20 53 -20 2480 -20 2427 0 2441 0 2480 20 45 23 80 80 80
130 0 50 -35 107 -80 130 -37 19 -58 20 -384 20 l-346 0 -2 773 -3 772 -28 57
c-32 64 -80 111 -146 142 -38 17 -73 21 -195 26 l-148 5 -28 90 c-52 174 -110
291 -210 423 -105 139 -249 259 -395 328 -33 16 -62 30 -64 31 -2 1 31 39 72
83 335 356 473 884 356 1359 -48 194 -123 327 -258 461 -136 134 -268 205
-456 245 -108 23 -327 28 -435 10z m405 -310 c211 -57 364 -202 435 -414 11
-35 19 -65 18 -67 -2 -2 -37 4 -78 12 -75 16 -112 30 -265 98 -139 62 -222 49
-368 -59 -48 -36 -111 -78 -140 -94 -101 -57 -259 -98 -448 -116 l-66 -6 9 61
c13 101 37 180 80 269 86 181 256 298 483 335 59 9 280 -3 340 -19z m43 -669
c117 -59 324 -116 418 -116 29 0 31 -23 9 -155 -71 -438 -388 -815 -685 -815
-224 0 -464 212 -601 530 -32 75 -92 270 -85 277 1 1 51 7 111 13 293 29 482
95 670 234 49 36 91 66 92 66 2 0 34 -15 71 -34z m56 -1425 c274 -74 476 -269
580 -558 l26 -73 -920 0 -920 0 26 73 c96 267 287 465 522 542 113 36 190 44
402 41 171 -3 218 -7 284 -25z m1136 -1666 l0 -735 -1450 0 -1450 0 0 735 0
735 1450 0 1450 0 0 -735z"/>
<path d="M2488 1249 c-43 -22 -78 -81 -78 -129 0 -74 76 -150 149 -150 77 0
151 74 151 150 0 50 -35 107 -80 130 -49 25 -94 25 -142 -1z"/>
</g>
</svg>
