<?xml version="1.0" standalone="no"?>
<!DOCTYPE svg PUBLIC "-//W3C//DTD SVG 20010904//EN"
 "http://www.w3.org/TR/2001/REC-SVG-20010904/DTD/svg10.dtd">
<svg version="1.0" xmlns="http://www.w3.org/2000/svg"
 width="512.000000pt" height="512.000000pt" viewBox="0 0 512.000000 512.000000"
 preserveAspectRatio="xMidYMid meet">

<g transform="translate(0.000000,512.000000) scale(0.100000,-0.100000)"
fill="#ff0000" stroke="none">
<path d="M2435 5114 c-238 -38 -445 -143 -600 -305 -157 -165 -247 -350 -275
-569 -7 -52 -14 -101 -16 -107 -3 -10 -75 -13 -319 -13 -346 0 -353 -1 -395
-60 -20 -28 -31 -136 -171 -1708 -100 -1122 -148 -1696 -144 -1735 18 -173
127 -354 278 -461 83 -58 148 -90 254 -123 l88 -28 1425 0 1425 0 88 28 c106
33 171 65 254 123 153 109 263 292 278 467 4 41 -45 628 -143 1727 -119 1331
-153 1672 -166 1698 -9 18 -31 42 -49 52 -30 19 -52 20 -350 20 -245 0 -318 3
-321 13 -2 6 -9 55 -16 107 -13 99 -53 238 -91 312 -136 268 -385 468 -674
539 -79 20 -294 33 -360 23z m284 -295 c235 -53 448 -241 526 -466 27 -76 50
-207 40 -223 -4 -7 -246 -10 -725 -10 -479 0 -721 3 -725 10 -10 16 13 147 40
223 32 92 77 165 153 248 120 129 267 205 457 233 42 6 180 -3 234 -15z
m-1167 -1223 l3 -244 25 -27 c72 -78 177 -69 230 18 18 29 20 52 20 265 l0
232 730 0 730 0 0 -232 c0 -215 2 -236 20 -266 57 -94 183 -94 240 0 18 30 20
51 20 266 l0 232 238 0 237 0 141 -1583 c95 -1068 138 -1597 133 -1628 -24
-152 -163 -284 -349 -330 -45 -12 -297 -14 -1410 -14 -1113 0 -1365 2 -1410
14 -186 46 -325 178 -349 330 -5 32 37 544 131 1596 75 853 137 1565 138 1583
l0 32 240 0 239 0 3 -244z"/>
</g>
</svg>
