<?xml version="1.0" encoding="UTF-8" standalone="no"?>
<!DOCTYPE svg PUBLIC "-//W3C//DTD SVG 1.1//EN" "http://www.w3.org/Graphics/SVG/1.1/DTD/svg11.dtd">
<svg width="100%" height="100%" viewBox="0 0 1000 1000" version="1.1" xmlns="http://www.w3.org/2000/svg" xmlns:xlink="http://www.w3.org/1999/xlink" xml:space="preserve" xmlns:serif="http://www.serif.com/" style="fill-rule:evenodd;clip-rule:evenodd;stroke-linejoin:round;stroke-miterlimit:2;">
    <g transform="matrix(947.915,-202.259,-202.259,-947.915,5.90138,403.275)">
        <path d="M0.04,-0.085L-0.019,-0.152C-0.023,-0.156 -0.029,-0.156 -0.034,-0.153C-0.038,-0.149 -0.038,-0.143 -0.034,-0.138L0.037,-0.059C0.039,-0.056 0.043,-0.055 0.046,-0.055C0.05,-0.056 0.053,-0.059 0.054,-0.062L0.085,-0.164C0.087,-0.17 0.084,-0.175 0.078,-0.177C0.073,-0.179 0.067,-0.176 0.066,-0.17L0.04,-0.085Z" style="fill:url(#_Linear1);"/>
    </g>
    <g transform="matrix(947.915,-202.259,-202.259,-947.915,11.6715,430.318)">
        <path d="M0.175,-0.113L0.13,-0.064C0.126,-0.059 0.126,-0.053 0.13,-0.049C0.135,-0.046 0.141,-0.046 0.145,-0.05L0.2,-0.11C0.202,-0.112 0.203,-0.115 0.202,-0.119C0.201,-0.122 0.199,-0.125 0.196,-0.126L0.121,-0.157C0.116,-0.159 0.11,-0.157 0.108,-0.152C0.106,-0.147 0.109,-0.141 0.114,-0.138L0.175,-0.113Z" style="fill:url(#_Linear2);"/>
    </g>
    <g transform="matrix(947.915,-202.259,-202.259,-947.915,37.1554,549.752)">
        <path d="M0.376,-0.03L0.422,-0.078C0.426,-0.082 0.425,-0.089 0.421,-0.093C0.417,-0.096 0.411,-0.096 0.407,-0.092L0.352,-0.033C0.349,-0.031 0.349,-0.027 0.349,-0.024C0.35,-0.021 0.352,-0.018 0.355,-0.017L0.43,0.015C0.435,0.018 0.441,0.015 0.443,0.01C0.445,0.005 0.443,-0.001 0.438,-0.003L0.376,-0.03Z" style="fill:url(#_Linear3);"/>
    </g>
    <g transform="matrix(947.915,-202.259,-202.259,-947.915,22.259,479.938)">
        <path d="M0.27,-0.105L0.323,-0.04C0.326,-0.035 0.332,-0.035 0.337,-0.038C0.341,-0.042 0.342,-0.048 0.338,-0.052L0.273,-0.133C0.27,-0.136 0.266,-0.138 0.263,-0.137C0.259,-0.136 0.256,-0.133 0.255,-0.129L0.229,-0.029C0.228,-0.023 0.231,-0.018 0.236,-0.016C0.242,-0.015 0.247,-0.018 0.249,-0.024L0.27,-0.105Z" style="fill:url(#_Linear4);"/>
    </g>
    <g transform="matrix(947.915,-202.259,-202.259,-947.915,45.4488,588.62)">
        <path d="M0.513,0.023L0.495,-0.061C0.494,-0.067 0.488,-0.07 0.483,-0.069C0.477,-0.068 0.474,-0.063 0.475,-0.057L0.495,0.036C0.496,0.041 0.501,0.044 0.506,0.044C0.51,0.043 0.522,0.042 0.535,0.039C0.544,0.035 0.554,0.031 0.56,0.023C0.571,0.01 0.573,-0.01 0.563,-0.025C0.557,-0.033 0.549,-0.039 0.536,-0.042C0.541,-0.053 0.547,-0.066 0.547,-0.066C0.55,-0.071 0.548,-0.077 0.543,-0.08C0.538,-0.082 0.532,-0.08 0.529,-0.075C0.529,-0.075 0.518,-0.051 0.513,-0.042C0.511,-0.038 0.512,-0.033 0.514,-0.029C0.516,-0.026 0.52,-0.023 0.524,-0.023C0.535,-0.023 0.542,-0.019 0.546,-0.014C0.551,-0.006 0.55,0.004 0.545,0.01C0.541,0.015 0.535,0.017 0.529,0.019C0.523,0.021 0.517,0.022 0.513,0.023Z" style="fill:url(#_Linear5);"/>
    </g>
    <g transform="matrix(947.915,-202.259,-202.259,-947.915,54.1913,629.593)">
        <path d="M0.628,0.038L0.631,0.035C0.643,0.021 0.647,0.002 0.644,-0.016C0.64,-0.031 0.637,-0.048 0.637,-0.048C0.636,-0.054 0.63,-0.057 0.625,-0.056C0.619,-0.055 0.616,-0.05 0.617,-0.044C0.617,-0.044 0.621,-0.027 0.624,-0.012C0.626,0 0.623,0.013 0.615,0.022C0.611,0.028 0.606,0.033 0.603,0.038C0.599,0.043 0.598,0.049 0.601,0.055C0.605,0.06 0.611,0.063 0.617,0.061C0.642,0.056 0.697,0.044 0.697,0.044C0.702,0.043 0.706,0.038 0.705,0.032C0.704,0.027 0.698,0.023 0.693,0.025L0.628,0.038Z" style="fill:url(#_Linear6);"/>
    </g>
    <g transform="matrix(947.915,-202.259,-202.259,-947.915,64.0166,675.641)">
        <path d="M0.735,-0.021L0.754,0.07C0.755,0.076 0.752,0.081 0.747,0.082C0.741,0.084 0.736,0.08 0.735,0.075L0.715,-0.016C0.714,-0.022 0.717,-0.027 0.723,-0.028C0.728,-0.03 0.733,-0.026 0.735,-0.021Z" style="fill:url(#_Linear7);"/>
    </g>
    <g transform="matrix(947.915,-202.259,-202.259,-947.915,79.1902,746.754)">
        <path d="M0.921,0.058L0.892,0.109C0.889,0.114 0.891,0.12 0.896,0.123C0.901,0.126 0.907,0.124 0.91,0.119L0.935,0.075L0.976,0.105C0.98,0.108 0.987,0.107 0.99,0.103C0.993,0.098 0.992,0.092 0.988,0.089L0.941,0.054L0.932,0.012C0.931,0.007 0.925,0.003 0.92,0.005C0.914,0.006 0.911,0.011 0.912,0.017L0.921,0.058Z" style="fill:url(#_Linear8);"/>
    </g>
    <g transform="matrix(947.915,-202.259,-202.259,-947.915,69.2857,700.335)">
        <path d="M0.797,0.025L0.79,-0.006C0.789,-0.012 0.784,-0.015 0.778,-0.014C0.773,-0.013 0.769,-0.008 0.77,-0.002L0.784,0.064C0.788,0.083 0.808,0.095 0.827,0.091L0.859,0.084C0.865,0.083 0.868,0.078 0.867,0.072C0.866,0.067 0.86,0.064 0.855,0.065L0.823,0.072C0.814,0.073 0.806,0.068 0.804,0.059L0.801,0.045L0.835,0.038C0.84,0.037 0.844,0.031 0.843,0.026C0.842,0.021 0.836,0.017 0.831,0.018L0.797,0.025Z" style="fill:url(#_Linear9);"/>
    </g>
    <g transform="matrix(-969.253,-2.49475e-12,-2.49475e-12,969.253,872.386,538)">
        <ellipse cx="0.431" cy="-0.037" rx="0.021" ry="0.016" style="fill:url(#_Linear10);"/>
    </g>
    <defs>
        <linearGradient id="_Linear1" x1="0" y1="0" x2="1" y2="0" gradientUnits="userSpaceOnUse" gradientTransform="matrix(1,0,0,-1,0,-0.233312)"><stop offset="0" style="stop-color:rgb(72,106,201);stop-opacity:1"/><stop offset="1" style="stop-color:rgb(0,255,113);stop-opacity:1"/></linearGradient>
        <linearGradient id="_Linear2" x1="0" y1="0" x2="1" y2="0" gradientUnits="userSpaceOnUse" gradientTransform="matrix(1,0,0,-1,0,-0.204783)"><stop offset="0" style="stop-color:rgb(72,106,201);stop-opacity:1"/><stop offset="1" style="stop-color:rgb(0,255,113);stop-opacity:1"/></linearGradient>
        <linearGradient id="_Linear3" x1="0" y1="0" x2="1" y2="0" gradientUnits="userSpaceOnUse" gradientTransform="matrix(1,0,0,-1,0,-0.0787872)"><stop offset="0" style="stop-color:rgb(72,106,201);stop-opacity:1"/><stop offset="1" style="stop-color:rgb(0,255,113);stop-opacity:1"/></linearGradient>
        <linearGradient id="_Linear4" x1="0" y1="0" x2="1" y2="0" gradientUnits="userSpaceOnUse" gradientTransform="matrix(1,0,0,-1,0,-0.152437)"><stop offset="0" style="stop-color:rgb(72,106,201);stop-opacity:1"/><stop offset="1" style="stop-color:rgb(0,255,113);stop-opacity:1"/></linearGradient>
        <linearGradient id="_Linear5" x1="0" y1="0" x2="1" y2="0" gradientUnits="userSpaceOnUse" gradientTransform="matrix(1,0,0,-1,0,-0.0377831)"><stop offset="0" style="stop-color:rgb(72,106,201);stop-opacity:1"/><stop offset="1" style="stop-color:rgb(0,255,113);stop-opacity:1"/></linearGradient>
        <linearGradient id="_Linear6" x1="0" y1="0" x2="1" y2="0" gradientUnits="userSpaceOnUse" gradientTransform="matrix(1,0,0,-1,0,0.00544096)"><stop offset="0" style="stop-color:rgb(72,106,201);stop-opacity:1"/><stop offset="1" style="stop-color:rgb(0,255,113);stop-opacity:1"/></linearGradient>
        <linearGradient id="_Linear7" x1="0" y1="0" x2="1" y2="0" gradientUnits="userSpaceOnUse" gradientTransform="matrix(1,0,0,-1,0,0.054019)"><stop offset="0" style="stop-color:rgb(72,106,201);stop-opacity:1"/><stop offset="1" style="stop-color:rgb(0,255,113);stop-opacity:1"/></linearGradient>
        <linearGradient id="_Linear8" x1="0" y1="0" x2="1" y2="0" gradientUnits="userSpaceOnUse" gradientTransform="matrix(1,0,0,-1,0,0.12904)"><stop offset="0" style="stop-color:rgb(72,106,201);stop-opacity:1"/><stop offset="1" style="stop-color:rgb(0,255,113);stop-opacity:1"/></linearGradient>
        <linearGradient id="_Linear9" x1="0" y1="0" x2="1" y2="0" gradientUnits="userSpaceOnUse" gradientTransform="matrix(1,0,0,-1,0,0.0800702)"><stop offset="0" style="stop-color:rgb(72,106,201);stop-opacity:1"/><stop offset="1" style="stop-color:rgb(0,255,113);stop-opacity:1"/></linearGradient>
        <linearGradient id="_Linear10" x1="0" y1="0" x2="1" y2="0" gradientUnits="userSpaceOnUse" gradientTransform="matrix(-0.977985,-0.208675,-0.208675,0.977985,0.845285,0.0891767)"><stop offset="0" style="stop-color:rgb(72,106,201);stop-opacity:1"/><stop offset="1" style="stop-color:rgb(0,255,113);stop-opacity:1"/></linearGradient>
    </defs>
</svg>
