<?xml version="1.0" encoding="UTF-8" standalone="no"?>
<!DOCTYPE svg PUBLIC "-//W3C//DTD SVG 1.1//EN" "http://www.w3.org/Graphics/SVG/1.1/DTD/svg11.dtd">
<svg width="100%" height="100%" viewBox="0 0 1000 1000" version="1.1" xmlns="http://www.w3.org/2000/svg" xmlns:xlink="http://www.w3.org/1999/xlink" xml:space="preserve" xmlns:serif="http://www.serif.com/" style="fill-rule:evenodd;clip-rule:evenodd;stroke-linejoin:round;stroke-miterlimit:2;">
    <g transform="matrix(1.49948,0,0,1.49948,-237.716,-263.833)">
        <g opacity="0.66">
            <g transform="matrix(0.570891,-0.821026,-0.821026,-0.570891,180.951,451.191)">
                <path d="M-7.355,-11.169C1.16,-6.655 1.927,7.459 -6.049,12.869L-7.355,13.654C-15.87,18.169 -27.982,10.881 -27.981,1.243C-27.982,-8.394 -15.871,-15.682 -7.355,-11.169" style="fill:rgb(255,140,0);fill-rule:nonzero;"/>
            </g>
        </g>
    </g>
    <g transform="matrix(1.49948,0,0,1.49948,-237.716,-263.833)">
        <g opacity="0.66">
            <g transform="matrix(1,0,0,1,181.849,531.847)">
                <path d="M0,-32.416C-5.621,-29.696 -8.764,-23.349 -9.351,-17.132C-9.896,-11.354 -9.877,-1.946 -4.145,0.856C1.145,3.441 10.236,-0.036 14.356,-3.406C20.471,-8.406 23.129,-17.556 19.839,-24.738C16.548,-31.919 7.11,-35.857 0,-32.416" style="fill:rgb(121,189,143);fill-rule:nonzero;"/>
            </g>
        </g>
    </g>
    <g transform="matrix(1.49948,0,0,1.49948,-237.716,-263.833)">
        <g opacity="0.66">
            <g transform="matrix(1,0,0,1,265.369,516.737)">
                <path d="M0,-10.553C3.18,-13.712 6.248,-17.172 7.772,-21.387C7.875,-21.669 7.951,-21.953 8.037,-22.236C7.035,-22.143 6.017,-22.151 5.011,-22.195C-6.499,-22.699 -16.332,-31.786 -27.424,-28.3C-44.019,-23.082 -48.243,-1.361 -43.537,13.088C-42.654,15.798 -41.315,18.614 -38.79,19.934C-36.306,21.233 -33.266,20.761 -30.621,19.835C-22.657,17.042 -18.114,9.966 -11.699,5.182C-11.029,3.066 -10.145,1.091 -9.026,-0.624C-6.576,-4.377 -3.18,-7.393 0,-10.553" style="fill:rgb(121,189,143);fill-rule:nonzero;"/>
            </g>
        </g>
    </g>
    <g transform="matrix(1.49948,0,0,1.49948,-237.716,-263.833)">
        <g opacity="0.66">
            <g transform="matrix(1,0,0,1,287.668,557.436)">
                <path d="M0,-17.276C0.827,-14.221 1.688,-11.272 2.854,-8.794C4.747,-4.769 7.133,-0.759 10.879,1.638C14.625,4.036 21.146,5.168 23.24,1.245C27.547,-6.825 18.928,-18.696 16.72,-22.444C11.021,-20.986 5.396,-19.375 0,-17.276" style="fill:rgb(121,189,143);fill-rule:nonzero;"/>
            </g>
        </g>
    </g>
    <g transform="matrix(1.49948,0,0,1.49948,-237.716,-263.833)">
        <g opacity="0.49">
            <g transform="matrix(1,0,0,1,300.354,474.478)">
                <path d="M0,-20.654C4,-20.704 7.758,-18.271 10.037,-14.982C11.791,-12.451 12.762,-9.475 13.264,-6.421C16.962,-9.402 21.049,-11.839 25.562,-13.755C27.17,-14.465 28.772,-15.059 30.365,-15.561C31.948,-17.008 33.846,-18.186 36.396,-19.49C43.462,-23.104 51.128,-25.028 58.859,-25.122C49.853,-31.257 21.387,-40.678 -16.835,-28.404C-28.8,-24.561 -39.048,-18.4 -51.549,-22.612C-55.201,-23.843 -58.716,-25.439 -62.276,-26.906C-74.03,-31.754 -91.301,-33.786 -98.328,-20.19C-101.932,-13.217 -100.639,-4.03 -95.249,1.677C-87.01,10.402 -75.813,7.964 -67.244,1.445C-63.523,-1.385 -59.931,-4.523 -55.607,-6.302C-40.833,-12.383 -22.302,4.71 -26.948,20.024C-26.002,19.937 -25.071,19.759 -24.181,19.43C-8.786,13.728 -16.946,-20.441 0,-20.654" style="fill:rgb(0,163,136);fill-rule:nonzero;"/>
            </g>
        </g>
    </g>
    <g transform="matrix(1.49948,0,0,1.49948,-237.716,-263.833)">
        <g opacity="0.66">
            <g transform="matrix(1,0,0,1,307.118,519.622)">
                <path d="M0,-45.311C2.016,-47.619 4.183,-49.697 6.5,-51.565C5.998,-54.62 5.027,-57.596 3.273,-60.127C0.994,-63.415 -2.764,-65.849 -6.764,-65.799C-23.71,-65.585 -15.55,-31.416 -30.945,-25.715C-31.835,-25.386 -32.767,-25.208 -33.712,-25.121C-33.798,-24.838 -33.875,-24.554 -33.977,-24.272C-35.501,-20.057 -38.569,-16.597 -41.749,-13.438C-44.929,-10.278 -48.325,-7.262 -50.775,-3.509C-51.895,-1.794 -52.778,0.181 -53.448,2.297C-52.22,1.382 -50.931,0.542 -49.527,-0.16C-41.736,-4.05 -32.39,-3.157 -26.353,3.557C-22.677,7.645 -21.135,14.316 -19.45,20.538C-14.054,18.439 -8.429,16.828 -2.73,15.37C-22.741,-18.598 -3.309,-41.524 0,-45.311" style="fill:rgb(121,189,143);fill-rule:nonzero;"/>
            </g>
        </g>
    </g>
    <g transform="matrix(1.49948,0,0,1.49948,-237.716,-263.833)">
        <g opacity="0.49">
            <g transform="matrix(1,0,0,1,307.118,519.622)">
                <path d="M0,-45.311C2.016,-47.619 4.183,-49.697 6.5,-51.565C5.998,-54.62 5.027,-57.596 3.273,-60.127C0.994,-63.415 -2.764,-65.849 -6.764,-65.799C-23.71,-65.585 -15.55,-31.416 -30.945,-25.715C-31.835,-25.386 -32.767,-25.208 -33.712,-25.121C-33.798,-24.838 -33.875,-24.554 -33.977,-24.272C-35.501,-20.057 -38.569,-16.597 -41.749,-13.438C-44.929,-10.278 -48.325,-7.262 -50.775,-3.509C-51.895,-1.794 -52.778,0.181 -53.448,2.297C-52.22,1.382 -50.931,0.542 -49.527,-0.16C-41.736,-4.05 -32.39,-3.157 -26.353,3.557C-22.677,7.645 -21.135,14.316 -19.45,20.538C-14.054,18.439 -8.429,16.828 -2.73,15.37C-22.741,-18.598 -3.309,-41.524 0,-45.311" style="fill:rgb(0,163,136);fill-rule:nonzero;"/>
            </g>
        </g>
    </g>
    <g transform="matrix(1.49948,0,0,1.49948,-237.716,-263.833)">
        <g opacity="0.66">
            <g transform="matrix(1,0,0,1,419.608,576.452)">
                <path d="M0,-69.572C-0.484,-70.665 -0.975,-71.255 -1.603,-72.3C-1.124,-68.25 -1.175,-64.721 -1.991,-60.701C-3.684,-52.366 -9.683,-44.629 -17.485,-41.765C-18.34,-40.676 -18.052,-39.392 -16.684,-37.352C-15.502,-35.589 -15.439,-34.113 -16.97,-32.697C-17.91,-31.827 -17.989,-30.894 -17.778,-29.724C-17.491,-28.134 -17.744,-26.476 -19.105,-25.535C-21.019,-24.212 -20.851,-22.553 -20.483,-20.685C-20.008,-18.279 -19.966,-15.848 -20.845,-13.533C-22.079,-10.282 -24.924,-9.25 -28.01,-9.008C-31.14,-8.762 -34.208,-9.276 -37.37,-9.773C-41.798,-10.47 -47.027,-11.168 -51.344,-9.507C-53.838,-8.547 -55.871,-6.197 -55.481,-3.349C-55.369,-2.526 -55.037,-1.729 -54.542,-1.063C-53.546,0.281 -51.986,1.118 -50.372,1.553C-46.003,2.728 -40.685,2.257 -36.282,1.401C-31.538,0.479 -26.943,-1.28 -22.836,-3.837C-19.114,-6.154 -15.818,-9.134 -13.167,-12.628C-8.746,-18.453 -5.084,-24.824 -2.369,-31.614C2.333,-43.37 5.241,-57.743 0,-69.572" style="fill:rgb(255,140,0);fill-rule:nonzero;"/>
            </g>
        </g>
    </g>
    <g transform="matrix(1.49948,0,0,1.49948,-237.716,-263.833)">
        <g opacity="0.76">
            <g transform="matrix(1,0,0,1,365.279,499.576)">
                <path d="M0,-45.712C0.649,-45.181 1.29,-44.639 1.919,-44.084C4.782,-41.563 7.439,-38.81 9.846,-35.851C10.97,-34.469 12.04,-33.03 13.006,-31.532C23.331,-23.758 28.394,-13.178 29.429,-9.938C38.134,-6.695 47.068,-2.731 52.727,4.576C51.94,-1.77 49.682,-8.027 46.78,-13.766C39.146,-28.862 26.494,-41.898 10.533,-47.504C5.1,-49.412 -0.5,-50.288 -6.066,-50.22C-4.156,-48.92 -2.366,-47.6 -0.742,-46.31C-0.493,-46.112 -0.246,-45.913 0,-45.712" style="fill:rgb(251,205,24);fill-rule:nonzero;"/>
            </g>
        </g>
    </g>
    <g transform="matrix(1.49948,0,0,1.49948,-237.716,-263.833)">
        <g opacity="0.49">
            <g transform="matrix(1,0,0,1,330.719,458.483)">
                <path d="M0,0.433C20.078,-5.895 38.64,3.489 47.566,9.561C46.599,8.062 45.529,6.624 44.405,5.242C41.999,2.283 39.341,-0.47 36.479,-2.991C35.849,-3.546 35.209,-4.088 34.56,-4.619C34.314,-4.82 34.066,-5.019 33.818,-5.217C32.194,-6.507 30.403,-7.827 28.494,-9.128C20.763,-9.034 13.097,-7.109 6.031,-3.496C3.481,-2.192 1.583,-1.014 0,0.433" style="fill:rgb(0,163,136);fill-rule:nonzero;"/>
            </g>
        </g>
    </g>
    <g transform="matrix(1.49948,0,0,1.49948,-237.716,-263.833)">
        <g opacity="0.66">
            <g transform="matrix(1,0,0,1,330.719,458.483)">
                <path d="M0,0.433C20.078,-5.895 38.64,3.489 47.566,9.561C46.599,8.062 45.529,6.624 44.405,5.242C41.999,2.283 39.341,-0.47 36.479,-2.991C35.849,-3.546 35.209,-4.088 34.56,-4.619C34.314,-4.82 34.066,-5.019 33.818,-5.217C32.194,-6.507 30.403,-7.827 28.494,-9.128C20.763,-9.034 13.097,-7.109 6.031,-3.496C3.481,-2.192 1.583,-1.014 0,0.433" style="fill:rgb(251,205,24);fill-rule:nonzero;"/>
            </g>
        </g>
    </g>
    <g transform="matrix(1.49948,0,0,1.49948,-237.716,-263.833)">
        <g opacity="0.66">
            <g transform="matrix(1,0,0,1,394.708,534.683)">
                <path d="M0,-45.045C0.257,-44.24 0.491,-43.423 0.682,-42.587C1.377,-39.539 2.784,-36.664 2.868,-33.464C2.921,-31.402 2.796,-29.419 1.956,-27.451C1.217,-25.721 1.335,-23.922 2.431,-22.211C5.118,-18.008 8.111,-14.07 11.754,-10.64C14.937,-7.642 14.575,-4.505 10.825,-2.217C10.513,-2.027 10.186,-1.86 9.857,-1.7C8.689,-1.131 7.885,-0.593 7.417,0C15.216,-2.858 21.166,-10.606 22.909,-18.932C23.712,-22.766 23.777,-26.666 23.298,-30.531C17.639,-37.838 8.705,-41.802 0,-45.045" style="fill:rgb(255,140,0);fill-rule:nonzero;"/>
            </g>
        </g>
    </g>
    <g transform="matrix(1.49948,0,0,1.49948,-237.716,-263.833)">
        <g opacity="0.66">
            <g transform="matrix(1,0,0,1,394.708,534.683)">
                <path d="M0,-45.045C0.257,-44.24 0.491,-43.423 0.682,-42.587C1.377,-39.539 2.784,-36.664 2.868,-33.464C2.921,-31.402 2.796,-29.419 1.956,-27.451C1.217,-25.721 1.335,-23.922 2.431,-22.211C5.118,-18.008 8.111,-14.07 11.754,-10.64C14.937,-7.642 14.575,-4.505 10.825,-2.217C10.513,-2.027 10.186,-1.86 9.857,-1.7C8.689,-1.131 7.885,-0.593 7.417,0C15.216,-2.858 21.166,-10.606 22.909,-18.932C23.712,-22.766 23.777,-26.666 23.298,-30.531C17.639,-37.838 8.705,-41.802 0,-45.045" style="fill:rgb(251,205,24);fill-rule:nonzero;"/>
            </g>
        </g>
    </g>
    <g transform="matrix(1.49948,0,0,1.49948,146.281,542.828)">
        <path d="M0,-1.219C0.387,-5.321 2.461,-9.508 6.169,-11.303C10.86,-13.573 17.086,-10.975 19.257,-6.237C21.429,-1.499 19.675,4.538 15.641,7.837C12.922,10.06 6.924,12.354 3.435,10.648C-0.347,8.8 -0.36,2.593 0,-1.219" style="fill:rgb(121,189,143);fill-rule:nonzero;"/>
    </g>
    <g transform="matrix(1.49948,0,0,1.49948,146.281,543.984)">
        <path d="M0,-1.99L0.163,-1.974C-0.252,2.417 -0.009,8.012 3.506,9.731C6.848,11.364 12.766,9.205 15.537,6.94C19.656,3.571 21.191,-2.395 19.109,-6.94C18.027,-9.3 15.9,-11.195 13.273,-12.139C10.834,-13.016 8.337,-12.941 6.241,-11.927C2.271,-10.006 0.498,-5.526 0.163,-1.974L0,-1.99ZM6.374,10.643C5.28,10.643 4.248,10.457 3.363,10.025C-0.32,8.224 -0.587,2.489 -0.163,-2.006C0.181,-5.645 2.006,-10.241 6.098,-12.22C8.274,-13.274 10.861,-13.354 13.383,-12.447C16.093,-11.473 18.289,-9.515 19.406,-7.076C21.549,-2.401 19.974,3.733 15.744,7.193C13.65,8.906 9.722,10.643 6.374,10.643" style="fill:rgb(121,189,143);fill-rule:nonzero;"/>
    </g>
    <g transform="matrix(1.49948,0,0,1.49948,-237.716,-263.833)">
        <g opacity="0.79">
            <g transform="matrix(1,0,0,1,448.27,546.753)">
                <path d="M0,17.503L0,0L12.31,0L12.31,3.267L3.5,3.267L3.5,7.001L10,7.001L10,10.256L3.5,10.256L3.5,17.503L0,17.503Z" style="fill:rgb(34,181,115);fill-rule:nonzero;"/>
            </g>
            <g transform="matrix(1,0,0,1,448.597,547.079)">
                <path d="M0,16.85L2.847,16.85L2.847,9.604L9.346,9.604L9.346,7.002L2.847,7.002L2.847,2.614L11.656,2.614L11.656,-0L0,-0L0,16.85ZM3.5,17.503L-0.654,17.503L-0.654,-0.653L12.31,-0.653L12.31,3.268L3.5,3.268L3.5,6.348L10,6.348L10,10.257L3.5,10.257L3.5,17.503Z" style="fill:white;fill-rule:nonzero;"/>
            </g>
            <g transform="matrix(1,0,0,1,0,110.997)">
                <rect x="471.56" y="435.744" width="3.489" height="17.515" style="fill:rgb(34,181,115);"/>
            </g>
            <g transform="matrix(1,0,0,1,0,110.996)">
                <path d="M471.887,452.933L474.721,452.933L474.721,436.072L471.887,436.072L471.887,452.933ZM475.375,453.586L471.232,453.586L471.232,435.418L475.375,435.418L475.375,453.586Z" style="fill:white;fill-rule:nonzero;"/>
            </g>
            <g transform="matrix(1,0,0,1,486.996,546.753)">
                <path d="M0,17.503L0,0L1.167,0L12.135,10.968L12.135,0L15.636,0L15.636,17.503L14.353,17.503L3.5,6.65L3.5,17.503L0,17.503Z" style="fill:rgb(34,181,115);fill-rule:nonzero;"/>
            </g>
            <g transform="matrix(1,0,0,1,501.484,547.079)">
                <path d="M0,16.85L0.82,16.85L0.82,-0L-2.026,-0L-2.026,11.432L-13.457,-0L-14.161,-0L-14.161,16.85L-11.314,16.85L-11.314,5.536L0,16.85ZM1.475,17.503L-0.271,17.503L-10.661,7.114L-10.661,17.503L-14.815,17.503L-14.815,-0.653L-13.186,-0.653L-2.68,9.853L-2.68,-0.653L1.475,-0.653L1.475,17.503Z" style="fill:white;fill-rule:nonzero;"/>
            </g>
            <g transform="matrix(1,0,0,1,521.441,550.231)">
                <path d="M0,10.536C3.104,10.528 4.659,8.774 4.667,5.273C4.659,1.772 3.104,0.022 0,0.022L-3.244,0.022L-3.244,10.536L0,10.536ZM-6.745,14.025L-6.745,-3.489L0,-3.489C5.445,-3.489 8.168,-0.568 8.168,5.273C8.168,11.107 5.445,14.025 0,14.025L-6.745,14.025Z" style="fill:rgb(34,181,115);fill-rule:nonzero;"/>
            </g>
            <g transform="matrix(1,0,0,1,518.524,550.557)">
                <path d="M0,9.882L2.916,9.882C5.83,9.875 7.25,8.26 7.257,4.946C7.25,1.633 5.83,0.023 2.917,0.023L0,0.023L0,9.882ZM2.918,10.536L-0.654,10.536L-0.654,-0.632L2.917,-0.632C6.223,-0.632 7.903,1.245 7.911,4.946C7.903,8.648 6.223,10.528 2.918,10.536M-3.501,13.371L2.917,13.371C8.193,13.371 10.758,10.615 10.758,4.946C10.758,-0.73 8.193,-3.49 2.917,-3.49L-3.501,-3.49L-3.501,13.371ZM2.917,14.025L-4.154,14.025L-4.154,-4.143L2.917,-4.143C8.554,-4.143 11.412,-1.086 11.412,4.946C11.412,10.97 8.554,14.025 2.917,14.025" style="fill:white;fill-rule:nonzero;"/>
            </g>
            <g transform="matrix(1,0,0,1,557.379,564.256)">
                <path d="M0,-17.503L4.107,-17.503L8.168,-11.786L12.322,-17.503L16.336,-17.503L9.919,-8.752L9.919,0L6.418,0L6.418,-8.752L0,-17.503Z" style="fill:rgb(34,181,115);fill-rule:nonzero;"/>
            </g>
            <g transform="matrix(1,0,0,1,564.124,547.079)">
                <path d="M0,16.85L2.847,16.85L2.847,8.319L2.909,8.232L8.945,-0L5.744,-0L1.421,5.952L-2.807,-0L-6.1,-0L0,8.319L0,16.85ZM3.5,17.503L-0.654,17.503L-0.654,8.533L-7.391,-0.653L-2.469,-0.653L1.426,4.83L5.411,-0.653L10.236,-0.653L3.5,8.533L3.5,17.503Z" style="fill:white;fill-rule:nonzero;"/>
            </g>
            <g transform="matrix(1,0,0,1,592.618,550.021)">
                <path d="M0,10.967C1.548,10.967 2.808,10.442 3.78,9.392C4.753,8.341 5.239,7.038 5.239,5.483C5.239,3.927 4.753,2.624 3.78,1.573C2.808,0.524 1.54,-0.002 -0.023,-0.002C-1.571,-0.002 -2.832,0.524 -3.805,1.573C-4.776,2.624 -5.263,3.927 -5.263,5.483C-5.263,7.038 -4.776,8.341 -3.805,9.392C-2.832,10.442 -1.564,10.967 0,10.967M-6.255,11.72C-7.927,10.043 -8.764,7.964 -8.764,5.483C-8.764,2.993 -7.927,0.912 -6.255,-0.761C-4.582,-2.432 -2.502,-3.268 -0.012,-3.268C2.478,-3.268 4.559,-2.432 6.23,-0.761C7.903,0.912 8.739,2.993 8.739,5.483C8.739,7.972 7.903,10.053 6.23,11.726C4.559,13.398 2.478,14.235 -0.012,14.235C-2.502,14.235 -4.582,13.396 -6.255,11.72" style="fill:rgb(34,181,115);fill-rule:nonzero;"/>
            </g>
            <g transform="matrix(1,0,0,1,592.595,560.661)">
                <path d="M0,-10.314C-1.467,-10.314 -2.625,-9.833 -3.541,-8.843C-4.451,-7.861 -4.912,-6.621 -4.912,-5.157C-4.912,-3.693 -4.451,-2.453 -3.541,-1.47C-2.625,-0.48 -1.459,0 0.022,0C1.489,0 2.647,-0.48 3.563,-1.47C4.475,-2.453 4.936,-3.693 4.936,-5.157C4.936,-6.621 4.475,-7.861 3.563,-8.843C2.647,-9.833 1.482,-10.314 0,-10.314M0.022,0.655C-1.628,0.655 -2.988,0.089 -4.021,-1.026C-5.046,-2.133 -5.566,-3.523 -5.566,-5.157C-5.566,-6.791 -5.046,-8.18 -4.021,-9.288C-2.988,-10.403 -1.636,-10.968 0,-10.968C1.651,-10.968 3.012,-10.403 4.044,-9.288C5.069,-8.18 5.59,-6.791 5.59,-5.157C5.59,-3.523 5.069,-2.133 4.043,-1.026C3.012,0.089 1.659,0.655 0.022,0.655M-6,0.849C-4.398,2.454 -2.376,3.268 0.012,3.268C2.399,3.268 4.422,2.456 6.023,0.855C7.624,-0.747 8.437,-2.769 8.437,-5.157C8.437,-7.544 7.624,-9.566 6.023,-11.168C4.422,-12.769 2.399,-13.582 0.012,-13.582C-2.376,-13.582 -4.398,-12.769 -6,-11.168C-7.601,-9.567 -8.413,-7.544 -8.413,-5.157C-8.413,-2.776 -7.601,-0.755 -6,0.849M0.012,3.921C-2.556,3.921 -4.734,3.043 -6.463,1.311C-8.19,-0.42 -9.066,-2.597 -9.066,-5.157C-9.066,-7.724 -8.19,-9.902 -6.463,-11.63C-4.734,-13.359 -2.556,-14.235 0.012,-14.235C2.579,-14.235 4.757,-13.359 6.485,-11.63C8.214,-9.902 9.09,-7.724 9.09,-5.157C9.09,-2.589 8.214,-0.411 6.485,1.317C4.758,3.045 2.579,3.921 0.012,3.921" style="fill:white;fill-rule:nonzero;"/>
            </g>
            <g transform="matrix(1,0,0,1,615.628,564.256)">
                <path d="M0,-17.503L0,-7.352C0,-6.029 0.389,-5.057 1.167,-4.435C1.944,-3.813 2.917,-3.501 4.084,-3.501C5.251,-3.501 6.224,-3.813 7.001,-4.435C7.779,-5.057 8.168,-6.029 8.168,-7.352L8.168,-17.503L11.669,-17.503L11.669,-6.418C11.669,-4.629 10.949,-3.112 9.51,-1.867C8.07,-0.623 6.262,0 4.084,0C1.906,0 0.097,-0.623 -1.342,-1.867C-2.781,-3.112 -3.501,-4.629 -3.501,-6.418L-3.501,-17.503L0,-17.503Z" style="fill:rgb(34,181,115);fill-rule:nonzero;"/>
            </g>
            <g transform="matrix(1,0,0,1,612.454,563.929)">
                <path d="M0,-16.85L0,-6.091C0,-4.386 0.669,-2.978 2.046,-1.788C3.417,-0.602 5.17,0 7.258,0C9.345,0 11.099,-0.602 12.47,-1.788C13.847,-2.978 14.516,-4.386 14.516,-6.091L14.516,-16.85L11.669,-16.85L11.669,-7.025C11.669,-5.604 11.234,-4.537 10.379,-3.852C9.546,-3.186 8.496,-2.847 7.258,-2.847C6.02,-2.847 4.97,-3.186 4.136,-3.852C3.28,-4.537 2.847,-5.605 2.847,-7.025L2.847,-16.85L0,-16.85ZM7.258,0.653C5.009,0.653 3.111,-0.001 1.618,-1.293C0.11,-2.597 -0.653,-4.211 -0.653,-6.091L-0.653,-17.503L3.501,-17.503L3.501,-7.025C3.501,-5.796 3.843,-4.925 4.545,-4.364C5.26,-3.791 6.172,-3.501 7.258,-3.501C8.344,-3.501 9.256,-3.791 9.971,-4.363C10.674,-4.925 11.015,-5.796 11.015,-7.025L11.015,-17.503L15.169,-17.503L15.169,-6.091C15.169,-4.211 14.405,-2.597 12.897,-1.293C11.404,-0.001 9.507,0.653 7.258,0.653" style="fill:white;fill-rule:nonzero;"/>
            </g>
            <g transform="matrix(1,0,0,1,643.014,557.255)">
                <path d="M0,-3.501L4.9,-3.501C6.309,-3.524 7.032,-4.166 7.071,-5.427C7.032,-6.578 6.32,-7.177 4.936,-7.224L0,-7.224L0,-3.501ZM7.036,-0.631L11.4,7.001L7.386,7.001L3.197,-0.234L0,-0.234L0,7.001L-3.501,7.001L-3.501,-10.502L4.131,-10.502C8.215,-10.502 10.257,-8.822 10.257,-5.462C10.257,-2.934 9.183,-1.323 7.036,-0.631" style="fill:rgb(34,181,115);fill-rule:nonzero;"/>
            </g>
            <g transform="matrix(1,0,0,1,643.341,557.581)">
                <path d="M0,-4.154L4.573,-4.154C5.796,-4.175 6.384,-4.685 6.417,-5.762C6.396,-6.351 6.186,-7.169 4.598,-7.223L0,-7.222L0,-4.154ZM4.579,-3.5L-0.654,-3.5L-0.654,-7.877L4.608,-7.877C6.589,-7.809 7.039,-6.69 7.07,-5.763C7.04,-4.738 6.582,-3.534 4.579,-3.5ZM7.247,6.348L10.509,6.348L6.225,-1.144L6.608,-1.268C8.623,-1.918 9.603,-3.395 9.603,-5.788C9.603,-8.96 7.705,-10.502 3.804,-10.502L-3.501,-10.502L-3.501,6.348L-0.654,6.348L-0.654,-0.886L3.059,-0.886L7.247,6.348ZM11.637,7.001L6.87,7.001L2.682,-0.233L0,-0.233L0,7.001L-4.155,7.001L-4.155,-11.155L3.804,-11.155C8.085,-11.155 10.256,-9.349 10.256,-5.788C10.256,-3.264 9.224,-1.582 7.187,-0.78L11.637,7.001Z" style="fill:white;fill-rule:nonzero;"/>
            </g>
            <g transform="matrix(1,0,0,1,681.227,546.753)">
                <path d="M0,17.503L0,0.011L12.859,0L12.859,3.267L3.501,3.267L3.501,7.001L10.514,7.001L10.514,10.256L3.501,10.256L3.501,14.235L12.836,14.235L12.836,17.503L0,17.503Z" style="fill:rgb(34,181,115);fill-rule:nonzero;"/>
            </g>
            <g transform="matrix(1,0,0,1,681.554,547.078)">
                <path d="M0,16.851L12.182,16.851L12.182,14.238L2.847,14.238L2.847,9.605L9.859,9.605L9.859,7.003L2.847,7.003L2.847,2.615L12.205,2.615L12.205,0.002L0,0.013L0,16.851ZM12.836,17.504L-0.654,17.504L-0.654,-0.64L12.859,-0.653L12.859,3.269L3.501,3.269L3.501,6.349L10.514,6.349L10.514,10.258L3.501,10.258L3.501,13.583L12.836,13.583L12.836,17.504Z" style="fill:white;fill-rule:nonzero;"/>
            </g>
            <g transform="matrix(1,0,0,1,709.278,564.256)">
                <path d="M0,-17.503L0,-7.352C0,-6.029 0.39,-5.057 1.167,-4.435C1.945,-3.813 2.917,-3.501 4.084,-3.501C5.251,-3.501 6.224,-3.813 7.001,-4.435C7.779,-5.057 8.168,-6.029 8.168,-7.352L8.168,-17.503L11.669,-17.503L11.669,-6.418C11.669,-4.629 10.949,-3.112 9.51,-1.867C8.071,-0.623 6.263,0 4.084,0C1.906,0 0.098,-0.623 -1.342,-1.867C-2.781,-3.112 -3.5,-4.629 -3.5,-6.418L-3.5,-17.503L0,-17.503Z" style="fill:rgb(34,181,115);fill-rule:nonzero;"/>
            </g>
            <g transform="matrix(1,0,0,1,706.104,563.929)">
                <path d="M0,-16.85L0,-6.091C0,-4.386 0.669,-2.978 2.046,-1.788C3.417,-0.602 5.171,0 7.258,0C9.346,0 11.099,-0.602 12.47,-1.788C13.847,-2.978 14.516,-4.386 14.516,-6.091L14.516,-16.85L11.669,-16.85L11.669,-7.025C11.669,-5.605 11.235,-4.537 10.38,-3.852C9.546,-3.186 8.496,-2.847 7.258,-2.847C6.021,-2.847 4.971,-3.186 4.137,-3.852C3.281,-4.537 2.847,-5.604 2.847,-7.025L2.847,-16.85L0,-16.85ZM7.258,0.653C5.009,0.653 3.111,-0.001 1.618,-1.293C0.111,-2.597 -0.653,-4.211 -0.653,-6.091L-0.653,-17.503L3.501,-17.503L3.501,-7.025C3.501,-5.796 3.843,-4.925 4.545,-4.364C5.26,-3.791 6.173,-3.501 7.258,-3.501C8.344,-3.501 9.256,-3.791 9.971,-4.364C10.674,-4.925 11.015,-5.796 11.015,-7.025L11.015,-17.503L15.17,-17.503L15.17,-6.091C15.17,-4.211 14.405,-2.597 12.898,-1.293C11.404,-0.001 9.507,0.653 7.258,0.653" style="fill:white;fill-rule:nonzero;"/>
            </g>
            <g transform="matrix(1,0,0,1,736.663,557.255)">
                <path d="M0,-3.501L4.9,-3.501C6.309,-3.524 7.032,-4.166 7.071,-5.427C7.032,-6.578 6.32,-7.177 4.936,-7.224L0,-7.224L0,-3.501ZM7.036,-0.631L11.4,7.001L7.387,7.001L3.197,-0.234L0,-0.234L0,7.001L-3.501,7.001L-3.501,-10.502L4.131,-10.502C8.215,-10.502 10.257,-8.822 10.257,-5.462C10.257,-2.934 9.184,-1.323 7.036,-0.631" style="fill:rgb(34,181,115);fill-rule:nonzero;"/>
            </g>
            <g transform="matrix(1,0,0,1,736.99,557.581)">
                <path d="M0,-4.154L4.573,-4.154C5.797,-4.175 6.384,-4.685 6.417,-5.762C6.396,-6.351 6.186,-7.169 4.598,-7.223L0,-7.222L0,-4.154ZM4.579,-3.5L-0.654,-3.5L-0.654,-7.877L4.608,-7.877C6.589,-7.809 7.039,-6.69 7.07,-5.763C7.04,-4.738 6.582,-3.534 4.579,-3.5ZM7.247,6.348L10.51,6.348L6.225,-1.144L6.608,-1.268C8.623,-1.918 9.603,-3.395 9.603,-5.788C9.603,-8.96 7.706,-10.502 3.804,-10.502L-3.501,-10.502L-3.501,6.348L-0.654,6.348L-0.654,-0.886L3.059,-0.886L7.247,6.348ZM11.637,7.001L6.871,7.001L2.682,-0.233L0,-0.233L0,7.001L-4.154,7.001L-4.154,-11.155L3.804,-11.155C8.086,-11.155 10.257,-9.349 10.257,-5.788C10.257,-3.264 9.225,-1.582 7.187,-0.78L11.637,7.001Z" style="fill:white;fill-rule:nonzero;"/>
            </g>
            <g transform="matrix(1,0,0,1,758.273,546.753)">
                <path d="M0,17.503L0,0.011L12.859,0L12.859,3.267L3.501,3.267L3.501,7.001L10.514,7.001L10.514,10.256L3.501,10.256L3.501,14.235L12.836,14.235L12.836,17.503L0,17.503Z" style="fill:rgb(34,181,115);fill-rule:nonzero;"/>
            </g>
            <g transform="matrix(1,0,0,1,758.6,547.078)">
                <path d="M0,16.851L12.182,16.851L12.182,14.238L2.847,14.238L2.847,9.605L9.859,9.605L9.859,7.003L2.847,7.003L2.847,2.615L12.205,2.615L12.205,0.002L0,0.013L0,16.851ZM12.836,17.504L-0.653,17.504L-0.653,-0.64L12.858,-0.653L12.858,3.269L3.501,3.269L3.501,6.349L10.514,6.349L10.514,10.258L3.501,10.258L3.501,13.583L12.836,13.583L12.836,17.504Z" style="fill:white;fill-rule:nonzero;"/>
            </g>
            <g transform="matrix(1,0,0,1,783.126,564.256)">
                <path d="M0,-17.503L3.501,-17.503L3.501,-10.502L9.335,-17.503L13.268,-17.503L6.418,-9.335L14.703,0L10.152,0L3.501,-7.562L3.501,0L0,0L0,-17.503Z" style="fill:rgb(34,181,115);fill-rule:nonzero;"/>
            </g>
            <g transform="matrix(1,0,0,1,793.426,547.079)">
                <path d="M0,16.85L3.676,16.85L-4.313,7.848L2.267,-0L-0.812,-0L-7.126,7.579L-7.126,-0L-9.973,-0L-9.973,16.85L-7.126,16.85L-7.126,8.748L0,16.85ZM5.13,17.503L-0.296,17.503L-6.472,10.483L-6.472,17.503L-10.627,17.503L-10.627,-0.653L-6.472,-0.653L-6.472,5.772L-1.118,-0.653L3.669,-0.653L-3.45,7.836L5.13,17.503Z" style="fill:white;fill-rule:nonzero;"/>
            </g>
            <g transform="matrix(1,0,0,1,816.3,559.589)">
                <path d="M0,-8.169L-2.661,-1.518L2.59,-1.518L0,-8.169ZM-8.845,4.667L-1.844,-12.836L1.656,-12.836L8.646,4.655L4.924,4.667L3.874,1.982L-4.062,1.982L-5.111,4.667L-8.845,4.667Z" style="fill:rgb(34,181,115);fill-rule:nonzero;"/>
            </g>
            <g transform="matrix(1,0,0,1,814.122,553.265)">
                <path d="M0,4.479L4.289,4.479L2.173,-0.955L0,4.479ZM5.246,5.133L-0.966,5.133L2.182,-2.736L5.246,5.133ZM-6.185,10.664L-3.156,10.664L-2.106,7.979L6.274,7.979L7.324,10.663L10.342,10.653L3.612,-6.186L0.555,-6.186L-6.185,10.664ZM6.879,11.318L5.828,8.633L-1.66,8.633L-2.71,11.317L-7.15,11.317L0.112,-6.839L4.056,-6.839L11.306,11.304L6.879,11.318Z" style="fill:white;fill-rule:nonzero;"/>
            </g>
        </g>
    </g>
    <g transform="matrix(1.49948,0,0,1.49948,446.204,468.076)">
        <path d="M0,17.417C0,19.79 0.46,22.038 1.381,24.162C2.302,26.287 3.552,28.148 5.131,29.746C6.71,31.344 8.568,32.605 10.707,33.526C12.845,34.448 15.131,34.909 17.565,34.909C20.033,34.909 22.327,34.448 24.449,33.526C26.571,32.605 28.421,31.344 30,29.746C31.579,28.148 32.82,26.287 33.725,24.162C34.629,22.038 35.083,19.79 35.083,17.417C35.083,14.979 34.629,12.699 33.725,10.574C32.82,8.449 31.579,6.597 30,5.016C28.421,3.434 26.571,2.19 24.449,1.285C22.327,0.379 20.033,-0.075 17.565,-0.075C15.131,-0.075 12.845,0.379 10.707,1.285C8.568,2.19 6.71,3.434 5.131,5.016C3.552,6.597 2.302,8.449 1.381,10.574C0.46,12.699 0,14.979 0,17.417M-6.562,-20.65C-6.562,-21.604 -6.242,-22.41 -5.601,-23.068C-4.959,-23.726 -4.178,-24.055 -3.257,-24.055C-2.303,-24.055 -1.522,-23.725 -0.913,-23.065C-0.305,-22.405 0,-21.597 0,-20.64L0,4.909C0.625,3.231 1.522,1.694 2.692,0.295C3.861,-1.103 5.228,-2.319 6.792,-3.356C8.356,-4.392 10.061,-5.198 11.905,-5.773C13.75,-6.349 15.644,-6.637 17.586,-6.637C20.913,-6.637 24.041,-6.013 26.972,-4.764C29.903,-3.515 32.456,-1.806 34.629,0.363C36.803,2.531 38.516,5.078 39.768,8.003C41.019,10.928 41.645,14.065 41.645,17.417C41.645,20.736 41.019,23.858 39.768,26.783C38.516,29.708 36.804,32.255 34.63,34.423C32.457,36.593 29.905,38.31 26.975,39.574C24.044,40.84 20.917,41.472 17.59,41.472C14.264,41.472 11.136,40.839 8.205,39.572C5.275,38.306 2.714,36.587 0.525,34.416C-1.665,32.245 -3.394,29.703 -4.662,26.792C-5.929,23.881 -6.562,20.765 -6.562,17.442L-6.562,-20.65Z" style="fill:rgb(179,179,179);fill-rule:nonzero;"/>
    </g>
    <g transform="matrix(1.49948,0,0,1.49948,472.543,492.835)">
        <path d="M0,-15.605C-2.29,-15.605 -4.469,-15.174 -6.476,-14.323C-8.486,-13.472 -10.257,-12.287 -11.74,-10.803C-13.225,-9.315 -14.417,-7.547 -15.284,-5.547C-16.147,-3.556 -16.584,-1.385 -16.584,0.907C-16.584,3.132 -16.147,5.27 -15.284,7.261C-14.417,9.263 -13.223,11.041 -11.736,12.545C-10.252,14.046 -8.48,15.248 -6.47,16.114C-4.465,16.979 -2.288,17.416 0,17.416C2.32,17.416 4.504,16.979 6.493,16.115C8.488,15.249 10.252,14.046 11.737,12.545C13.221,11.043 14.405,9.268 15.257,7.267C16.106,5.273 16.536,3.133 16.536,0.907C16.536,-1.386 16.106,-3.559 15.257,-5.553C14.406,-7.552 13.222,-9.318 11.74,-10.803C10.258,-12.288 8.494,-13.473 6.499,-14.324C4.508,-15.174 2.322,-15.605 0,-15.605M0,19.378C-2.557,19.378 -4.995,18.887 -7.247,17.916C-9.489,16.949 -11.469,15.606 -13.132,13.924C-14.79,12.247 -16.12,10.267 -17.084,8.041C-18.055,5.802 -18.547,3.402 -18.547,0.907C-18.547,-1.655 -18.055,-4.088 -17.084,-6.328C-16.119,-8.555 -14.788,-10.526 -13.128,-12.189C-11.466,-13.854 -9.485,-15.18 -7.241,-16.13C-4.991,-17.084 -2.555,-17.567 0,-17.567C2.589,-17.567 5.034,-17.083 7.269,-16.129C9.496,-15.178 11.468,-13.853 13.129,-12.189C14.789,-10.526 16.112,-8.553 17.062,-6.322C18.015,-4.084 18.498,-1.651 18.498,0.907C18.498,3.399 18.015,5.797 17.062,8.036C16.113,10.265 14.791,12.247 13.132,13.924C11.471,15.605 9.5,16.948 7.274,17.915C5.038,18.886 2.591,19.378 0,19.378M-20.822,-39.585C-21.482,-39.585 -22.004,-39.366 -22.464,-38.895C-22.923,-38.422 -23.147,-37.856 -23.147,-37.162L-23.147,0.931C-23.147,4.102 -22.535,7.116 -21.328,9.89C-20.116,12.671 -18.441,15.133 -16.35,17.208C-14.258,19.283 -11.775,20.949 -8.971,22.161C-6.178,23.368 -3.151,23.98 0.025,23.98C3.201,23.98 6.228,23.368 9.021,22.163C11.823,20.953 14.297,19.289 16.372,17.218C18.446,15.148 20.104,12.681 21.3,9.886C22.493,7.097 23.098,4.076 23.098,0.907C23.098,-2.295 22.493,-5.334 21.3,-8.123C20.104,-10.918 18.445,-13.385 16.371,-15.454C14.297,-17.524 11.824,-19.179 9.022,-20.373C6.227,-21.564 3.198,-22.168 0.021,-22.168C-1.813,-22.168 -3.626,-21.892 -5.368,-21.348C-7.116,-20.803 -8.752,-20.029 -10.232,-19.049C-11.709,-18.07 -13.018,-16.905 -14.121,-15.586C-15.213,-14.28 -16.063,-12.825 -16.646,-11.26L-18.547,-6.163L-18.547,-37.151C-18.547,-37.859 -18.76,-38.435 -19.2,-38.911C-19.624,-39.371 -20.14,-39.585 -20.822,-39.585M0.025,25.942C-3.42,25.942 -6.708,25.276 -9.75,23.961C-12.779,22.652 -15.464,20.849 -17.731,18.601C-20,16.351 -21.815,13.683 -23.126,10.672C-24.442,7.651 -25.109,4.373 -25.109,0.931L-25.109,-37.162C-25.109,-38.376 -24.691,-39.419 -23.869,-40.264C-23.038,-41.116 -22.013,-41.547 -20.822,-41.547C-19.588,-41.547 -18.557,-41.108 -17.757,-40.242C-16.979,-39.397 -16.584,-38.357 -16.584,-37.151L-16.584,-15.585C-16.286,-16.018 -15.966,-16.438 -15.626,-16.845C-14.401,-18.309 -12.951,-19.601 -11.315,-20.685C-9.681,-21.767 -7.877,-22.621 -5.953,-23.221C-4.021,-23.824 -2.011,-24.129 0.021,-24.129C3.464,-24.129 6.751,-23.473 9.792,-22.177C12.824,-20.885 15.504,-19.09 17.757,-16.843C20.009,-14.596 21.809,-11.921 23.104,-8.895C24.402,-5.86 25.06,-2.563 25.06,0.907C25.06,4.342 24.402,7.624 23.104,10.658C21.809,13.685 20.01,16.359 17.757,18.607C15.507,20.853 12.829,22.656 9.798,23.963C6.758,25.276 3.47,25.942 0.025,25.942" style="fill:rgb(179,179,179);fill-rule:nonzero;"/>
    </g>
    <g transform="matrix(1.49948,0,0,1.49948,518.416,525.231)">
        <path d="M0,-41.546C0,-42.5 0.32,-43.289 0.962,-43.915C1.604,-44.539 2.368,-44.852 3.257,-44.852C4.178,-44.852 4.959,-44.539 5.601,-43.915C6.242,-43.289 6.562,-42.5 6.562,-41.546L6.562,-19.736C6.562,-17.467 6.974,-15.328 7.796,-13.322C8.618,-11.316 9.745,-9.564 11.176,-8.067C12.607,-6.57 14.301,-5.386 16.259,-4.515C18.215,-3.643 20.329,-3.207 22.599,-3.207C24.869,-3.207 26.941,-3.643 28.816,-4.515C30.691,-5.386 32.295,-6.578 33.627,-8.092C34.959,-9.605 35.996,-11.364 36.735,-13.372C37.476,-15.378 37.846,-17.517 37.846,-19.786L37.846,-41.546C37.846,-42.5 38.172,-43.298 38.825,-43.94C39.478,-44.581 40.262,-44.901 41.176,-44.901C42.09,-44.901 42.857,-44.581 43.478,-43.94C44.098,-43.298 44.408,-42.5 44.408,-41.546L44.408,-19.638C44.408,-16.481 43.865,-13.503 42.781,-10.707C41.697,-7.911 40.178,-5.469 38.223,-3.38C36.268,-1.29 33.959,0.354 31.298,1.555C28.637,2.756 25.729,3.355 22.573,3.355C19.354,3.355 16.371,2.747 13.628,1.529C10.884,0.313 8.502,-1.34 6.481,-3.429C4.46,-5.518 2.875,-7.96 1.725,-10.757C0.575,-13.552 0,-16.546 0,-19.736L0,-41.546Z" style="fill:rgb(179,179,179);fill-rule:nonzero;"/>
    </g>
    <g transform="matrix(1.49948,0,0,1.49948,523.3,528.718)">
        <path d="M0,-46.197C-0.628,-46.197 -1.154,-45.981 -1.61,-45.537C-2.063,-45.095 -2.275,-44.566 -2.275,-43.872L-2.275,-22.063C-2.275,-19.014 -1.721,-16.118 -0.625,-13.456C0.473,-10.787 2.005,-8.425 3.929,-6.437C5.853,-4.448 8.154,-2.852 10.769,-1.693C13.373,-0.537 16.249,0.049 19.316,0.049C22.317,0.049 25.117,-0.528 27.638,-1.666C30.168,-2.806 32.393,-4.391 34.25,-6.376C36.11,-8.363 37.576,-10.722 38.61,-13.387C39.646,-16.058 40.17,-18.944 40.17,-21.965L40.17,-43.872C40.17,-44.568 39.956,-45.127 39.516,-45.584C39.078,-46.035 38.57,-46.246 37.919,-46.246C37.267,-46.246 36.722,-46.024 36.255,-45.565C35.788,-45.106 35.57,-44.568 35.57,-43.872L35.57,-22.112C35.57,-19.737 35.176,-17.465 34.399,-15.358C33.62,-13.247 32.513,-11.366 31.106,-9.769C29.689,-8.16 27.962,-6.876 25.973,-5.951C23.977,-5.023 21.746,-4.552 19.342,-4.552C16.943,-4.552 14.676,-5.02 12.603,-5.945C10.539,-6.863 8.724,-8.132 7.21,-9.716C5.699,-11.296 4.495,-13.167 3.632,-15.276C2.765,-17.39 2.325,-19.675 2.325,-22.063L2.325,-43.872C2.325,-44.566 2.113,-45.095 1.659,-45.538C1.204,-45.981 0.661,-46.197 0,-46.197M19.316,2.011C15.974,2.011 12.829,1.368 9.973,0.101C7.127,-1.161 4.619,-2.902 2.519,-5.073C0.422,-7.241 -1.246,-9.81 -2.439,-12.709C-3.633,-15.61 -4.237,-18.757 -4.237,-22.063L-4.237,-43.872C-4.237,-45.096 -3.814,-46.129 -2.979,-46.943C-2.15,-47.75 -1.148,-48.159 0,-48.159C1.181,-48.159 2.199,-47.75 3.028,-46.944C3.863,-46.128 4.287,-45.095 4.287,-43.872L4.287,-22.063C4.287,-19.93 4.677,-17.898 5.447,-16.02C6.218,-14.138 7.288,-12.473 8.628,-11.071C9.965,-9.674 11.57,-8.551 13.4,-7.737C15.222,-6.925 17.22,-6.514 19.342,-6.514C21.458,-6.514 23.41,-6.924 25.146,-7.73C26.888,-8.54 28.397,-9.662 29.634,-11.066C30.88,-12.48 31.864,-14.153 32.559,-16.037C33.255,-17.925 33.608,-19.969 33.608,-22.112L33.608,-43.872C33.608,-45.094 34.036,-46.135 34.88,-46.965C35.721,-47.79 36.743,-48.208 37.919,-48.208C39.105,-48.208 40.116,-47.784 40.926,-46.947C41.727,-46.118 42.132,-45.084 42.132,-43.872L42.132,-21.965C42.132,-18.7 41.563,-15.576 40.439,-12.678C39.315,-9.778 37.715,-7.207 35.683,-5.036C33.647,-2.861 31.212,-1.126 28.444,0.122C25.669,1.375 22.598,2.011 19.316,2.011" style="fill:rgb(179,179,179);fill-rule:nonzero;"/>
    </g>
    <g transform="matrix(1.49948,0,0,1.49948,608.089,468.076)">
        <path d="M0,17.417C0,19.79 0.461,22.038 1.382,24.162C2.303,26.287 3.553,28.148 5.132,29.746C6.711,31.344 8.568,32.605 10.707,33.526C12.846,34.448 15.132,34.909 17.566,34.909C20.033,34.909 22.328,34.448 24.449,33.526C26.571,32.605 28.422,31.344 30,29.746C31.579,28.148 32.82,26.287 33.726,24.162C34.63,22.038 35.083,19.79 35.083,17.417C35.083,14.979 34.63,12.699 33.726,10.574C32.82,8.449 31.579,6.597 30,5.016C28.422,3.434 26.571,2.19 24.449,1.285C22.328,0.379 20.033,-0.075 17.566,-0.075C15.132,-0.075 12.846,0.379 10.707,1.285C8.568,2.19 6.711,3.434 5.132,5.016C3.553,6.597 2.303,8.449 1.382,10.574C0.461,12.699 0,14.979 0,17.417M-6.562,-20.65C-6.562,-21.604 -6.241,-22.41 -5.6,-23.068C-4.959,-23.726 -4.178,-24.055 -3.256,-24.055C-2.303,-24.055 -1.521,-23.725 -0.912,-23.065C-0.305,-22.405 0,-21.597 0,-20.64L0,4.909C0.626,3.231 1.522,1.694 2.692,0.295C3.861,-1.103 5.229,-2.319 6.792,-3.356C8.356,-4.392 10.062,-5.198 11.905,-5.773C13.75,-6.349 15.645,-6.637 17.587,-6.637C20.913,-6.637 24.041,-6.013 26.973,-4.764C29.904,-3.515 32.456,-1.806 34.63,0.363C36.804,2.531 38.516,5.078 39.768,8.003C41.02,10.928 41.646,14.065 41.646,17.417C41.646,20.736 41.02,23.858 39.768,26.783C38.517,29.708 36.805,32.255 34.631,34.423C32.458,36.593 29.905,38.31 26.976,39.574C24.045,40.84 20.917,41.472 17.591,41.472C14.265,41.472 11.137,40.839 8.206,39.572C5.275,38.306 2.715,36.587 0.525,34.416C-1.664,32.245 -3.394,29.703 -4.661,26.792C-5.929,23.881 -6.562,20.765 -6.562,17.442L-6.562,-20.65Z" style="fill:rgb(179,179,179);fill-rule:nonzero;"/>
    </g>
    <g transform="matrix(1.49948,0,0,1.49948,634.43,492.835)">
        <path d="M0,-15.605C-2.29,-15.605 -4.47,-15.174 -6.477,-14.323C-8.487,-13.472 -10.258,-12.287 -11.74,-10.803C-13.226,-9.315 -14.418,-7.547 -15.284,-5.547C-16.147,-3.556 -16.585,-1.385 -16.585,0.907C-16.585,3.132 -16.147,5.27 -15.284,7.261C-14.417,9.263 -13.224,11.041 -11.736,12.545C-10.253,14.046 -8.48,15.248 -6.471,16.114C-4.466,16.979 -2.288,17.416 0,17.416C2.32,17.416 4.504,16.979 6.492,16.115C8.487,15.249 10.252,14.046 11.736,12.545C13.22,11.044 14.404,9.268 15.257,7.267C16.105,5.273 16.535,3.133 16.535,0.907C16.535,-1.386 16.105,-3.559 15.257,-5.553C14.405,-7.552 13.222,-9.319 11.74,-10.803C10.257,-12.288 8.494,-13.473 6.498,-14.324C4.508,-15.174 2.322,-15.605 0,-15.605M0,19.378C-2.558,19.378 -4.996,18.887 -7.247,17.916C-9.49,16.949 -11.471,15.606 -13.132,13.924C-14.79,12.247 -16.12,10.267 -17.085,8.041C-18.055,5.803 -18.547,3.402 -18.547,0.907C-18.547,-1.655 -18.055,-4.089 -17.084,-6.328C-16.12,-8.555 -14.789,-10.527 -13.129,-12.189C-11.467,-13.854 -9.486,-15.179 -7.241,-16.13C-4.991,-17.084 -2.556,-17.567 0,-17.567C2.589,-17.567 5.033,-17.083 7.269,-16.129C9.496,-15.178 11.468,-13.852 13.128,-12.189C14.788,-10.527 16.111,-8.553 17.062,-6.322C18.015,-4.083 18.497,-1.651 18.497,0.907C18.497,3.398 18.015,5.797 17.062,8.036C16.112,10.265 14.79,12.247 13.132,13.924C11.471,15.605 9.5,16.948 7.273,17.915C5.038,18.886 2.59,19.378 0,19.378M-20.822,-39.585C-21.482,-39.585 -22.004,-39.366 -22.464,-38.894C-22.924,-38.423 -23.147,-37.856 -23.147,-37.162L-23.147,0.931C-23.147,4.102 -22.535,7.116 -21.328,9.89C-20.116,12.671 -18.441,15.134 -16.351,17.208C-14.258,19.283 -11.775,20.949 -8.972,22.161C-6.178,23.368 -3.151,23.98 0.024,23.98C3.2,23.98 6.228,23.368 9.02,22.163C11.823,20.953 14.296,19.29 16.371,17.218C18.446,15.148 20.104,12.681 21.3,9.886C22.492,7.097 23.098,4.076 23.098,0.907C23.098,-2.295 22.492,-5.334 21.3,-8.123C20.103,-10.918 18.444,-13.385 16.37,-15.454C14.297,-17.524 11.824,-19.178 9.022,-20.373C6.227,-21.564 3.198,-22.168 0.021,-22.168C-1.813,-22.168 -3.627,-21.892 -5.368,-21.348C-7.116,-20.803 -8.753,-20.029 -10.232,-19.049C-11.71,-18.07 -13.019,-16.905 -14.121,-15.586C-15.214,-14.281 -16.063,-12.825 -16.647,-11.259L-18.547,-6.164L-18.547,-37.151C-18.547,-37.859 -18.761,-38.435 -19.2,-38.912C-19.624,-39.371 -20.14,-39.585 -20.822,-39.585M0.024,25.942C-3.421,25.942 -6.709,25.276 -9.75,23.961C-12.779,22.652 -15.465,20.849 -17.731,18.601C-20.001,16.351 -21.815,13.684 -23.127,10.672C-24.442,7.651 -25.109,4.374 -25.109,0.931L-25.109,-37.162C-25.109,-38.376 -24.692,-39.419 -23.869,-40.264C-23.038,-41.116 -22.014,-41.547 -20.822,-41.547C-19.589,-41.547 -18.558,-41.108 -17.758,-40.242C-16.979,-39.397 -16.585,-38.357 -16.585,-37.151L-16.585,-15.585C-16.286,-16.018 -15.967,-16.438 -15.626,-16.845C-14.402,-18.309 -12.952,-19.601 -11.316,-20.685C-9.682,-21.767 -7.878,-22.62 -5.953,-23.221C-4.021,-23.824 -2.012,-24.129 0.021,-24.129C3.464,-24.129 6.751,-23.473 9.791,-22.177C12.824,-20.885 15.504,-19.09 17.757,-16.843C20.009,-14.596 21.808,-11.921 23.104,-8.895C24.401,-5.86 25.06,-2.563 25.06,0.907C25.06,4.342 24.401,7.624 23.104,10.658C21.809,13.684 20.01,16.359 17.758,18.607C15.507,20.853 12.828,22.656 9.798,23.963C6.758,25.276 3.47,25.942 0.024,25.942" style="fill:rgb(179,179,179);fill-rule:nonzero;"/>
    </g>
    <g transform="matrix(1.49948,0,0,1.49948,690.142,468.076)">
        <path d="M0,17.417C0,19.79 0.461,22.038 1.382,24.162C2.303,26.287 3.553,28.148 5.132,29.746C6.711,31.344 8.569,32.605 10.708,33.526C12.846,34.448 15.132,34.909 17.566,34.909C20.033,34.909 22.328,34.448 24.449,33.526C26.571,32.605 28.421,31.344 30,29.746C31.579,28.148 32.821,26.287 33.726,24.162C34.63,22.038 35.083,19.79 35.083,17.417C35.083,14.979 34.63,12.699 33.726,10.574C32.821,8.449 31.579,6.597 30,5.016C28.421,3.434 26.571,2.19 24.449,1.285C22.328,0.379 20.033,-0.075 17.566,-0.075C15.132,-0.075 12.846,0.379 10.708,1.285C8.569,2.19 6.711,3.434 5.132,5.016C3.553,6.597 2.303,8.449 1.382,10.574C0.461,12.699 0,14.979 0,17.417M-6.562,-20.65C-6.562,-21.604 -6.242,-22.41 -5.601,-23.068C-4.959,-23.726 -4.178,-24.055 -3.256,-24.055C-2.303,-24.055 -1.521,-23.725 -0.913,-23.065C-0.304,-22.405 0,-21.597 0,-20.64L0,4.909C0.626,3.231 1.523,1.694 2.692,0.295C3.861,-1.103 5.229,-2.319 6.793,-3.356C8.357,-4.392 10.062,-5.198 11.905,-5.773C13.75,-6.349 15.645,-6.637 17.587,-6.637C20.913,-6.637 24.042,-6.013 26.973,-4.764C29.904,-3.515 32.456,-1.806 34.63,0.363C36.804,2.531 38.516,5.078 39.768,8.003C41.02,10.928 41.646,14.065 41.646,17.417C41.646,20.736 41.02,23.858 39.768,26.783C38.517,29.708 36.805,32.255 34.631,34.423C32.457,36.593 29.905,38.31 26.975,39.574C24.045,40.84 20.917,41.472 17.591,41.472C14.265,41.472 11.137,40.839 8.206,39.572C5.275,38.306 2.715,36.587 0.525,34.416C-1.664,32.245 -3.394,29.703 -4.661,26.792C-5.929,23.881 -6.562,20.765 -6.562,17.442L-6.562,-20.65Z" style="fill:rgb(179,179,179);fill-rule:nonzero;"/>
    </g>
    <g transform="matrix(1.49948,0,0,1.49948,716.483,492.835)">
        <path d="M0,-15.605C-2.291,-15.605 -4.47,-15.174 -6.476,-14.323C-8.487,-13.472 -10.259,-12.287 -11.74,-10.803C-13.226,-9.316 -14.418,-7.548 -15.284,-5.547C-16.147,-3.556 -16.585,-1.385 -16.585,0.907C-16.585,3.132 -16.147,5.271 -15.285,7.261C-14.417,9.264 -13.224,11.041 -11.737,12.545C-10.253,14.046 -8.481,15.248 -6.471,16.114C-4.466,16.979 -2.288,17.416 0,17.416C2.32,17.416 4.504,16.979 6.492,16.115C8.487,15.248 10.252,14.046 11.736,12.545C13.22,11.043 14.404,9.268 15.257,7.267C16.105,5.274 16.535,3.133 16.535,0.907C16.535,-1.386 16.105,-3.56 15.257,-5.553C14.405,-7.552 13.222,-9.318 11.739,-10.803C10.257,-12.288 8.493,-13.472 6.498,-14.324C4.509,-15.174 2.322,-15.605 0,-15.605M0,19.378C-2.557,19.378 -4.995,18.887 -7.247,17.916C-9.49,16.949 -11.471,15.606 -13.133,13.924C-14.79,12.247 -16.12,10.268 -17.085,8.041C-18.055,5.803 -18.547,3.403 -18.547,0.907C-18.547,-1.656 -18.055,-4.089 -17.085,-6.328C-16.119,-8.555 -14.788,-10.527 -13.129,-12.189C-11.468,-13.853 -9.486,-15.179 -7.241,-16.13C-4.991,-17.084 -2.555,-17.567 0,-17.567C2.588,-17.567 5.033,-17.083 7.269,-16.129C9.496,-15.178 11.467,-13.852 13.128,-12.189C14.788,-10.527 16.111,-8.553 17.062,-6.322C18.015,-4.084 18.497,-1.652 18.497,0.907C18.497,3.399 18.015,5.798 17.062,8.036C16.112,10.265 14.79,12.247 13.132,13.924C11.471,15.605 9.5,16.948 7.274,17.915C5.038,18.886 2.591,19.378 0,19.378M-20.822,-39.585C-21.482,-39.585 -22.004,-39.366 -22.464,-38.894C-22.924,-38.423 -23.147,-37.856 -23.147,-37.162L-23.147,0.931C-23.147,4.102 -22.535,7.117 -21.328,9.89C-20.116,12.672 -18.441,15.134 -16.35,17.208C-14.258,19.283 -11.775,20.949 -8.972,22.161C-6.178,23.368 -3.151,23.98 0.024,23.98C3.201,23.98 6.227,23.369 9.02,22.163C11.822,20.953 14.296,19.29 16.371,17.218C18.446,15.147 20.104,12.681 21.3,9.886C22.493,7.097 23.098,4.076 23.098,0.907C23.098,-2.296 22.493,-5.334 21.3,-8.123C20.104,-10.918 18.444,-13.385 16.371,-15.454C14.296,-17.524 11.823,-19.179 9.022,-20.373C6.227,-21.564 3.198,-22.168 0.021,-22.168C-1.813,-22.168 -3.627,-21.892 -5.368,-21.348C-7.116,-20.803 -8.753,-20.029 -10.232,-19.049C-11.71,-18.07 -13.019,-16.905 -14.121,-15.586C-15.214,-14.28 -16.063,-12.824 -16.646,-11.26L-18.547,-6.161L-18.547,-37.151C-18.547,-37.859 -18.761,-38.435 -19.2,-38.911C-19.624,-39.371 -20.14,-39.585 -20.822,-39.585M0.024,25.942C-3.421,25.942 -6.71,25.276 -9.75,23.961C-12.779,22.653 -15.465,20.849 -17.731,18.601C-20,16.352 -21.815,13.684 -23.127,10.672C-24.442,7.651 -25.109,4.374 -25.109,0.931L-25.109,-37.162C-25.109,-38.376 -24.692,-39.419 -23.869,-40.264C-23.038,-41.116 -22.014,-41.547 -20.822,-41.547C-19.588,-41.547 -18.558,-41.108 -17.758,-40.241C-16.979,-39.398 -16.585,-38.358 -16.585,-37.151L-16.585,-15.585C-16.286,-16.018 -15.967,-16.438 -15.626,-16.845C-14.402,-18.309 -12.952,-19.601 -11.315,-20.685C-9.682,-21.767 -7.878,-22.621 -5.953,-23.221C-4.021,-23.824 -2.012,-24.129 0.021,-24.129C3.464,-24.129 6.751,-23.473 9.791,-22.177C12.824,-20.885 15.504,-19.09 17.757,-16.843C20.009,-14.596 21.808,-11.921 23.104,-8.895C24.401,-5.86 25.06,-2.563 25.06,0.907C25.06,4.343 24.401,7.624 23.104,10.658C21.809,13.684 20.011,16.358 17.758,18.606C15.506,20.853 12.828,22.656 9.797,23.963C6.758,25.276 3.47,25.942 0.024,25.942" style="fill:rgb(179,179,179);fill-rule:nonzero;"/>
    </g>
    <g transform="matrix(1.49948,0,0,1.49948,788.621,442.069)">
        <path d="M0,51.809C0.954,51.809 1.734,52.122 2.344,52.746C2.952,53.372 3.257,54.145 3.257,55.066C3.257,56.021 2.961,56.792 2.368,57.385C1.776,57.977 1.003,58.273 0.049,58.273C-2.287,58.273 -4.44,57.878 -6.414,57.089C-8.388,56.299 -10.099,55.173 -11.546,53.708C-12.994,52.246 -14.12,50.486 -14.926,48.429C-15.732,46.373 -16.135,44.08 -16.135,41.546L-16.135,-3.109C-16.135,-4.063 -15.831,-4.86 -15.222,-5.502C-14.613,-6.144 -13.849,-6.464 -12.928,-6.464C-12.039,-6.464 -11.258,-6.144 -10.584,-5.502C-9.91,-4.86 -9.572,-4.063 -9.572,-3.109L-9.572,41.448C-9.572,44.737 -8.726,47.287 -7.031,49.095C-5.337,50.905 -2.994,51.809 0,51.809" style="fill:rgb(179,179,179);fill-rule:nonzero;"/>
    </g>
    <g transform="matrix(1.49948,0,0,1.49948,769.236,527.977)">
        <path d="M0,-62.775C-0.655,-62.775 -1.158,-62.567 -1.583,-62.119C-2.016,-61.663 -2.227,-61.101 -2.227,-60.401L-2.227,-15.746C-2.227,-13.346 -1.843,-11.151 -1.085,-9.221C-0.332,-7.298 0.732,-5.634 2.079,-4.273C3.424,-2.913 5.038,-1.85 6.878,-1.114C8.726,-0.375 10.777,0 12.977,0C13.667,0 14.198,-0.196 14.603,-0.601C15.007,-1.005 15.203,-1.537 15.203,-2.226C15.203,-2.887 14.996,-3.421 14.568,-3.861C14.148,-4.293 13.611,-4.502 12.928,-4.502C9.666,-4.502 7.06,-5.519 5.181,-7.526C3.318,-9.513 2.374,-12.312 2.374,-15.844L2.374,-60.401C2.374,-61.09 2.15,-61.624 1.667,-62.083C1.178,-62.549 0.633,-62.775 0,-62.775M12.977,1.962C10.526,1.962 8.229,1.54 6.149,0.707C4.058,-0.128 2.219,-1.34 0.684,-2.894C-0.851,-4.445 -2.061,-6.333 -2.912,-8.504C-3.759,-10.664 -4.188,-13.1 -4.188,-15.746L-4.188,-60.401C-4.188,-61.61 -3.79,-62.643 -3.006,-63.469C-2.208,-64.311 -1.196,-64.737 0,-64.737C1.145,-64.737 2.161,-64.322 3.021,-63.504C3.894,-62.673 4.337,-61.629 4.337,-60.401L4.337,-15.844C4.337,-12.827 5.103,-10.479 6.612,-8.868C8.127,-7.251 10.192,-6.464 12.928,-6.464C14.15,-6.464 15.176,-6.048 15.974,-5.23C16.765,-4.417 17.165,-3.407 17.165,-2.226C17.165,-1.007 16.77,0.006 15.99,0.787C15.21,1.567 14.196,1.962 12.977,1.962" style="fill:rgb(179,179,179);fill-rule:nonzero;"/>
    </g>
    <g transform="matrix(1.49948,0,0,1.49948,-237.716,-263.833)">
        <g opacity="0.94">
            <g opacity="0.79">
                <g transform="matrix(1,0,0,1,710.661,470.763)">
                    <path d="M0,51.809C0.953,51.809 1.734,52.122 2.343,52.746C2.952,53.372 3.256,54.145 3.256,55.066C3.256,56.021 2.96,56.792 2.368,57.385C1.776,57.977 1.003,58.273 0.049,58.273C-2.287,58.273 -4.441,57.878 -6.415,57.089C-8.389,56.299 -10.1,55.173 -11.547,53.708C-12.994,52.246 -14.121,50.486 -14.926,48.429C-15.732,46.373 -16.135,44.08 -16.135,41.546L-16.135,-3.109C-16.135,-4.063 -15.831,-4.86 -15.223,-5.502C-14.614,-6.144 -13.85,-6.464 -12.928,-6.464C-12.04,-6.464 -11.259,-6.144 -10.584,-5.502C-9.91,-4.86 -9.573,-4.063 -9.573,-3.109L-9.573,41.448C-9.573,44.737 -8.726,47.287 -7.031,49.095C-5.338,50.905 -2.994,51.809 0,51.809" style="fill:rgb(34,181,115);fill-rule:nonzero;"/>
                </g>
                <g transform="matrix(1,0,0,1,697.734,528.055)">
                    <path d="M0,-62.775C-0.655,-62.775 -1.158,-62.567 -1.583,-62.119C-2.016,-61.663 -2.227,-61.101 -2.227,-60.401L-2.227,-15.746C-2.227,-13.346 -1.843,-11.151 -1.085,-9.221C-0.332,-7.298 0.732,-5.634 2.078,-4.273C3.423,-2.913 5.038,-1.85 6.877,-1.114C8.725,-0.375 10.777,0 12.977,0C13.666,0 14.198,-0.196 14.603,-0.601C15.007,-1.004 15.203,-1.537 15.203,-2.226C15.203,-2.887 14.995,-3.421 14.567,-3.861C14.147,-4.293 13.611,-4.502 12.928,-4.502C9.665,-4.502 7.059,-5.519 5.18,-7.526C3.318,-9.513 2.374,-12.312 2.374,-15.844L2.374,-60.401C2.374,-61.09 2.149,-61.624 1.667,-62.084C1.178,-62.548 0.632,-62.775 0,-62.775M12.977,1.962C10.526,1.962 8.229,1.54 6.148,0.707C4.058,-0.128 2.219,-1.34 0.684,-2.893C-0.852,-4.445 -2.062,-6.333 -2.912,-8.504C-3.759,-10.664 -4.188,-13.099 -4.188,-15.746L-4.188,-60.401C-4.188,-61.61 -3.791,-62.643 -3.006,-63.469C-2.208,-64.311 -1.197,-64.737 0,-64.737C1.144,-64.737 2.159,-64.322 3.02,-63.505C3.894,-62.673 4.336,-61.629 4.336,-60.401L4.336,-15.844C4.336,-12.827 5.102,-10.479 6.612,-8.868C8.126,-7.251 10.192,-6.464 12.928,-6.464C14.15,-6.464 15.175,-6.048 15.974,-5.23C16.764,-4.418 17.165,-3.407 17.165,-2.226C17.165,-1.006 16.77,0.007 15.989,0.787C15.21,1.567 14.196,1.962 12.977,1.962" style="fill:rgb(34,181,115);fill-rule:nonzero;"/>
                </g>
            </g>
            <g opacity="0.79">
                <g transform="matrix(1,0,0,1,741.179,487.934)">
                    <path d="M0,35.083C2.471,35.083 4.761,34.623 6.869,33.701C8.977,32.781 10.797,31.522 12.329,29.927C13.86,28.331 15.063,26.473 15.936,24.351C16.809,22.229 17.246,19.984 17.246,17.616C17.246,15.215 16.809,12.945 15.936,10.807C15.063,8.668 13.86,6.81 12.329,5.231C10.797,3.652 8.977,2.402 6.869,1.481C4.761,0.561 2.471,0.099 0,0.099C-2.438,0.099 -4.702,0.561 -6.795,1.481C-8.886,2.402 -10.706,3.652 -12.254,5.231C-13.803,6.81 -15.021,8.668 -15.911,10.807C-16.801,12.945 -17.245,15.215 -17.245,17.616C-17.245,19.984 -16.801,22.229 -15.911,24.351C-15.021,26.473 -13.803,28.331 -12.254,29.927C-10.706,31.522 -8.886,32.781 -6.795,33.701C-4.702,34.623 -2.438,35.083 0,35.083M0.025,41.645C-3.298,41.645 -6.406,41.013 -9.301,39.746C-12.195,38.479 -14.712,36.761 -16.85,34.59C-18.988,32.419 -20.683,29.877 -21.933,26.966C-23.183,24.055 -23.808,20.938 -23.808,17.616C-23.808,14.261 -23.184,11.12 -21.935,8.191C-20.686,5.264 -18.993,2.707 -16.857,0.519C-14.723,-1.668 -12.208,-3.396 -9.316,-4.663C-6.424,-5.928 -3.318,-6.562 0,-6.562C3.352,-6.562 6.474,-5.928 9.365,-4.663C12.257,-3.396 14.771,-1.677 16.907,0.494C19.042,2.665 20.727,5.223 21.959,8.166C23.191,11.111 23.808,14.261 23.808,17.616L23.808,37.896C23.808,38.851 23.48,39.655 22.828,40.313C22.175,40.972 21.376,41.3 20.429,41.3C19.449,41.3 18.674,40.972 18.102,40.313C17.531,39.655 17.246,38.851 17.246,37.896L17.196,34.343C15.025,36.612 12.484,38.397 9.572,39.696C6.662,40.996 3.479,41.645 0.025,41.645" style="fill:rgb(34,181,115);fill-rule:nonzero;"/>
                </g>
                <g transform="matrix(1,0,0,1,741.179,521.938)">
                    <path d="M0,-32.924C-2.288,-32.924 -4.441,-32.487 -6.399,-31.625C-8.367,-30.758 -10.102,-29.568 -11.554,-28.087C-13.006,-26.606 -14.167,-24.834 -15.006,-22.82C-15.84,-20.814 -16.264,-18.65 -16.264,-16.388C-16.264,-14.16 -15.841,-12.022 -15.007,-10.032C-14.168,-8.033 -13.005,-6.26 -11.55,-4.761C-10.098,-3.264 -8.365,-2.066 -6.399,-1.2C-4.443,-0.339 -2.29,0.097 0,0.097C2.324,0.097 4.503,-0.339 6.476,-1.201C8.455,-2.066 10.187,-3.262 11.621,-4.757C13.061,-6.256 14.207,-8.029 15.028,-10.027C15.849,-12.021 16.265,-14.161 16.265,-16.388C16.265,-18.649 15.849,-20.815 15.027,-22.827C14.206,-24.838 13.062,-26.609 11.625,-28.09C10.19,-29.569 8.458,-30.758 6.476,-31.624C4.501,-32.487 2.322,-32.924 0,-32.924M0,2.059C-2.563,2.059 -4.983,1.567 -7.189,0.595C-9.388,-0.372 -11.329,-1.715 -12.958,-3.394C-14.584,-5.07 -15.882,-7.048 -16.815,-9.274C-17.752,-11.504 -18.226,-13.899 -18.226,-16.388C-18.226,-18.909 -17.752,-21.327 -16.816,-23.574C-15.882,-25.82 -14.583,-27.8 -12.954,-29.46C-11.327,-31.12 -9.388,-32.453 -7.189,-33.421C-4.98,-34.393 -2.562,-34.886 0,-34.886C2.594,-34.886 5.037,-34.393 7.262,-33.423C9.479,-32.453 11.42,-31.119 13.033,-29.456C14.646,-27.794 15.928,-25.813 16.844,-23.568C17.762,-21.32 18.227,-18.903 18.227,-16.388C18.227,-13.903 17.761,-11.512 16.843,-9.279C15.928,-7.055 14.647,-5.076 13.036,-3.398C11.422,-1.716 9.479,-0.372 7.262,0.597C5.039,1.567 2.597,2.059 0,2.059M0,-39.585C-3.166,-39.585 -6.168,-38.974 -8.923,-37.768C-11.686,-36.558 -14.119,-34.886 -16.155,-32.8C-18.196,-30.71 -19.837,-28.229 -21.032,-25.427C-22.223,-22.637 -22.826,-19.596 -22.826,-16.388C-22.826,-13.214 -22.223,-10.198 -21.031,-7.425C-19.835,-4.64 -18.193,-2.176 -16.151,-0.103C-14.111,1.969 -11.674,3.633 -8.907,4.843C-6.151,6.049 -3.146,6.661 0.025,6.661C3.325,6.661 6.402,6.033 9.173,4.797C11.953,3.556 14.413,1.828 16.487,-0.339L18.144,-2.07L18.227,3.878C18.227,4.608 18.429,5.188 18.843,5.666C19.228,6.109 19.731,6.315 20.429,6.315C21.119,6.315 21.66,6.094 22.132,5.618C22.6,5.147 22.827,4.582 22.827,3.891L22.827,-16.388C22.827,-19.596 22.23,-22.648 21.055,-25.459C19.876,-28.273 18.245,-30.75 16.208,-32.822C14.171,-34.893 11.736,-36.557 8.972,-37.768C6.218,-38.974 3.199,-39.585 0,-39.585M0.025,8.623C-3.418,8.623 -6.688,7.956 -9.693,6.64C-12.69,5.33 -15.333,3.524 -17.549,1.273C-19.763,-0.974 -21.541,-3.64 -22.834,-6.651C-24.131,-9.67 -24.788,-12.946 -24.788,-16.388C-24.788,-19.861 -24.132,-23.162 -22.837,-26.197C-21.546,-29.223 -19.771,-31.906 -17.56,-34.171C-15.346,-36.438 -12.705,-38.253 -9.71,-39.565C-6.705,-40.88 -3.438,-41.547 0,-41.547C3.472,-41.547 6.755,-40.88 9.759,-39.565C12.753,-38.254 15.394,-36.448 17.606,-34.198C19.82,-31.947 21.589,-29.262 22.864,-26.216C24.142,-23.164 24.789,-19.858 24.789,-16.388L24.789,3.891C24.789,5.109 24.363,6.155 23.524,7C22.685,7.847 21.643,8.277 20.429,8.277C19.156,8.277 18.124,7.831 17.361,6.952C16.634,6.114 16.265,5.085 16.265,3.891L16.246,2.598C14.379,4.222 12.276,5.56 9.973,6.588C6.949,7.938 3.602,8.623 0.025,8.623" style="fill:rgb(34,181,115);fill-rule:nonzero;"/>
                </g>
            </g>
            <g opacity="0.79">
                <g transform="matrix(1,0,0,1,780.628,488.107)">
                    <path d="M0,17.417C0,19.79 0.461,22.038 1.382,24.162C2.303,26.287 3.553,28.148 5.132,29.746C6.711,31.344 8.569,32.605 10.708,33.526C12.846,34.448 15.132,34.909 17.566,34.909C20.033,34.909 22.328,34.448 24.449,33.526C26.571,32.605 28.421,31.344 30,29.746C31.579,28.148 32.821,26.287 33.726,24.162C34.63,22.038 35.083,19.79 35.083,17.417C35.083,14.979 34.63,12.699 33.726,10.574C32.821,8.449 31.579,6.597 30,5.016C28.421,3.434 26.571,2.19 24.449,1.285C22.328,0.379 20.033,-0.075 17.566,-0.075C15.132,-0.075 12.846,0.379 10.708,1.285C8.569,2.19 6.711,3.434 5.132,5.016C3.553,6.597 2.303,8.449 1.382,10.574C0.461,12.699 0,14.979 0,17.417M-6.562,-20.65C-6.562,-21.604 -6.242,-22.41 -5.601,-23.068C-4.959,-23.726 -4.178,-24.055 -3.256,-24.055C-2.303,-24.055 -1.521,-23.725 -0.913,-23.065C-0.304,-22.405 0,-21.597 0,-20.64L0,4.909C0.626,3.231 1.523,1.694 2.692,0.295C3.861,-1.103 5.229,-2.319 6.793,-3.356C8.357,-4.392 10.062,-5.198 11.905,-5.773C13.75,-6.349 15.645,-6.637 17.587,-6.637C20.913,-6.637 24.042,-6.013 26.973,-4.764C29.904,-3.515 32.456,-1.806 34.63,0.363C36.804,2.531 38.516,5.078 39.768,8.003C41.02,10.928 41.646,14.065 41.646,17.417C41.646,20.736 41.02,23.858 39.768,26.783C38.517,29.708 36.805,32.255 34.631,34.423C32.457,36.593 29.905,38.31 26.975,39.574C24.045,40.84 20.917,41.472 17.591,41.472C14.265,41.472 11.137,40.839 8.206,39.572C5.275,38.306 2.715,36.587 0.525,34.416C-1.664,32.245 -3.394,29.703 -4.661,26.792C-5.929,23.881 -6.562,20.765 -6.562,17.442L-6.562,-20.65Z" style="fill:rgb(34,181,115);fill-rule:nonzero;"/>
                </g>
                <g transform="matrix(1,0,0,1,798.195,504.619)">
                    <path d="M0,-15.605C-2.291,-15.605 -4.469,-15.174 -6.476,-14.323C-8.487,-13.472 -10.258,-12.287 -11.74,-10.803C-13.226,-9.316 -14.418,-7.548 -15.284,-5.547C-16.147,-3.556 -16.585,-1.385 -16.585,0.907C-16.585,3.132 -16.147,5.27 -15.284,7.261C-14.417,9.264 -13.224,11.041 -11.736,12.545C-10.253,14.046 -8.481,15.248 -6.471,16.114C-4.466,16.979 -2.288,17.416 0,17.416C2.32,17.416 4.504,16.979 6.492,16.115C8.487,15.248 10.252,14.046 11.736,12.545C13.221,11.043 14.405,9.267 15.257,7.267C16.105,5.274 16.535,3.133 16.535,0.907C16.535,-1.386 16.105,-3.56 15.257,-5.553C14.406,-7.551 13.223,-9.318 11.739,-10.803C10.257,-12.288 8.493,-13.472 6.498,-14.324C4.509,-15.174 2.322,-15.605 0,-15.605M0,19.378C-2.557,19.378 -4.995,18.887 -7.247,17.916C-9.49,16.949 -11.471,15.606 -13.132,13.924C-14.79,12.247 -16.12,10.268 -17.085,8.041C-18.056,5.803 -18.547,3.402 -18.547,0.907C-18.547,-1.655 -18.056,-4.089 -17.084,-6.328C-16.119,-8.555 -14.788,-10.527 -13.129,-12.189C-11.467,-13.853 -9.486,-15.179 -7.241,-16.13C-4.991,-17.084 -2.555,-17.567 0,-17.567C2.588,-17.567 5.034,-17.083 7.269,-16.129C9.496,-15.178 11.467,-13.852 13.128,-12.189C14.789,-10.526 16.112,-8.552 17.062,-6.322C18.015,-4.084 18.497,-1.652 18.497,0.907C18.497,3.399 18.015,5.798 17.062,8.036C16.113,10.264 14.791,12.246 13.132,13.924C11.471,15.605 9.5,16.948 7.274,17.915C5.038,18.886 2.591,19.378 0,19.378M-20.822,-39.585C-21.482,-39.585 -22.005,-39.366 -22.465,-38.894C-22.924,-38.423 -23.147,-37.856 -23.147,-37.162L-23.147,0.931C-23.147,4.102 -22.535,7.117 -21.327,9.89C-20.116,12.671 -18.442,15.134 -16.35,17.208C-14.258,19.283 -11.775,20.949 -8.972,22.161C-6.178,23.368 -3.151,23.98 0.024,23.98C3.201,23.98 6.228,23.369 9.02,22.163C11.823,20.953 14.296,19.289 16.371,17.218C18.446,15.147 20.104,12.681 21.299,9.886C22.492,7.097 23.098,4.076 23.098,0.907C23.098,-2.295 22.492,-5.334 21.3,-8.123C20.104,-10.918 18.445,-13.385 16.371,-15.454C14.296,-17.524 11.823,-19.179 9.022,-20.373C6.227,-21.564 3.198,-22.168 0.021,-22.168C-1.813,-22.168 -3.626,-21.892 -5.368,-21.348C-7.115,-20.803 -8.752,-20.029 -10.232,-19.049C-11.71,-18.07 -13.019,-16.905 -14.121,-15.586C-15.214,-14.28 -16.063,-12.824 -16.647,-11.259L-18.547,-6.164L-18.547,-37.151C-18.547,-37.859 -18.761,-38.435 -19.2,-38.911C-19.624,-39.371 -20.14,-39.585 -20.822,-39.585M0.024,25.942C-3.421,25.942 -6.709,25.276 -9.75,23.961C-12.779,22.653 -15.465,20.849 -17.731,18.601C-20.001,16.351 -21.815,13.684 -23.127,10.672C-24.442,7.651 -25.109,4.374 -25.109,0.931L-25.109,-37.162C-25.109,-38.376 -24.692,-39.419 -23.869,-40.264C-23.038,-41.116 -22.014,-41.547 -20.822,-41.547C-19.588,-41.547 -18.558,-41.108 -17.758,-40.241C-16.979,-39.397 -16.585,-38.358 -16.585,-37.151L-16.585,-15.585C-16.287,-16.018 -15.967,-16.438 -15.626,-16.845C-14.402,-18.31 -12.951,-19.602 -11.315,-20.685C-9.682,-21.768 -7.877,-22.621 -5.953,-23.221C-4.021,-23.824 -2.012,-24.129 0.021,-24.129C3.464,-24.129 6.751,-23.473 9.791,-22.177C12.823,-20.885 15.503,-19.091 17.756,-16.843C20.009,-14.596 21.808,-11.921 23.104,-8.895C24.401,-5.86 25.06,-2.563 25.06,0.907C25.06,4.342 24.401,7.624 23.104,10.658C21.81,13.684 20.011,16.358 17.757,18.607C15.507,20.853 12.828,22.656 9.798,23.963C6.758,25.276 3.47,25.942 0.024,25.942" style="fill:rgb(34,181,115);fill-rule:nonzero;"/>
                </g>
            </g>
        </g>
    </g>
</svg>
