<?xml version="1.0" encoding="UTF-8" standalone="no"?>
<!DOCTYPE svg PUBLIC "-//W3C//DTD SVG 1.1//EN" "http://www.w3.org/Graphics/SVG/1.1/DTD/svg11.dtd">
<svg width="100%" height="100%" viewBox="0 0 1000 1000" version="1.1" xmlns="http://www.w3.org/2000/svg" xmlns:xlink="http://www.w3.org/1999/xlink" xml:space="preserve" xmlns:serif="http://www.serif.com/" style="fill-rule:evenodd;clip-rule:evenodd;stroke-linejoin:round;stroke-miterlimit:2;">
    <g transform="matrix(3.22674,0,0,3.22674,-306.686,-307.065)">
        <path d="M292.103,180.205C292.071,180.343 292.003,180.471 291.889,180.585C290.234,182.236 286.745,182.013 284.855,182.118C283.19,182.211 281.456,182.4 280.049,181.895C276.836,180.743 279.477,174.416 282.791,173.091C286.642,171.551 289.603,175.779 290.898,177.769C291.164,178.177 292.295,179.368 292.103,180.205Z" style="fill:rgb(44,144,211);"/>
    </g>
    <g transform="matrix(3.22674,0,0,3.22674,-306.686,-307.065)">
        <path d="M288.505,247.776C287.983,248.409 287.298,248.973 286.73,249.381C286.03,250.01 285.217,250.535 284.394,250.882C283.951,251.069 283.48,251.189 283,251.224C282.665,251.248 282.328,251.231 281.998,251.167C281.039,250.98 280.208,250.372 279.754,249.504C279.516,249.047 279.397,248.543 279.272,248.047C278.931,246.693 278.75,245.312 278.728,243.916C278.718,243.343 278.734,242.771 278.775,242.199C278.859,241.024 278.973,239.496 279.839,238.509C280.111,238.201 280.534,238.242 280.858,238.307C281.673,238.472 282.374,238.899 283.086,239.268C285.1,240.313 287.064,241.835 288.392,243.669C288.943,244.43 289.551,245.486 289.208,246.566C289.076,246.982 288.82,247.392 288.505,247.776Z" style="fill:rgb(61,103,189);"/>
    </g>
    <g transform="matrix(3.22674,0,0,3.22674,-306.686,-307.065)">
        <path d="M193.286,204.469C193.24,204.403 193.195,204.336 193.151,204.269C191.413,201.612 194.067,202.514 196.047,202.82C199.981,203.429 204.369,203.563 207.934,205.53C209.079,206.163 210.776,207.133 211.147,208.499C211.56,210.022 209.282,210.621 208.202,210.849C205.03,211.519 201.429,210.77 198.667,209.115C197.566,208.456 196.55,207.702 195.601,206.884C195.025,206.387 194.467,205.867 193.969,205.319" style="fill:rgb(0,96,190);"/>
    </g>
    <g transform="matrix(3.22674,0,0,3.22674,-306.686,-307.065)">
        <path d="M265.239,228.296C265.239,228.296 270.15,229.531 274.39,238.965C278.631,248.399 271.939,249.473 270.314,249.243C268.69,249.013 262.936,247.39 260.394,242.061C257.853,236.731 258.476,230.637 260.618,229.094C262.763,227.55 265.239,228.296 265.239,228.296Z" style="fill:rgb(38,204,182);"/>
    </g>
    <g transform="matrix(3.22674,0,0,3.22674,-306.686,-307.065)">
        <path d="M290.574,229.349C290.197,229.365 289.818,229.371 289.438,229.37C286.585,229.509 283.62,228.976 281.194,228.465C279.274,228.06 275.774,227.776 275.249,225.433C274.525,222.198 279.744,217.002 281.904,214.803C286.405,210.219 293.423,214.334 297.647,217.514C299.262,218.729 301.3,220.363 301.785,222.438C302.26,224.47 300.004,226.448 298.398,227.311C297.282,227.912 296.039,228.346 294.825,228.697C293.426,229.102 292.012,229.291 290.574,229.349Z" style="fill:rgb(101,144,188);"/>
    </g>
    <g transform="matrix(3.22674,0,0,3.22674,-306.686,-307.065)">
        <path d="M287.948,234.063C288.384,233.203 289.192,232.519 289.84,232.039C292.457,230.099 296.951,228.91 300.694,230.096C303.143,231.005 303.813,233.285 302.904,235.736C302.548,236.694 301.99,237.546 301.4,238.352C300.389,239.735 298.643,240.809 296.924,240.955C296.306,241.008 295.685,240.965 295.073,240.873C294.872,240.843 294.672,240.806 294.474,240.757C294.403,240.738 294.331,240.719 294.26,240.699C294.23,240.69 294.165,240.633 294.17,240.666C292.826,240.175 291.494,239.27 290.051,238.06C289.23,237.372 287.575,236.382 287.637,235.181C287.658,234.781 287.773,234.408 287.948,234.063Z" style="fill:rgb(44,144,211);"/>
    </g>
    <g transform="matrix(3.22674,0,0,3.22674,-306.686,-307.065)">
        <path d="M264.043,203.313C264.17,203.246 264.297,203.181 264.424,203.118C267.174,201.768 270.666,201.499 273.41,203.037C273.817,203.239 274.207,203.48 274.56,203.764C274.489,203.742 274.666,203.868 274.713,203.924C274.81,204.037 274.9,204.154 274.986,204.274C275.249,204.639 275.488,205.018 275.681,205.425C276.252,206.623 276.348,207.929 276.288,209.239C276.116,212.975 275.284,216.729 273.942,219.927C273.248,221.579 272.341,223.719 270.716,224.403C270.207,224.617 269.674,224.183 269.282,223.802C268.297,222.843 267.59,221.598 266.842,220.429C264.723,217.12 262.905,213.158 262.077,209.296C261.816,208.079 261.596,206.58 261.939,205.369C261.939,205.369 262.053,205.137 262.06,205.125C262.212,204.851 262.412,204.608 262.618,204.374C263.013,203.925 263.517,203.594 264.043,203.313Z" style="fill:rgb(44,100,157);"/>
    </g>
    <g transform="matrix(3.22674,0,0,3.22674,-306.686,-307.065)">
        <path d="M305.322,203.311C305.327,203.463 305.321,203.616 305.306,203.764C305.202,204.812 304.466,205.585 303.625,206.145C302.891,206.595 302.083,206.931 301.401,207.212C298.248,208.512 294.601,209.479 291.162,209.545C289.761,209.571 287.957,209.43 286.94,208.117C285.352,206.066 286.67,202.834 287.411,200.877C287.66,200.219 287.904,199.56 288.155,198.903C288.861,197.064 289.624,195.205 290.766,193.623C291.587,192.484 292.585,191.662 294.033,191.747C294.468,191.773 294.9,191.87 295.317,192.015C295.94,192.233 296.529,192.556 297.077,192.942C299.512,194.654 301.648,197.009 303.427,199.505C304.026,200.346 304.675,201.284 305.044,202.287C305.064,202.271 305.206,202.617 305.21,202.63C305.28,202.847 305.314,203.079 305.322,203.311Z" style="fill:rgb(44,100,157);"/>
    </g>
    <g transform="matrix(3.22674,0,0,3.22674,-306.686,-307.065)">
        <path d="M265.499,198.334C265.021,198.01 264.584,197.623 264.212,197.182C263.784,196.584 263.481,195.85 263.48,195.019C263.478,192.524 265.624,189.587 267.095,188.044C272.247,182.639 276.75,183.179 283.35,185.327C285.316,185.966 288.593,186.865 289.103,189.23C289.679,191.896 286.807,194.593 285.053,196.156C282.803,198.16 279.769,200.588 276.724,201.187C273.619,201.798 270.379,200.603 267.467,199.302C267.426,199.24 267.191,199.192 267.126,199.165C266.826,199.042 266.526,198.915 266.237,198.768C265.982,198.639 265.736,198.494 265.499,198.334Z" style="fill:rgb(86,194,152);"/>
    </g>
    <g transform="matrix(3.22674,0,0,3.22674,-306.686,-307.065)">
        <path d="M305.979,165.594C306.074,165.609 306.168,165.626 306.263,165.644C309.989,166.369 307.204,168.056 305.464,169.638C303.099,171.788 300.591,173.889 297.977,175.807C297.32,176.289 295.631,177.846 294.821,177.913C291.85,178.157 290.312,173.112 291.053,171.101C291.991,168.553 295.056,167.255 297.739,166.516C299.173,166.122 300.598,165.786 302.05,165.622C302.932,165.523 303.822,165.461 304.693,165.481C305.13,165.491 305.559,165.527 305.979,165.594Z" style="fill:rgb(8,101,199);"/>
    </g>
    <g transform="matrix(3.22674,0,0,3.22674,-306.686,-307.065)">
        <path d="M303.165,182.552C305.17,184.319 310.623,188.588 312.939,187.838C316.776,186.594 316.3,178.434 315.622,174.306C315.421,173.081 315.084,170.339 314.203,169.469C313.386,168.662 311.952,169.234 311.169,169.489C308.543,170.346 305.863,171.746 303.577,173.476C302.311,174.434 300.55,175.667 300.17,177.621C299.848,179.28 301.364,180.891 302.376,181.836C302.635,182.078 302.898,182.317 303.165,182.552Z" style="fill:rgb(10,151,154);"/>
    </g>
    <g transform="matrix(3.22674,0,0,3.22674,-306.686,-307.065)">
        <path d="M310.288,200.145C310.642,199.93 310.979,199.67 311.276,199.308C311.714,198.773 312.013,198.1 312.266,197.456C312.914,195.8 313.344,193.768 312.956,192.285C312.15,189.206 309.108,188.464 306.444,188.456C305.551,188.454 304.067,188.377 303.245,189.43C302.433,190.471 302.823,192.133 302.941,193.114C303.322,196.288 304.569,199.761 307.219,200.643C307.986,200.898 308.914,200.822 309.781,200.423C309.952,200.336 310.122,200.246 310.288,200.145Z" style="fill:rgb(0,96,190);"/>
    </g>
    <g transform="matrix(3.22674,0,0,3.22674,-306.686,-307.065)">
        <path d="M276.768,236.183C276.041,235.753 275.444,235.093 275.248,234.228C274.652,231.593 278.146,227.894 280.492,230.08C282.247,231.717 282.865,236.073 279.638,236.67C279.176,236.756 278.696,236.761 278.239,236.696C277.718,236.622 277.215,236.448 276.768,236.183Z" style="fill:rgb(189,189,189);"/>
    </g>
    <g transform="matrix(3.22674,0,0,3.22674,-306.686,-307.065)">
        <path d="M261.321,218.537C261.411,218.575 261.501,218.622 261.592,218.681C263.637,219.989 263.998,224.076 262.717,225.721C261.467,227.327 259.363,226.488 258.474,224.686C258.17,224.071 257.999,223.42 257.875,222.761C257.617,221.393 259.417,217.722 261.321,218.537Z" style="fill:rgb(189,189,189);"/>
    </g>
    <g transform="matrix(3.22674,0,0,3.22674,-306.686,-307.065)">
        <path d="M279.691,208.659C278.856,207.994 278.699,206.573 278.953,205.481C279.205,204.656 279.697,203.893 280.285,203.439C280.34,203.399 280.396,203.362 280.453,203.329C282.07,202.366 283.706,204.121 283.975,205.647C284.249,207.199 283.128,208.401 281.738,208.834C281.475,208.941 281.201,209.021 280.916,209.031C280.405,209.049 280.001,208.906 279.691,208.659Z" style="fill:rgb(189,189,189);"/>
    </g>
    <g transform="matrix(3.22674,0,0,3.22674,-306.686,-307.065)">
        <path d="M292.232,184.696C292.67,183.252 293.714,181.878 295.172,181.489C296.604,181.107 298.156,181.574 299.3,182.302C299.805,182.654 300.234,183.09 300.519,183.567C300.626,183.902 300.631,184.261 300.551,184.623C300.116,186.6 298.787,188.445 296.685,189.017C294.941,189.491 293.019,188.855 292.261,187.394C292.14,187.134 292.069,186.872 292.026,186.601C291.961,186.007 292.035,185.344 292.232,184.696Z" style="fill:rgb(189,189,189);"/>
    </g>
    <g transform="matrix(3.22674,0,0,3.22674,-306.686,-307.065)">
        <path d="M251.641,236.796C251.579,236.958 251.516,237.119 251.452,237.277C248.917,243.541 248.936,237.042 248.503,232.552C247.915,226.448 247.442,220.122 247.179,213.75C247.112,212.149 246.674,207.772 247.036,206.229C248.365,200.565 253.405,201.851 254.715,204.852C256.375,208.656 255.884,215.351 255.12,220.888C254.711,223.848 254.257,226.742 253.645,229.547C253.274,231.25 252.866,232.938 252.4,234.523C252.166,235.318 251.914,236.078 251.641,236.796Z" style="fill:rgb(189,189,189);"/>
    </g>
    <g transform="matrix(3.22674,0,0,3.22674,-306.686,-307.065)">
        <path d="M219.97,222.743C219.023,222.995 218.027,223.012 217.174,222.469C214.809,220.964 214.868,216.548 217.599,215.467C219.367,214.767 221.375,215.505 222.546,216.934C223.544,218.152 223.856,219.895 222.77,221.166C222.431,221.563 222.004,221.869 221.548,222.118C221.06,222.383 220.52,222.596 219.97,222.743Z" style="fill:rgb(189,189,189);"/>
    </g>
    <g transform="matrix(3.22674,0,0,3.22674,-306.686,-307.065)">
        <path d="M196.963,198.836C196.886,199.029 196.793,199.218 196.669,199.398C195.763,200.713 194.145,200.418 193.295,200.045C191.961,199.461 190.983,198.289 190.295,197.007C189.992,196.444 189.702,195.827 189.624,195.123C189.417,193.251 191.985,191.495 193.521,191.701C195.456,191.961 196.769,193.215 197.223,195.151C197.402,195.918 197.456,197.578 196.963,198.836Z" style="fill:rgb(189,189,189);"/>
    </g>
    <g transform="matrix(3.22674,0,0,3.22674,-306.686,-307.065)">
        <path d="M203.933,167.245C203.983,167.327 204.029,167.418 204.07,167.518C204.979,169.77 202.905,173.31 200.909,173.909C198.959,174.494 197.73,172.592 198.049,170.607C198.158,169.93 198.396,169.301 198.676,168.691C199.258,167.427 202.852,165.477 203.933,167.245Z" style="fill:rgb(189,189,189);"/>
    </g>
    <g transform="matrix(3.22674,0,0,3.22674,-306.686,-307.065)">
        <path d="M220.086,182.858C220.536,181.891 221.881,181.405 223.003,181.396C223.863,181.447 224.721,181.747 225.299,182.212C225.351,182.257 225.4,182.302 225.446,182.35C226.761,183.697 225.438,185.698 224.017,186.317C222.573,186.947 221.141,186.139 220.395,184.889C220.23,184.658 220.087,184.411 220.011,184.136C219.874,183.643 219.918,183.217 220.086,182.858Z" style="fill:rgb(189,189,189);"/>
    </g>
    <g transform="matrix(3.22674,0,0,3.22674,-306.686,-307.065)">
        <path d="M253.255,189.419C254.5,190.279 255.384,191.648 255.077,193.055C254.776,194.435 253.564,195.642 252.283,196.404C251.686,196.731 251.042,196.963 250.426,197.055C250.037,197.038 249.672,196.925 249.346,196.735C247.564,195.702 246.342,193.928 246.773,191.897C247.13,190.212 248.69,188.737 250.525,188.554C250.844,188.534 251.143,188.559 251.436,188.61C252.065,188.749 252.697,189.033 253.255,189.419Z" style="fill:rgb(189,189,189);"/>
    </g>
    <g transform="matrix(3.22674,0,0,3.22674,-306.686,-307.065)">
        <path d="M209.229,245.01C208.28,244.744 207.446,244.122 207.059,243.064C205.882,239.843 209.439,233.536 212.643,235.445C215.04,236.874 216.544,242.352 212.767,244.468C212.226,244.771 211.65,244.976 211.088,245.079C210.449,245.196 209.813,245.174 209.229,245.01Z" style="fill:rgb(189,189,189);"/>
    </g>
    <g transform="matrix(3.22674,0,0,3.22674,-306.686,-307.065)">
        <path d="M187.328,187.862C187.328,187.862 183.498,184.55 183.954,174.217C184.049,172.073 184.367,169.672 185.685,167.897C187.658,165.237 191.914,165.253 194.194,167.473C198.162,171.336 198.168,178.904 196.609,183.812C195.87,186.139 194.438,188.759 191.813,189.227C189.213,189.692 187.328,187.862 187.328,187.862Z" style="fill:rgb(44,144,211);"/>
    </g>
    <g transform="matrix(3.22674,0,0,3.22674,-306.686,-307.065)">
        <path d="M203.021,198.91C203.01,198.898 202.999,198.886 202.988,198.874C201.714,197.495 198.146,192.644 198.916,190.621C199.426,189.278 201.011,188.57 202.556,188.207C205.662,187.477 214.275,187.745 215.294,187.84C215.904,187.897 216.538,188.042 216.982,188.415C217.414,188.778 217.555,189.286 217.573,189.778C217.607,190.683 217.3,191.588 216.959,192.438C215.826,195.26 213.788,197.732 211.718,200.131C211.322,200.59 210.891,201.034 210.384,201.414C210.056,201.661 209.693,201.882 209.292,202.043C208.181,202.489 206.846,202.318 205.892,201.659C205.428,201.338 203.55,199.48 203.021,198.91Z" style="fill:rgb(44,100,157);"/>
    </g>
    <g transform="matrix(3.22674,0,0,3.22674,-306.686,-307.065)">
        <path d="M209.053,214.365C210.124,214.088 211.434,213.846 212.446,214.4C213.243,214.837 213.5,215.737 213.542,216.587C213.634,218.486 213.234,220.512 213.005,222.395C212.504,226.515 211.597,232.407 208.273,235.287C206.856,236.515 204.881,236.43 203.197,235.874C200.053,234.836 196.283,231.993 195.385,228.646C194.196,224.211 197.804,220.889 201.232,218.73C203.512,216.996 206.081,215.157 208.886,214.409C208.941,214.394 208.997,214.38 209.053,214.365Z" style="fill:rgb(1,160,169);"/>
    </g>
    <g transform="matrix(3.22674,0,0,3.22674,-306.686,-307.065)">
        <path d="M212.765,170.086C213.143,170.248 213.509,170.438 213.861,170.631C214.142,170.784 214.416,170.948 214.686,171.12C214.785,171.183 214.935,171.248 215.01,171.343C215.821,171.832 216.578,172.371 217.233,172.849C219.107,174.033 220.551,175.646 220.378,177.607C220.387,177.563 220.396,177.698 220.39,177.743C220.38,177.83 220.36,177.915 220.337,177.999C220.261,178.27 220.145,178.531 220.017,178.781C219.634,179.529 219.051,180.218 218.348,180.682C217.745,181.081 217.157,181.509 216.544,181.88C215.284,182.644 213.841,183.096 212.397,183.357C211.309,183.708 210.193,183.981 209.083,184.178C207.595,184.442 205.661,184.778 204.133,184.023C203.701,183.81 203.51,183.309 203.408,182.869C203.187,181.925 203.261,180.932 203.313,179.973C203.521,176.16 204.843,172.048 208.484,170.22C208.986,169.968 209.527,169.794 210.083,169.723C211.004,169.501 211.912,169.721 212.765,170.086Z" style="fill:rgb(38,204,182);"/>
    </g>
    <g transform="matrix(3.22674,0,0,3.22674,-306.686,-307.065)">
        <path d="M221.808,212.699C221.309,212.661 220.807,212.607 220.31,212.534C220.315,212.45 220.149,212.513 220.068,212.501C219.909,212.479 219.751,212.453 219.593,212.424C219.121,212.339 218.66,212.21 218.208,212.046C216.804,211.535 215.423,210.668 214.782,209.223C213.114,205.458 215.197,201.577 217.066,198.358C217.59,197.456 218.152,196.574 218.724,195.704C221.237,191.883 225.377,186.176 230.52,188.078C231.259,188.351 231.949,188.753 232.585,189.223C236.45,192.076 239.64,196.575 241.569,201.028C242.319,202.763 242.604,204.518 241.606,206.249C241.306,206.77 240.929,207.241 240.508,207.662C239.879,208.294 239.154,208.814 238.385,209.246C238.35,209.266 238.314,209.286 238.278,209.305C234.647,211.163 230.89,212.314 227.099,212.648C225.746,212.758 223.802,212.853 221.808,212.699Z" style="fill:rgb(101,144,188);"/>
    </g>
    <g transform="matrix(3.22674,0,0,3.22674,-306.686,-307.065)">
        <path d="M231.912,228.356C232.307,228.586 232.707,228.805 233.113,229.009C234.395,229.654 235.733,230.25 237.101,230.691C243.885,232.876 242.992,224.399 242.89,219.626C242.864,218.415 242.877,217.156 242.531,215.984C242.373,215.449 242.12,214.943 241.773,214.504C239.849,212.066 236.259,212.451 233.698,213.469C233.208,213.663 232.728,213.882 232.256,214.116C231.704,214.388 231.163,214.681 230.625,214.979C229.869,215.4 229.12,215.834 228.358,216.244C223.512,219.108 225.006,222.871 228.099,225.699C229.299,226.657 230.573,227.575 231.912,228.356Z" style="fill:rgb(86,194,152);"/>
    </g>
    <g transform="matrix(3.22674,0,0,3.22674,-306.686,-307.065)">
        <path d="M225.17,250.213C226.483,250.117 227.808,249.812 228.948,249.216C235.02,246.356 239.021,239.141 234.048,233.698C232.583,231.863 230.669,230.442 228.747,229.116C228.101,228.671 227.407,228.296 226.739,227.883C225.695,227.238 223.917,225.768 222.454,226.29C221.936,226.475 221.408,227.016 221.091,227.386C219.824,228.865 219.105,230.716 218.506,232.523C218.166,233.546 217.893,234.589 217.623,235.631C216.888,238.47 216.56,241.805 217.264,244.726C217.779,246.863 219.145,248.906 221.225,249.772C221.845,250.031 222.504,250.156 223.177,250.208C223.82,250.257 224.493,250.263 225.17,250.213Z" style="fill:rgb(44,100,157);"/>
    </g>
    <g transform="matrix(3.22674,0,0,3.22674,-306.686,-307.065)">
        <path d="M99.725,270.384L95.045,270.384L95.045,301.887L96.845,301.887L96.845,275.019L108.996,300.537L111.742,300.537L123.263,274.974L123.263,301.887L127.764,301.887L127.764,270.384L123.263,270.384L123.263,270.609L111.652,295.902L99.725,270.384Z" style="fill:rgb(61,103,189);fill-rule:nonzero;"/>
    </g>
    <g transform="matrix(3.22674,0,0,3.22674,-306.686,-307.065)">
        <rect x="139.229" y="270.384" width="4.501" height="31.503" style="fill:rgb(61,103,189);fill-rule:nonzero;"/>
    </g>
    <g transform="matrix(3.22674,0,0,3.22674,-306.686,-307.065)">
        <path d="M156.996,276.82L179.498,301.887L181.298,301.887L181.298,270.384L179.498,270.384L179.498,295.452L156.996,270.384L155.195,270.384L155.195,301.887L156.996,301.887L156.996,276.82Z" style="fill:rgb(61,103,189);fill-rule:nonzero;"/>
    </g>
    <g transform="matrix(3.22674,0,0,3.22674,-306.686,-307.065)">
        <path d="M192.764,301.887L204.42,301.887C213.646,301.887 219.722,295.182 219.722,286.406C219.722,276.73 212.296,270.384 203.07,270.384L192.764,270.384L192.764,301.887ZM203.07,272.139C209.956,272.139 215.042,277.72 215.042,286.451C215.042,294.777 210.316,300.132 204.42,300.132L197.265,300.132L197.265,272.139L203.07,272.139Z" style="fill:rgb(61,103,189);fill-rule:nonzero;"/>
    </g>
    <g transform="matrix(3.22674,0,0,3.22674,-306.686,-307.065)">
        <path d="M249.73,270.384L244.869,270.384L247.615,277.135L240.189,296.037L228.893,270.384L224.077,270.384L237.984,301.887L240.369,301.887L248.875,280.195L257.831,301.887L260.396,301.887L272.098,270.384L269.667,270.384L260.081,296.172L249.73,270.384Z" style="fill:rgb(189,189,189);fill-rule:nonzero;"/>
    </g>
    <g transform="matrix(3.22674,0,0,3.22674,-306.686,-307.065)">
        <path d="M276.587,286.136C276.587,295.362 283.338,302.247 292.564,302.247C301.79,302.247 308.541,295.362 308.541,286.136C308.541,276.91 301.79,270.069 292.564,270.069C283.338,270.069 276.587,276.91 276.587,286.136ZM281.268,286.136C281.268,277.63 286.084,271.689 292.564,271.689C299.09,271.689 303.906,277.63 303.906,286.136C303.906,294.642 299.09,300.627 292.564,300.627C286.084,300.627 281.268,294.642 281.268,286.136Z" style="fill:rgb(189,189,189);fill-rule:nonzero;"/>
    </g>
    <g transform="matrix(3.22674,0,0,3.22674,-306.686,-307.065)">
        <path d="M318.207,301.887L322.707,301.887L322.707,287.936L328.153,287.936L337.469,301.887L342.329,301.887L332.788,287.576C337.604,286.631 340.619,283.66 340.619,279.16C340.619,273.669 335.984,270.384 329.053,270.384L318.207,270.384L318.207,301.887ZM327.928,272.139C332.833,272.139 335.939,274.659 335.939,279.205C335.939,283.75 332.833,286.181 327.973,286.181L322.707,286.181L322.707,272.139L327.928,272.139Z" style="fill:rgb(189,189,189);fill-rule:nonzero;"/>
    </g>
    <g transform="matrix(3.22674,0,0,3.22674,-306.686,-307.065)">
        <path d="M350.96,301.887L355.37,301.887L355.37,270.384L351.005,270.384L350.96,301.887ZM370.042,301.887L375.757,301.887L359.916,284.29C364.866,279.16 368.557,275.649 373.597,270.384L371.122,270.384L355.46,286.091L370.042,301.887Z" style="fill:rgb(189,189,189);fill-rule:nonzero;"/>
    </g>
    <g transform="matrix(3.22674,0,0,3.22674,-306.686,-307.065)">
        <path d="M386.098,276.91C386.098,273.624 388.528,271.599 392.669,271.689C397.394,271.779 399.78,274.569 399.78,278.935L404.325,278.935C404.235,273.219 400.23,270.069 392.624,270.069C385.108,270.069 381.643,273.129 381.643,278.17C381.643,283.255 385.333,284.92 391.004,287.531C398.024,290.771 400.455,291.851 400.455,295.272C400.455,299.097 397.349,300.627 393.659,300.627C387.988,300.627 385.198,296.982 385.198,292.481L380.697,292.481C380.922,298.737 385.288,302.247 393.524,302.247C401.265,302.247 404.955,299.232 404.955,294.146C404.955,289.331 401.625,287.306 395.054,284.47C389.248,281.995 386.098,280.645 386.098,276.91Z" style="fill:rgb(189,189,189);fill-rule:nonzero;"/>
    </g>
    <g transform="matrix(3.22674,0,0,3.22674,-306.686,-307.065)">
        <path d="M177.849,322.526C179.396,322.551 180.982,323.33 181.646,324.84L181.77,325.136L180.781,325.485C180.781,325.485 180.622,325.031 180.332,324.662C178.877,322.814 174.562,323.367 174.918,325.828C175.146,327.411 178.004,327.652 179.645,328.363C181.66,329.235 183.009,332.132 180.656,333.885C179.798,334.524 178.67,334.889 177.609,334.714C177.609,334.714 176.661,334.664 175.961,334.405C174.697,333.938 173.708,332.792 173.488,331.45L173.436,331.092L174.503,331.121L174.544,331.368C174.719,332.294 174.941,332.414 175.175,332.678C175.27,332.787 175.375,332.887 175.487,332.979C176.279,333.624 177.377,333.772 178.344,333.674C179.68,333.538 181.031,332.603 180.853,331.089C180.711,329.877 179.291,329.261 177.865,328.835C177.865,328.835 174.58,328.292 173.957,326.406C173.6,325.325 174.065,324.048 174.994,323.347C175.775,322.758 176.778,322.534 177.742,322.526L177.849,322.526ZM308.722,322.526C310.27,322.551 311.856,323.33 312.52,324.84L312.643,325.136L311.655,325.485C311.655,325.485 311.496,325.031 311.206,324.662C309.744,322.805 305.436,323.367 305.791,325.828C306.02,327.41 308.878,327.652 310.519,328.363C312.521,329.23 313.93,332.098 311.529,333.885C310.671,334.524 309.543,334.889 308.483,334.714C308.483,334.714 307.534,334.664 306.835,334.405C305.571,333.938 304.582,332.792 304.362,331.45L304.31,331.092L305.376,331.121L305.418,331.368C305.592,332.294 305.815,332.414 306.048,332.678C306.144,332.787 306.249,332.887 306.361,332.979C307.163,333.633 308.279,333.778 309.259,333.67C310.614,333.519 311.912,332.457 311.722,331.054C311.545,329.743 309.848,329.173 308.307,328.718C308.307,328.718 305.408,328.154 304.831,326.406C304.473,325.325 304.939,324.049 305.868,323.347C306.649,322.758 307.657,322.534 308.616,322.526L308.722,322.526ZM206.585,322.529C208.525,322.574 210.389,323.564 211.509,325.169L211.695,325.445L210.789,326.039L210.612,325.78C209.229,323.825 206.431,323.081 204.293,324.102C203.16,324.643 202.245,325.623 201.786,326.79C200.722,329.493 202.489,332.976 205.467,333.578C207.377,333.965 209.457,333.142 210.612,331.508L210.789,331.249L211.695,331.844L211.509,332.12C209.953,334.351 206.847,335.328 204.326,334.359C201.341,333.212 199.569,329.504 200.801,326.413C201.691,324.177 203.956,322.575 206.41,322.529C206.498,322.528 206.497,322.528 206.585,322.529ZM335.589,322.526C337.137,322.551 338.723,323.33 339.387,324.84L339.51,325.136L338.522,325.485C338.522,325.485 338.363,325.031 338.073,324.662C337.521,323.961 336.632,323.599 335.727,323.547L335.667,323.545C334.099,323.529 332.274,324.46 332.69,325.98C333.131,327.596 336.092,327.761 337.547,328.435C339.649,329.408 340.847,332.809 337.74,334.274C337.019,334.614 336.279,334.766 335.451,334.726C335.074,334.696 335.046,334.696 334.924,334.684C333.155,334.492 331.524,333.249 331.228,331.45L331.177,331.092L332.243,331.121L332.285,331.368C332.459,332.293 332.682,332.414 332.915,332.678C333.011,332.787 333.116,332.887 333.228,332.979C334.03,333.633 335.145,333.778 336.125,333.67C337.469,333.52 338.758,332.49 338.594,331.089C338.439,329.769 336.755,329.185 335.174,328.718C335.174,328.718 332.279,328.166 331.697,326.406C331.34,325.325 331.805,324.048 332.735,323.347C333.516,322.758 334.519,322.534 335.483,322.526L335.589,322.526ZM238.022,322.529C241.47,322.596 244.483,325.957 243.984,329.477C243.578,332.348 240.868,334.729 237.944,334.729C234.473,334.729 231.362,331.279 231.914,327.704C232.344,324.924 234.872,322.623 237.787,322.53C237.865,322.529 237.944,322.528 238.022,322.529ZM267.804,322.529C271.252,322.596 274.265,325.957 273.767,329.477C273.36,332.348 270.65,334.729 267.726,334.729C264.23,334.729 261.107,331.218 261.709,327.629C262.169,324.877 264.684,322.622 267.569,322.53C267.648,322.529 267.726,322.528 267.804,322.529ZM290.287,332.444C288.465,335.176 284.038,335.425 281.517,333.186C279.277,331.196 278.826,327.452 280.674,324.987C281.944,323.293 284.129,322.333 286.235,322.565C287.578,322.713 288.852,323.328 289.815,324.282L290.037,324.507L289.298,325.216C288.396,324.325 287.244,323.702 286.002,323.596C283.717,323.4 281.402,324.92 280.716,327.122C280.13,329.006 280.768,331.214 282.285,332.491C284.271,334.162 287.826,334.126 289.25,332.115L289.342,329.153L284.984,329.153L284.984,328.104L290.405,328.104C290.365,329.551 290.287,330.997 290.287,332.444ZM161.36,334.41L160.327,334.41L160.327,322.847C161.765,322.847 163.203,322.838 164.641,322.847C166.926,322.89 168.801,325.495 167.914,327.735C167.391,329.055 166.037,329.988 164.596,329.997L161.36,329.997L161.36,334.41ZM326.524,323.927L322.541,323.927L322.541,334.394L321.477,334.394L321.477,323.927L317.494,323.927L317.494,322.863L326.524,322.863L326.524,323.927ZM191.939,334.394L190.874,334.394L190.874,328.788L186.38,322.863L187.693,322.863C188.928,324.499 190.164,326.136 191.399,327.773L195.12,322.863L196.416,322.863L191.939,328.788L191.939,334.394ZM298.064,334.394L297,334.394L297,322.863L298.064,322.863L298.064,334.394ZM251.073,333.33L257.414,333.33L257.414,334.394L250.008,334.394L250.008,322.863L251.073,322.863L251.073,333.33ZM218.773,334.394L217.709,334.394L217.709,322.863L218.773,322.863L218.773,328.088L224.814,328.088L224.814,322.863L225.879,322.863L225.879,334.394L224.814,334.394L224.814,329.169L218.773,329.169L218.773,334.394ZM267.66,323.577C265.06,323.626 262.726,325.886 262.66,328.497C262.592,331.182 264.986,333.68 267.726,333.68C269.621,333.68 271.463,332.526 272.281,330.823C273.721,327.825 271.506,323.647 267.792,323.577L267.66,323.577ZM237.878,323.577C235.277,323.626 232.944,325.886 232.878,328.497C232.81,331.182 235.204,333.68 237.944,333.68C239.839,333.68 241.681,332.526 242.499,330.823C243.938,327.828 241.723,323.647 238.009,323.577L237.878,323.577ZM161.36,323.879L161.36,328.964C162.46,328.964 163.561,328.985 164.661,328.964C166.483,328.907 167.839,326.491 166.607,324.877C165.586,323.538 163.355,323.879 161.36,323.879Z" style="fill-rule:nonzero;"/>
    </g>
</svg>
