<?xml version="1.0" encoding="UTF-8" standalone="no"?>
<!DOCTYPE svg PUBLIC "-//W3C//DTD SVG 1.1//EN" "http://www.w3.org/Graphics/SVG/1.1/DTD/svg11.dtd">
<svg width="100%" height="100%" viewBox="0 0 557 274" version="1.1" xmlns="http://www.w3.org/2000/svg" xmlns:xlink="http://www.w3.org/1999/xlink" xml:space="preserve" xmlns:serif="http://www.serif.com/" style="fill-rule:evenodd;clip-rule:evenodd;stroke-linejoin:round;stroke-miterlimit:2;">
    <g transform="matrix(4.16667,0,0,4.16667,-284.225,-117.686)">
        <path d="M149.725,33.396C149.714,33.443 149.69,33.489 149.65,33.528C149.071,34.106 147.851,34.028 147.19,34.064C146.608,34.097 146.001,34.163 145.509,33.986C144.385,33.583 145.309,31.37 146.468,30.907C147.815,30.369 148.851,31.849 149.303,32.543C149.396,32.687 149.792,33.103 149.725,33.396Z" style="fill:rgb(25,145,208);"/>
    </g>
    <g transform="matrix(4.16667,0,0,4.16667,-284.225,-117.686)">
        <path d="M148.466,57.027C148.284,57.248 148.044,57.446 147.846,57.588C147.601,57.808 147.317,57.992 147.029,58.113C146.874,58.179 146.709,58.221 146.541,58.233C146.424,58.241 146.306,58.235 146.191,58.213C145.855,58.148 145.565,57.935 145.406,57.631C145.323,57.471 145.281,57.295 145.237,57.122C145.118,56.648 145.055,56.165 145.047,55.677C145.044,55.477 145.049,55.276 145.064,55.077C145.093,54.666 145.133,54.131 145.436,53.786C145.531,53.678 145.679,53.693 145.792,53.715C146.077,53.773 146.322,53.922 146.571,54.052C147.276,54.417 147.963,54.949 148.427,55.591C148.62,55.857 148.832,56.226 148.712,56.604C148.666,56.749 148.577,56.893 148.466,57.027Z" style="fill:rgb(51,102,177);"/>
    </g>
    <g transform="matrix(4.16667,0,0,4.16667,-284.225,-117.686)">
        <path d="M115.165,41.881C115.149,41.858 115.133,41.835 115.118,41.811C114.51,40.882 115.439,41.197 116.131,41.305C117.507,41.517 119.041,41.564 120.288,42.252C120.689,42.474 121.282,42.813 121.412,43.291C121.556,43.823 120.759,44.033 120.382,44.113C119.272,44.347 118.013,44.085 117.047,43.506C116.662,43.275 116.307,43.012 115.975,42.726C115.773,42.552 115.578,42.37 115.404,42.178" style="fill:rgb(3,99,176);"/>
    </g>
    <g transform="matrix(4.16667,0,0,4.16667,-284.225,-117.686)">
        <path d="M140.33,50.214C140.33,50.214 142.047,50.646 143.53,53.946C145.013,57.245 142.673,57.621 142.105,57.54C141.536,57.46 139.524,56.892 138.635,55.028C137.747,53.164 137.964,51.033 138.714,50.493C139.464,49.953 140.33,50.214 140.33,50.214Z" style="fill:rgb(68,192,183);"/>
    </g>
    <g transform="matrix(4.16667,0,0,4.16667,-284.225,-117.686)">
        <path d="M149.19,50.583C149.058,50.588 148.926,50.59 148.793,50.59C147.795,50.639 146.758,50.452 145.91,50.273C145.238,50.132 144.014,50.032 143.831,49.213C143.577,48.081 145.402,46.264 146.158,45.495C147.732,43.892 150.187,45.331 151.664,46.443C152.228,46.868 152.941,47.44 153.111,48.166C153.277,48.876 152.488,49.568 151.927,49.87C151.536,50.08 151.101,50.232 150.677,50.355C150.187,50.496 149.693,50.562 149.19,50.583Z" style="fill:rgb(99,145,192);"/>
    </g>
    <g transform="matrix(4.16667,0,0,4.16667,-284.225,-117.686)">
        <path d="M148.272,52.231C148.424,51.93 148.707,51.691 148.933,51.523C149.849,50.845 151.42,50.429 152.729,50.844C153.586,51.162 153.82,51.959 153.502,52.816C153.378,53.151 153.183,53.449 152.976,53.731C152.623,54.215 152.012,54.59 151.411,54.642C151.195,54.66 150.978,54.645 150.764,54.613C150.693,54.602 150.623,54.59 150.554,54.572C150.529,54.566 150.504,54.559 150.479,54.552C150.469,54.549 150.446,54.529 150.448,54.54C149.977,54.369 149.512,54.052 149.007,53.629C148.72,53.388 148.141,53.042 148.163,52.622C148.17,52.482 148.211,52.352 148.272,52.231Z" style="fill:rgb(25,145,208);"/>
    </g>
    <g transform="matrix(4.16667,0,0,4.16667,-284.225,-117.686)">
        <path d="M139.911,41.477C139.956,41.453 140,41.431 140.045,41.409C141.006,40.936 142.227,40.843 143.187,41.38C143.33,41.451 143.466,41.535 143.589,41.635C143.565,41.627 143.626,41.671 143.643,41.691C143.677,41.73 143.708,41.771 143.739,41.813C143.83,41.941 143.914,42.073 143.982,42.215C144.181,42.635 144.215,43.091 144.194,43.549C144.134,44.856 143.843,46.169 143.373,47.288C143.131,47.865 142.813,48.614 142.245,48.853C142.067,48.928 141.88,48.776 141.744,48.643C141.399,48.307 141.152,47.872 140.89,47.463C140.149,46.306 139.513,44.92 139.224,43.569C139.132,43.144 139.055,42.62 139.175,42.196C139.176,42.196 139.216,42.115 139.218,42.111C139.271,42.015 139.341,41.93 139.413,41.848C139.551,41.691 139.727,41.575 139.911,41.477Z" style="fill:rgb(33,102,166);"/>
    </g>
    <g transform="matrix(4.16667,0,0,4.16667,-284.225,-117.686)">
        <path d="M154.348,41.476C154.35,41.529 154.347,41.583 154.342,41.635C154.306,42.001 154.049,42.271 153.754,42.467C153.498,42.625 153.215,42.742 152.977,42.841C151.874,43.295 150.599,43.633 149.396,43.656C148.906,43.666 148.275,43.616 147.919,43.157C147.364,42.44 147.825,41.309 148.084,40.625C148.171,40.395 148.256,40.164 148.344,39.935C148.591,39.292 148.858,38.641 149.257,38.088C149.544,37.69 149.893,37.402 150.4,37.432C150.552,37.441 150.703,37.475 150.849,37.526C151.067,37.602 151.273,37.715 151.464,37.85C152.316,38.448 153.063,39.272 153.685,40.145C153.895,40.439 154.122,40.767 154.251,41.118C154.258,41.113 154.307,41.233 154.309,41.238C154.333,41.314 154.345,41.395 154.348,41.476Z" style="fill:rgb(33,102,166);"/>
    </g>
    <g transform="matrix(4.16667,0,0,4.16667,-284.225,-117.686)">
        <path d="M140.421,39.736C140.253,39.622 140.101,39.487 139.97,39.333C139.821,39.124 139.715,38.867 139.714,38.576C139.714,37.704 140.464,36.676 140.979,36.137C142.781,34.247 144.355,34.435 146.664,35.187C147.351,35.41 148.497,35.724 148.676,36.552C148.877,37.484 147.873,38.427 147.259,38.974C146.472,39.675 145.411,40.524 144.346,40.733C143.26,40.947 142.127,40.529 141.109,40.074C141.094,40.052 141.012,40.036 140.99,40.026C140.885,39.983 140.78,39.939 140.678,39.887C140.59,39.842 140.503,39.792 140.421,39.736Z" style="fill:rgb(92,193,163);"/>
    </g>
    <g transform="matrix(4.16667,0,0,4.16667,-284.225,-117.686)">
        <path d="M154.578,28.285C154.611,28.291 154.644,28.296 154.677,28.303C155.98,28.556 155.006,29.146 154.398,29.7C153.571,30.452 152.693,31.187 151.779,31.857C151.549,32.026 150.959,32.571 150.675,32.594C149.636,32.679 149.099,30.915 149.357,30.211C149.686,29.32 150.757,28.866 151.696,28.608C152.197,28.47 152.696,28.353 153.204,28.295C153.512,28.26 153.823,28.239 154.128,28.246C154.281,28.249 154.431,28.262 154.578,28.285Z" style="fill:rgb(12,102,178);"/>
    </g>
    <g transform="matrix(4.16667,0,0,4.16667,-284.225,-117.686)">
        <path d="M153.593,34.216C154.295,34.834 156.202,36.327 157.012,36.065C158.354,35.63 158.187,32.776 157.95,31.332C157.88,30.904 157.762,29.945 157.454,29.64C157.168,29.358 156.666,29.558 156.393,29.648C155.474,29.947 154.537,30.437 153.738,31.043C153.295,31.377 152.679,31.808 152.546,32.493C152.433,33.073 152.964,33.635 153.318,33.966C153.408,34.05 153.5,34.134 153.593,34.216Z" style="fill:rgb(0,162,167);"/>
    </g>
    <g transform="matrix(4.16667,0,0,4.16667,-284.225,-117.686)">
        <path d="M156.085,40.369C156.209,40.294 156.326,40.203 156.43,40.076C156.583,39.889 156.688,39.654 156.776,39.428C157.003,38.849 157.154,38.139 157.018,37.62C156.736,36.543 155.672,36.284 154.74,36.281C154.428,36.28 153.909,36.253 153.622,36.622C153.338,36.986 153.474,37.567 153.515,37.91C153.649,39.02 154.085,40.235 155.011,40.543C155.28,40.632 155.604,40.606 155.907,40.466C155.967,40.436 156.027,40.404 156.085,40.369Z" style="fill:rgb(3,99,176);"/>
    </g>
    <g transform="matrix(4.16667,0,0,4.16667,-284.225,-117.686)">
        <path d="M144.362,52.973C144.108,52.822 143.899,52.592 143.83,52.289C143.622,51.367 144.844,50.074 145.664,50.838C146.278,51.411 146.494,52.934 145.365,53.143C145.204,53.173 145.036,53.175 144.876,53.152C144.694,53.126 144.518,53.065 144.362,52.973Z" style="fill:rgb(188,188,191);"/>
    </g>
    <g transform="matrix(4.16667,0,0,4.16667,-284.225,-117.686)">
        <path d="M138.96,46.801C138.991,46.814 139.022,46.831 139.054,46.851C139.769,47.309 139.895,48.738 139.448,49.314C139.01,49.875 138.275,49.582 137.964,48.952C137.857,48.737 137.798,48.509 137.754,48.279C137.664,47.8 138.293,46.516 138.96,46.801Z" style="fill:rgb(188,188,191);"/>
    </g>
    <g transform="matrix(4.16667,0,0,4.16667,-284.225,-117.686)">
        <path d="M145.384,43.347C145.092,43.114 145.037,42.617 145.126,42.235C145.214,41.947 145.386,41.68 145.591,41.521C145.611,41.507 145.63,41.494 145.65,41.482C146.216,41.146 146.788,41.759 146.882,42.293C146.978,42.836 146.586,43.256 146.1,43.408C146.008,43.445 145.912,43.473 145.812,43.477C145.634,43.483 145.492,43.433 145.384,43.347Z" style="fill:rgb(188,188,191);"/>
    </g>
    <g transform="matrix(4.16667,0,0,4.16667,-284.225,-117.686)">
        <path d="M149.77,34.966C149.923,34.461 150.288,33.98 150.798,33.844C151.299,33.711 151.842,33.874 152.242,34.129C152.418,34.252 152.568,34.404 152.668,34.571C152.705,34.688 152.707,34.814 152.679,34.941C152.527,35.632 152.062,36.277 151.327,36.477C150.717,36.643 150.045,36.42 149.78,35.909C149.738,35.819 149.713,35.727 149.698,35.632C149.675,35.424 149.701,35.193 149.77,34.966Z" style="fill:rgb(188,188,191);"/>
    </g>
    <g transform="matrix(4.16667,0,0,4.16667,-284.225,-117.686)">
        <path d="M135.574,53.187C135.552,53.244 135.53,53.3 135.508,53.355C134.621,55.545 134.628,53.273 134.477,51.703C134.271,49.568 134.106,47.356 134.013,45.127C133.99,44.567 133.837,43.036 133.964,42.497C134.428,40.516 136.191,40.966 136.649,42.015C137.229,43.345 137.058,45.687 136.791,47.623C136.648,48.658 136.489,49.671 136.275,50.652C136.145,51.247 136.002,51.838 135.839,52.392C135.757,52.67 135.669,52.936 135.574,53.187Z" style="fill:rgb(188,188,191);"/>
    </g>
    <g transform="matrix(4.16667,0,0,4.16667,-284.225,-117.686)">
        <path d="M124.498,48.272C124.166,48.36 123.818,48.366 123.52,48.176C122.693,47.65 122.713,46.106 123.668,45.728C124.286,45.483 124.989,45.741 125.398,46.241C125.747,46.667 125.857,47.276 125.477,47.721C125.358,47.86 125.209,47.967 125.049,48.053C124.879,48.146 124.69,48.221 124.498,48.272Z" style="fill:rgb(188,188,191);"/>
    </g>
    <g transform="matrix(4.16667,0,0,4.16667,-284.225,-117.686)">
        <path d="M116.451,39.911C116.424,39.979 116.392,40.045 116.349,40.108C116.031,40.567 115.466,40.464 115.168,40.334C114.702,40.13 114.36,39.72 114.119,39.271C114.013,39.074 113.912,38.859 113.885,38.613C113.812,37.958 114.71,37.344 115.248,37.416C115.924,37.507 116.383,37.945 116.542,38.622C116.605,38.89 116.623,39.471 116.451,39.911Z" style="fill:rgb(188,188,191);"/>
    </g>
    <g transform="matrix(4.16667,0,0,4.16667,-284.225,-117.686)">
        <path d="M118.889,28.863C118.907,28.891 118.922,28.923 118.937,28.958C119.255,29.746 118.529,30.984 117.831,31.193C117.149,31.398 116.72,30.733 116.831,30.038C116.869,29.802 116.952,29.582 117.05,29.369C117.254,28.926 118.511,28.244 118.889,28.863Z" style="fill:rgb(188,188,191);"/>
    </g>
    <g transform="matrix(4.16667,0,0,4.16667,-284.225,-117.686)">
        <path d="M124.538,34.323C124.696,33.985 125.166,33.815 125.558,33.812C125.859,33.83 126.159,33.935 126.361,34.097C126.379,34.113 126.397,34.129 126.413,34.145C126.873,34.617 126.41,35.316 125.913,35.533C125.408,35.753 124.907,35.471 124.646,35.033C124.588,34.953 124.539,34.866 124.512,34.77C124.464,34.598 124.479,34.449 124.538,34.323Z" style="fill:rgb(188,188,191);"/>
    </g>
    <g transform="matrix(4.16667,0,0,4.16667,-284.225,-117.686)">
        <path d="M136.138,36.618C136.574,36.919 136.883,37.397 136.776,37.889C136.67,38.372 136.246,38.794 135.798,39.061C135.59,39.175 135.364,39.256 135.149,39.288C135.013,39.282 134.885,39.243 134.771,39.176C134.148,38.815 133.721,38.194 133.871,37.484C133.996,36.895 134.542,36.379 135.184,36.315C135.295,36.308 135.4,36.317 135.502,36.335C135.722,36.383 135.943,36.483 136.138,36.618Z" style="fill:rgb(188,188,191);"/>
    </g>
    <g transform="matrix(4.16667,0,0,4.16667,-284.225,-117.686)">
        <path d="M120.741,56.06C120.409,55.966 120.117,55.749 119.982,55.379C119.57,54.252 120.815,52.047 121.935,52.715C122.773,53.214 123.299,55.13 121.978,55.87C121.789,55.976 121.588,56.048 121.391,56.084C121.168,56.125 120.945,56.117 120.741,56.06Z" style="fill:rgb(188,188,191);"/>
    </g>
    <g transform="matrix(4.16667,0,0,4.16667,-284.225,-117.686)">
        <path d="M113.082,36.073C113.082,36.073 111.742,34.915 111.902,31.301C111.935,30.551 112.046,29.712 112.507,29.091C113.197,28.161 114.686,28.166 115.483,28.942C116.871,30.293 116.873,32.94 116.327,34.657C116.069,35.471 115.568,36.387 114.65,36.551C113.741,36.713 113.082,36.073 113.082,36.073Z" style="fill:rgb(25,145,208);"/>
    </g>
    <g transform="matrix(4.16667,0,0,4.16667,-284.225,-117.686)">
        <path d="M118.57,39.937C118.566,39.933 118.562,39.929 118.558,39.925C118.113,39.442 116.865,37.746 117.134,37.038C117.313,36.569 117.867,36.321 118.407,36.194C119.494,35.939 122.506,36.032 122.862,36.065C123.075,36.085 123.297,36.136 123.453,36.266C123.604,36.393 123.653,36.571 123.659,36.743C123.671,37.06 123.564,37.376 123.444,37.673C123.048,38.66 122.336,39.525 121.612,40.364C121.473,40.525 121.322,40.68 121.145,40.813C121.03,40.899 120.903,40.976 120.763,41.033C120.375,41.189 119.908,41.129 119.574,40.898C119.412,40.786 118.755,40.136 118.57,39.937Z" style="fill:rgb(33,102,166);"/>
    </g>
    <g transform="matrix(4.16667,0,0,4.16667,-284.225,-117.686)">
        <path d="M120.68,45.342C121.054,45.245 121.512,45.161 121.866,45.355C122.145,45.507 122.235,45.822 122.249,46.119C122.282,46.783 122.142,47.492 122.062,48.151C121.886,49.591 121.569,51.652 120.407,52.659C119.911,53.089 119.22,53.059 118.632,52.865C117.532,52.502 116.213,51.507 115.899,50.337C115.484,48.786 116.745,47.624 117.944,46.869C118.741,46.262 119.64,45.619 120.621,45.358C120.64,45.352 120.66,45.347 120.68,45.342Z" style="fill:rgb(7,170,181);"/>
    </g>
    <g transform="matrix(4.16667,0,0,4.16667,-284.225,-117.686)">
        <path d="M121.978,29.856C122.11,29.913 122.238,29.979 122.361,30.047C122.459,30.101 122.555,30.158 122.65,30.218C122.684,30.24 122.737,30.263 122.763,30.296C123.047,30.467 123.311,30.656 123.54,30.823C124.196,31.237 124.701,31.801 124.64,32.487C124.643,32.471 124.646,32.519 124.644,32.534C124.641,32.565 124.634,32.594 124.626,32.624C124.599,32.719 124.559,32.81 124.514,32.897C124.38,33.159 124.176,33.4 123.93,33.562C123.719,33.702 123.514,33.851 123.299,33.981C122.859,34.248 122.354,34.406 121.849,34.498C121.468,34.62 121.078,34.716 120.69,34.785C120.17,34.877 119.493,34.994 118.959,34.73C118.808,34.656 118.741,34.481 118.705,34.327C118.628,33.997 118.654,33.649 118.672,33.314C118.745,31.981 119.207,30.542 120.481,29.903C120.656,29.815 120.845,29.754 121.04,29.729C121.362,29.652 121.679,29.729 121.978,29.856Z" style="fill:rgb(68,192,183);"/>
    </g>
    <g transform="matrix(4.16667,0,0,4.16667,-284.225,-117.686)">
        <path d="M125.14,44.76C124.966,44.746 124.79,44.727 124.616,44.702C124.618,44.672 124.56,44.694 124.532,44.69C124.476,44.683 124.421,44.673 124.366,44.663C124.2,44.633 124.039,44.589 123.881,44.531C123.39,44.352 122.907,44.049 122.683,43.544C122.1,42.227 122.828,40.87 123.482,39.744C123.665,39.428 123.862,39.12 124.062,38.816C124.941,37.479 126.389,35.483 128.187,36.149C128.446,36.244 128.687,36.385 128.909,36.549C130.261,37.547 131.377,39.12 132.051,40.678C132.314,41.284 132.413,41.898 132.064,42.504C131.959,42.686 131.827,42.85 131.68,42.998C131.46,43.219 131.207,43.401 130.938,43.552C130.925,43.559 130.912,43.566 130.899,43.573C129.63,44.222 128.317,44.625 126.991,44.742C126.518,44.78 125.838,44.813 125.14,44.76Z" style="fill:rgb(99,145,192);"/>
    </g>
    <g transform="matrix(4.16667,0,0,4.16667,-284.225,-117.686)">
        <path d="M128.673,50.235C128.812,50.316 128.951,50.392 129.093,50.464C129.543,50.689 130.009,50.898 130.489,51.052C132.861,51.816 132.549,48.851 132.513,47.182C132.504,46.759 132.509,46.318 132.388,45.908C132.332,45.721 132.244,45.544 132.123,45.391C131.45,44.538 130.194,44.673 129.298,45.029C129.127,45.097 128.96,45.173 128.794,45.255C128.601,45.35 128.412,45.453 128.224,45.557C127.96,45.704 127.698,45.856 127.431,45.999C125.736,47.001 126.259,48.317 127.341,49.306C127.76,49.641 128.205,49.962 128.673,50.235Z" style="fill:rgb(92,193,163);"/>
    </g>
    <g transform="matrix(4.16667,0,0,4.16667,-284.225,-117.686)">
        <path d="M126.316,57.879C126.775,57.846 127.239,57.739 127.637,57.531C129.761,56.53 131.16,54.007 129.421,52.104C128.909,51.462 128.239,50.965 127.567,50.501C127.341,50.345 127.099,50.214 126.865,50.07C126.5,49.844 125.878,49.33 125.366,49.513C125.185,49.577 125.001,49.767 124.89,49.896C124.446,50.413 124.195,51.061 123.985,51.692C123.867,52.05 123.771,52.415 123.677,52.78C123.42,53.772 123.305,54.939 123.551,55.96C123.731,56.708 124.209,57.422 124.936,57.725C125.153,57.816 125.384,57.859 125.619,57.877C125.844,57.895 126.079,57.897 126.316,57.879Z" style="fill:rgb(33,102,166);"/>
    </g>
    <g transform="matrix(4.16667,0,0,4.16667,-284.225,-117.686)">
        <path d="M70.231,67.965L68.214,67.965L68.214,81.543L68.99,81.543L68.99,69.963L74.227,80.961L75.41,80.961L80.376,69.944L80.376,81.543L82.316,81.543L82.316,67.965L80.376,67.965L80.376,68.062L75.372,78.963L70.231,67.965Z" style="fill:rgb(51,102,177);fill-rule:nonzero;"/>
    </g>
    <g transform="matrix(4.16667,0,0,4.16667,-284.225,-117.686)">
        <rect x="87.258" y="67.965" width="1.939" height="13.578" style="fill:rgb(51,102,177);fill-rule:nonzero;"/>
    </g>
    <g transform="matrix(4.16667,0,0,4.16667,-284.225,-117.686)">
        <path d="M94.915,70.739L104.614,81.543L105.39,81.543L105.39,67.965L104.614,67.965L104.614,78.769L94.915,67.965L94.139,67.965L94.139,81.543L94.915,81.543L94.915,70.739Z" style="fill:rgb(51,102,177);fill-rule:nonzero;"/>
    </g>
    <g transform="matrix(4.16667,0,0,4.16667,-284.225,-117.686)">
        <path d="M110.331,81.543L115.355,81.543C119.332,81.543 121.95,78.653 121.95,74.871C121.95,70.7 118.75,67.965 114.773,67.965L110.331,67.965L110.331,81.543ZM114.773,68.722C117.741,68.722 119.933,71.127 119.933,74.89C119.933,78.478 117.896,80.787 115.355,80.787L112.271,80.787L112.271,68.722L114.773,68.722Z" style="fill:rgb(51,102,177);fill-rule:nonzero;"/>
    </g>
    <g transform="matrix(4.16667,0,0,4.16667,-284.225,-117.686)">
        <path d="M134.884,67.965L132.789,67.965L133.972,70.875L130.771,79.022L125.903,67.965L123.827,67.965L129.821,81.543L130.849,81.543L134.515,72.194L138.375,81.543L139.481,81.543L144.524,67.965L143.477,67.965L139.345,79.08L134.884,67.965Z" style="fill:rgb(188,188,191);fill-rule:nonzero;"/>
    </g>
    <g transform="matrix(4.16667,0,0,4.16667,-284.225,-117.686)">
        <path d="M146.459,74.754C146.459,78.731 149.369,81.698 153.345,81.698C157.322,81.698 160.231,78.731 160.231,74.754C160.231,70.778 157.322,67.829 153.345,67.829C149.369,67.829 146.459,70.778 146.459,74.754ZM148.477,74.754C148.477,71.088 150.552,68.528 153.345,68.528C156.158,68.528 158.233,71.088 158.233,74.754C158.233,78.42 156.158,81 153.345,81C150.552,81 148.477,78.42 148.477,74.754Z" style="fill:rgb(188,188,191);fill-rule:nonzero;"/>
    </g>
    <g transform="matrix(4.16667,0,0,4.16667,-284.225,-117.686)">
        <path d="M164.397,81.543L166.337,81.543L166.337,75.53L168.684,75.53L172.699,81.543L174.794,81.543L170.682,75.375C172.757,74.968 174.057,73.687 174.057,71.748C174.057,69.381 172.059,67.965 169.072,67.965L164.397,67.965L164.397,81.543ZM168.587,68.722C170.701,68.722 172.04,69.808 172.04,71.767C172.04,73.726 170.701,74.774 168.606,74.774L166.337,74.774L166.337,68.722L168.587,68.722Z" style="fill:rgb(188,188,191);fill-rule:nonzero;"/>
    </g>
    <g transform="matrix(4.16667,0,0,4.16667,-284.225,-117.686)">
        <path d="M178.514,81.543L180.415,81.543L180.415,67.965L178.533,67.965L178.514,81.543ZM186.738,81.543L189.202,81.543L182.374,73.959C184.508,71.748 186.098,70.235 188.271,67.965L187.204,67.965L180.453,74.735L186.738,81.543Z" style="fill:rgb(188,188,191);fill-rule:nonzero;"/>
    </g>
    <g transform="matrix(4.16667,0,0,4.16667,-284.225,-117.686)">
        <path d="M193.658,70.778C193.658,69.362 194.706,68.489 196.49,68.528C198.527,68.566 199.555,69.769 199.555,71.651L201.514,71.651C201.476,69.187 199.749,67.829 196.471,67.829C193.232,67.829 191.738,69.148 191.738,71.321C191.738,73.513 193.329,74.23 195.773,75.355C198.799,76.752 199.846,77.218 199.846,78.692C199.846,80.341 198.508,81 196.917,81C194.473,81 193.271,79.429 193.271,77.489L191.331,77.489C191.428,80.185 193.309,81.698 196.859,81.698C200.195,81.698 201.786,80.399 201.786,78.207C201.786,76.131 200.351,75.259 197.519,74.036C195.016,72.97 193.658,72.388 193.658,70.778Z" style="fill:rgb(188,188,191);fill-rule:nonzero;"/>
    </g>
    <g transform="matrix(4.16667,0,0,4.16667,-284.225,-117.686)">
        <path d="M103.912,88.679C104.579,88.69 105.262,89.025 105.548,89.676L105.602,89.804L105.176,89.954C105.176,89.954 105.107,89.758 104.982,89.6C104.355,88.803 102.495,89.041 102.648,90.102C102.747,90.784 103.978,90.888 104.686,91.194C105.555,91.571 106.136,92.819 105.122,93.575C104.752,93.85 104.266,94.007 103.808,93.932C103.808,93.932 103.4,93.91 103.098,93.799C102.553,93.598 102.127,93.103 102.032,92.525L102.01,92.371L102.47,92.383L102.487,92.49C102.563,92.889 102.659,92.941 102.759,93.054C102.8,93.101 102.846,93.144 102.894,93.184C103.235,93.462 103.708,93.526 104.125,93.484C104.701,93.425 105.283,93.022 105.207,92.369C105.145,91.847 104.533,91.582 103.919,91.398C103.919,91.398 102.503,91.164 102.234,90.351C102.08,89.885 102.281,89.335 102.681,89.033C103.018,88.779 103.45,88.682 103.866,88.679L103.912,88.679ZM160.318,88.679C160.986,88.69 161.669,89.025 161.955,89.676L162.008,89.804L161.582,89.954C161.582,89.954 161.514,89.758 161.389,89.6C160.759,88.799 158.902,89.041 159.055,90.102C159.154,90.784 160.386,90.888 161.093,91.194C161.956,91.568 162.563,92.804 161.528,93.575C161.158,93.85 160.672,94.007 160.215,93.932C160.215,93.932 159.806,93.91 159.505,93.799C158.96,93.598 158.534,93.103 158.439,92.525L158.417,92.371L158.876,92.383L158.894,92.49C158.969,92.889 159.065,92.941 159.166,93.054C159.207,93.101 159.252,93.144 159.301,93.184C159.646,93.466 160.127,93.529 160.55,93.482C161.134,93.417 161.693,92.959 161.611,92.354C161.535,91.789 160.804,91.544 160.14,91.347C160.14,91.347 158.89,91.105 158.641,90.351C158.487,89.885 158.688,89.335 159.088,89.033C159.425,88.779 159.859,88.682 160.273,88.679L160.318,88.679ZM116.297,88.68C117.133,88.7 117.936,89.126 118.419,89.818L118.5,89.937L118.109,90.193L118.033,90.081C117.437,89.239 116.231,88.918 115.309,89.358C114.821,89.591 114.427,90.014 114.229,90.517C113.77,91.682 114.532,93.183 115.815,93.442C116.639,93.609 117.535,93.254 118.033,92.55L118.109,92.439L118.5,92.695L118.419,92.814C117.749,93.775 116.41,94.197 115.324,93.779C114.037,93.285 113.273,91.687 113.804,90.354C114.188,89.39 115.164,88.7 116.222,88.68L116.297,88.68ZM171.898,88.679C172.565,88.69 173.249,89.025 173.535,89.676L173.588,89.804L173.162,89.954C173.162,89.954 173.094,89.758 172.969,89.6C172.731,89.297 172.347,89.141 171.958,89.119L171.932,89.118C171.256,89.111 170.469,89.512 170.648,90.167C170.839,90.864 172.115,90.935 172.742,91.225C173.648,91.645 174.164,93.111 172.825,93.742C172.515,93.889 172.195,93.954 171.839,93.937C171.676,93.924 171.664,93.924 171.611,93.919C170.849,93.836 170.146,93.3 170.019,92.525L169.996,92.371L170.456,92.383L170.474,92.49C170.549,92.889 170.645,92.941 170.746,93.054C170.787,93.101 170.832,93.144 170.88,93.184C171.226,93.466 171.707,93.529 172.129,93.482C172.708,93.417 173.264,92.973 173.193,92.369C173.126,91.8 172.401,91.549 171.719,91.347C171.719,91.347 170.471,91.11 170.221,90.351C170.067,89.885 170.267,89.335 170.668,89.033C171.004,88.779 171.437,88.682 171.852,88.679L171.898,88.679ZM129.847,88.68C131.333,88.709 132.631,90.157 132.416,91.675C132.241,92.912 131.073,93.938 129.813,93.938C128.317,93.938 126.976,92.451 127.214,90.91C127.399,89.712 128.489,88.721 129.744,88.681C129.779,88.68 129.813,88.68 129.847,88.68ZM142.683,88.68C144.169,88.709 145.467,90.157 145.252,91.675C145.077,92.912 143.909,93.938 142.649,93.938C141.142,93.938 139.796,92.425 140.055,90.878C140.254,89.692 141.338,88.72 142.581,88.681C142.615,88.68 142.649,88.68 142.683,88.68ZM152.373,92.954C151.587,94.131 149.679,94.238 148.593,93.273C147.627,92.416 147.433,90.802 148.23,89.739C148.777,89.009 149.719,88.596 150.627,88.696C151.205,88.759 151.754,89.024 152.169,89.436L152.265,89.533L151.946,89.838C151.558,89.454 151.061,89.186 150.526,89.14C149.541,89.056 148.543,89.711 148.248,90.66C147.995,91.472 148.27,92.423 148.924,92.974C149.78,93.694 151.312,93.678 151.926,92.812L151.966,91.535L150.087,91.535L150.087,91.083L152.424,91.083C152.406,91.707 152.373,92.33 152.373,92.954ZM96.805,93.801L96.36,93.801L96.36,88.817C96.98,88.817 97.599,88.813 98.219,88.817C99.204,88.836 100.012,89.958 99.63,90.924C99.405,91.493 98.821,91.895 98.2,91.899L96.805,91.899L96.805,93.801ZM167.991,89.283L166.274,89.283L166.274,93.794L165.816,93.794L165.816,89.283L164.099,89.283L164.099,88.824L167.991,88.824L167.991,89.283ZM109.984,93.794L109.526,93.794L109.526,91.378L107.589,88.824L108.155,88.824C108.687,89.529 109.219,90.235 109.752,90.94L111.356,88.824L111.914,88.824L109.984,91.378L109.984,93.794ZM155.725,93.794L155.266,93.794L155.266,88.824L155.725,88.824L155.725,93.794ZM135.471,93.335L138.204,93.335L138.204,93.794L135.013,93.794L135.013,88.824L135.471,88.824L135.471,93.335ZM121.55,93.794L121.092,93.794L121.092,88.824L121.55,88.824L121.55,91.076L124.154,91.076L124.154,88.824L124.613,88.824L124.613,93.794L124.154,93.794L124.154,91.542L121.55,91.542L121.55,93.794ZM142.621,89.132C141.5,89.153 140.494,90.127 140.465,91.253C140.436,92.41 141.468,93.486 142.649,93.486C143.466,93.486 144.26,92.989 144.612,92.255C145.233,90.963 144.278,89.162 142.677,89.132L142.621,89.132ZM129.784,89.132C128.664,89.153 127.658,90.127 127.629,91.253C127.6,92.41 128.632,93.486 129.813,93.486C130.629,93.486 131.424,92.989 131.776,92.255C132.396,90.964 131.442,89.162 129.841,89.132L129.784,89.132ZM96.805,89.262L96.805,91.454C97.279,91.454 97.754,91.463 98.228,91.453C99.013,91.429 99.597,90.388 99.067,89.692C98.626,89.115 97.665,89.262 96.805,89.262Z" style="fill:rgb(0,4,24);fill-rule:nonzero;"/>
    </g>
</svg>
