<?xml version="1.0" encoding="UTF-8" standalone="no"?>
<!DOCTYPE svg PUBLIC "-//W3C//DTD SVG 1.1//EN" "http://www.w3.org/Graphics/SVG/1.1/DTD/svg11.dtd">
<svg width="100%" height="100%" viewBox="0 0 1000 1000" version="1.1" xmlns="http://www.w3.org/2000/svg" xmlns:xlink="http://www.w3.org/1999/xlink" xml:space="preserve" xmlns:serif="http://www.serif.com/" style="fill-rule:evenodd;clip-rule:evenodd;stroke-linejoin:round;stroke-miterlimit:2;">
    <g transform="matrix(1.30374,0,0,1.30374,7.4136,-0.000166661)">
        <path id="ev9yfr22b5k21" d="M123.339,709.804C56.866,685.587 22.544,611.904 46.737,545.367C70.931,478.83 144.538,444.474 211.011,468.691C223.903,473.385 235.581,479.942 245.86,487.941C258.937,527.764 274.981,566.518 294.612,603.182C293.513,613.193 291.21,623.24 287.616,633.128C263.422,699.662 189.811,734.021 123.339,709.804Z" style="fill:rgb(208,12,39);fill-rule:nonzero;"/>
        <path id="ev9yfr22b5k23" d="M237.33,461.123C208.208,464.074 177.98,460.669 148.639,449.976C44.477,412.031 -9.307,296.574 28.602,192.315C45.553,145.7 77.681,109.252 117.415,86.566C98.926,90.906 83.573,96.416 68.067,104.369C60.906,108.04 54.736,112.187 48.375,116.785C35.267,126.258 24.296,137.17 14.433,149.529C12.069,152.488 9.851,155.547 7.76,158.694C3.632,139.498 1.122,121.545 0.299,105.115C-1.915,60.875 8.125,27.689 31.907,11.19C60.61,-8.713 105.015,-1.318 156.773,27.435C156.773,27.435 185.041,42.468 211.322,63.592C244.241,89.075 279.382,120.898 313.505,158.144C316.322,122.58 338.978,90.333 338.978,90.333C333.831,155.654 356.929,206.012 395.184,261.095C401.288,269.649 408.311,279.398 416.099,290.053C414.15,303.377 410.829,316.69 406.051,329.83C388.557,377.944 354.569,415.32 312.801,437.891C302.427,420.98 292.552,403.758 283.261,386.209C275.791,372.099 269.984,357.152 262.925,342.833C258.108,333.062 252.519,321.241 242.936,315.275C229.838,307.12 210.302,315.412 206.75,330.391C204.357,340.486 208.102,350.6 210.196,360.388C218.283,398.399 230.718,440.557 237.33,461.123" style="fill-rule:nonzero;"/>
        <path id="ev9yfr22b5k19" d="M477.171,262.203C477.171,262.203 503.944,275.174 519.235,282.58C525.739,285.732 531.162,290.741 534.826,296.975C534.829,296.975 534.829,296.978 534.833,296.978C540.042,305.843 543.494,313.019 549.986,322.45C541.491,321.407 535.614,320.553 527.953,318.702C522.633,317.421 518.585,315.92 513.707,313.946C507.991,311.638 503.236,308.975 498.27,305.562C496.206,304.143 494.342,302.5 492.639,300.668C490.382,298.248 488.407,295.582 486.758,292.681C484.236,288.256 482.237,283.989 480.669,278.991C479.481,275.185 478.593,272.053 477.963,267.986C477.647,265.966 477.386,264.058 477.171,262.203Z" style="fill:rgb(208,12,39);fill-rule:nonzero;"/>
        <path id="ev9yfr22b5k18" d="M649.213,275.17C639.653,212.939 614.851,141.688 560.099,72.626C591.054,56.177 628.579,52.41 664.069,65.342C730.542,89.559 764.868,163.238 740.671,229.775C725.795,270.691 692.234,299.437 653.134,309.88L653.127,309.793C648.704,312.463 644.976,314.555 639.991,316.64C632.719,319.676 627.049,321.449 618.827,323.823C623.747,313.485 626.022,305.855 629.766,296.278C629.766,296.274 629.766,296.27 629.77,296.27C632.403,289.537 636.966,283.731 642.89,279.591L649.213,275.17Z" style="fill:rgb(208,12,39);fill-rule:nonzero;"/>
        <path id="ev9yfr22b5k22" d="M547.707,706.795C481.93,657.411 409.599,580.765 344.606,486.652C342.818,484.066 341.043,481.469 339.282,478.872C341.185,464.917 344.59,450.957 349.595,437.194C367.316,388.464 401.949,350.749 444.463,328.267C461.818,351.284 481.234,376.351 501.676,401.577C501.676,401.577 516.802,426.332 550.14,431.708C581.741,436.802 616.082,433.893 638.092,426.586C643.547,424.67 647.537,419.949 648.513,414.243C651.692,394.924 654.352,370.214 654.314,341.792C722.186,389.827 754.751,476.645 731.979,559.25C730.553,564.423 728.909,569.58 727.044,574.709C710.173,621.108 677.965,657.522 638.235,680.3C638.173,680.366 638.104,680.435 638.031,680.504C656.608,676.156 672.019,670.635 687.583,662.655C694.74,658.98 700.91,654.837 707.275,650.239C720.383,640.766 731.349,629.854 741.213,617.495C743.577,614.536 745.795,611.477 747.886,608.33C752.014,627.522 754.528,645.479 755.351,661.909C757.565,706.149 747.525,739.335 723.739,755.83C695.036,775.737 650.631,768.342 598.873,739.589C598.873,739.589 572.707,726.157 547.707,706.795Z" style="fill-rule:nonzero;"/>
    </g>
    <g transform="matrix(1.30374,0,0,1.30374,7.4136,-0.000166661)">
        <path d="M572.197,451.789C572.174,452.299 572.189,452.817 572.245,453.339C572.45,455.077 572.649,456.822 572.845,458.575C576.79,493.854 579.212,541.307 584.981,573.32C586.826,583.561 588.995,593.193 591.707,601.904C593.832,608.73 596.3,614.951 598.995,620.56C607.195,636.612 620.489,645.406 632.633,645.808C645.767,646.242 657.755,637.731 657.135,618.338C654.367,634.27 644.307,640.402 633.614,638.033C624.766,636.073 616.191,627.987 612.137,615.168C610.317,609.87 608.961,604.008 607.599,597.719C605.78,589.318 604.259,580.164 602.902,570.454C600.972,556.651 599.453,541.771 598.082,526.492C600.91,538.01 603.883,549.17 607.187,559.494C609.923,568.044 612.866,576.031 616.181,583.162C618.792,588.778 621.624,593.82 624.575,598.317C633.62,611.293 645.945,617.392 656.29,616.25C667.407,615.022 676.591,606.354 673.498,589.669C672.87,600.521 668.047,606.543 661.492,608.26C653.048,610.472 642.491,604.268 636.873,591.415C634.829,587.099 633.146,582.255 631.364,577.052C628.981,570.097 626.754,562.481 624.574,554.376C619.955,537.203 615.77,513.887 611.604,491.705C609.421,480.08 607.243,468.766 605.01,458.811C604.541,456.72 604.07,454.64 603.595,452.573C603.536,452.327 603.467,452.084 603.391,451.847C591.99,452.59 582.067,452.557 572.197,451.789Z" style="fill:rgb(208,12,39);"/>
    </g>
</svg>
