<?xml version="1.0" encoding="UTF-8" standalone="no"?>
<!DOCTYPE svg PUBLIC "-//W3C//DTD SVG 1.1//EN" "http://www.w3.org/Graphics/SVG/1.1/DTD/svg11.dtd">
<svg width="100%" height="100%" viewBox="0 0 1000 1000" version="1.1" xmlns="http://www.w3.org/2000/svg" xmlns:xlink="http://www.w3.org/1999/xlink" xml:space="preserve" xmlns:serif="http://www.serif.com/" style="fill-rule:evenodd;clip-rule:evenodd;stroke-linejoin:round;stroke-miterlimit:2;">
    <g transform="matrix(0.58256,0,0,0.58256,1.7053e-13,227.01)">
        <path d="M853.439,36.072L879.223,62.564C853.085,66.445 827.301,71.389 802.581,79.162C786.331,84.106 770.79,90.462 755.604,98.235C734.765,108.832 715.337,122.956 698.386,142.029C691.322,149.093 686.024,156.867 681.079,164.634C676.135,173.111 671.896,181.587 669.071,190.418C664.832,203.838 661.654,217.259 662.713,230.685C663.066,236.686 663.42,242.693 664.832,248.695C671.19,276.599 687.437,300.971 719.578,315.803C682.845,314.037 656.709,298.141 637.989,275.187C628.806,263.881 623.155,250.461 618.564,236.332C613.619,219.734 612.913,201.723 614.679,183.708C616.091,172.053 619.27,160.399 623.508,149.448C630.572,131.786 642.228,115.188 656.356,100.705C676.841,82.34 698.033,68.211 721.344,58.323C744.653,48.435 768.67,42.427 793.75,39.25C813.881,36.78 833.657,35.717 853.439,36.072Z" style="fill:rgb(239,51,64);"/>
    </g>
    <g transform="matrix(0.58256,0,0,0.58256,1.7053e-13,227.01)">
        <path d="M822.917,314.82C816.327,330.595 796.077,384.517 833.28,367.798C861.064,355.315 886.024,337.419 912.396,322.353C924.405,315.523 936.414,309.401 949.125,303.748C982.562,289.385 1002.34,296.215 1008.7,312.225C1013.41,323.999 1011.14,344.448 998.192,367.756C998.192,367.756 992.584,379.33 984.448,379.573L990.095,363.323C990.804,360.968 991.513,358.379 992.216,356.024C992.925,352.726 993.628,348.251 993.868,343.547C994.102,333.653 991.747,322.822 981.15,321.878C979.264,321.644 977.384,321.878 975.732,322.119C972.908,322.587 970.085,323.765 967.496,324.942C957.367,329.652 947.948,336.716 938.769,343.072C921.341,355.315 904.623,368.741 887.202,381.219C875.896,389.226 864.362,396.76 852.353,403.59C841.991,409.711 828.102,416.302 814.441,418.422C801.489,420.302 788.069,418.891 777.712,409.946C738.623,376.978 760.051,313.877 781.004,276.439C835.869,178.952 943.398,105.449 1028.4,36.455L853.291,36.026L817.505,-0L1130.43,-0L1011.06,195.436L966.787,150.7C948.891,161.765 931.704,174.717 915.929,189.549C878.485,223.929 842.459,267.019 822.917,314.82Z" style="fill:rgb(239,51,64);"/>
    </g>
    <g transform="matrix(0.58256,0,0,0.58256,1.7053e-13,227.01)">
        <path d="M385.16,806.773C385.16,810.188 384.489,813.385 383.15,816.367C381.812,819.348 379.994,821.9 377.706,824.018L382.501,829.789L377.379,830.501L374.205,826.677C372.432,827.756 370.485,828.611 368.367,829.238C366.25,829.865 364.069,830.178 361.822,830.178C358.58,830.178 355.523,829.574 352.648,828.361C349.774,827.152 347.29,825.5 345.19,823.4C343.095,821.305 341.443,818.82 340.234,815.946C339.02,813.072 338.416,810.014 338.416,806.773C338.416,803.531 339.02,800.473 340.234,797.599C341.443,794.725 343.095,792.24 345.19,790.145C347.29,788.045 349.774,786.393 352.648,785.184C355.523,783.971 358.58,783.367 361.822,783.367C365.063,783.367 368.108,783.971 370.964,785.184C373.816,786.393 376.291,788.045 378.387,790.145C380.482,792.24 382.134,794.725 383.347,797.599C384.556,800.473 385.16,803.531 385.16,806.773ZM369.728,814.554L374.595,820.387C376.323,818.659 377.67,816.626 378.646,814.294C379.618,811.957 380.101,809.454 380.101,806.773C380.101,804.136 379.627,801.66 378.678,799.35C377.724,797.035 376.439,795.047 374.819,793.386C373.198,791.721 371.264,790.405 369.016,789.429C366.769,788.457 364.369,787.969 361.822,787.969C359.23,787.969 356.808,788.457 354.56,789.429C352.313,790.405 350.379,791.721 348.758,793.386C347.137,795.047 345.852,797.035 344.899,799.35C343.95,801.66 343.475,804.136 343.475,806.773C343.475,809.409 343.95,811.872 344.899,814.164C345.852,816.456 347.137,818.444 348.758,820.127C350.379,821.815 352.313,823.14 354.56,824.116C356.808,825.088 359.23,825.576 361.822,825.576C363.55,825.576 365.193,825.357 366.747,824.927C368.305,824.492 369.751,823.866 371.094,823.046L364.607,815.333L369.728,814.554Z" style="fill:rgb(29,29,27);fill-rule:nonzero;"/>
    </g>
    <g transform="matrix(0.58256,0,0,0.58256,1.7053e-13,227.01)">
        <path d="M433.328,810.274C433.328,816.326 431.636,821.153 428.243,824.766C424.849,828.374 420.3,830.178 414.592,830.178C408.844,830.178 404.286,828.383 400.915,824.797C397.544,821.206 395.856,816.367 395.856,810.274L395.856,784.083L400.848,784.083L400.848,810.274C400.848,814.898 402.101,818.605 404.608,821.39C407.116,824.179 410.446,825.576 414.592,825.576C418.742,825.576 422.073,824.179 424.58,821.39C427.083,818.605 428.337,814.898 428.337,810.274L428.337,784.083L433.328,784.083L433.328,810.274Z" style="fill:rgb(29,29,27);fill-rule:nonzero;"/>
    </g>
    <g transform="matrix(0.58256,0,0,0.58256,1.7053e-13,227.01)">
        <path d="M439.748,829.462L458.614,784.083L464.645,784.083L483.251,829.462L477.807,829.462L472.099,815.203L450.704,815.203L444.937,829.462L439.748,829.462ZM452.454,810.923L470.349,810.923L461.466,788.748L452.454,810.923Z" style="fill:rgb(29,29,27);fill-rule:nonzero;"/>
    </g>
    <g transform="matrix(0.58256,0,0,0.58256,1.7053e-13,227.01)">
        <path d="M492.264,829.462L492.264,784.083L497.255,784.083L497.255,824.989L524.292,824.989L524.292,829.462L492.264,829.462Z" style="fill:rgb(29,29,27);fill-rule:nonzero;"/>
    </g>
    <g transform="matrix(0.58256,0,0,0.58256,1.7053e-13,227.01)">
        <rect x="535.18" y="784.08" width="4.992" height="45.382" style="fill:rgb(29,29,27);"/>
    </g>
    <g transform="matrix(0.58256,0,0,0.58256,1.7053e-13,227.01)">
        <path d="M550.03,788.556L550.03,784.083L587.825,784.083L587.825,788.556L571.421,788.556L571.421,829.462L566.429,829.462L566.429,788.556L550.03,788.556Z" style="fill:rgb(29,29,27);fill-rule:nonzero;"/>
    </g>
    <g transform="matrix(0.58256,0,0,0.58256,1.7053e-13,227.01)">
        <path d="M611.553,829.462L611.553,810.985L593.529,784.083L599.367,784.083L614.212,806.58L628.995,784.083L634.632,784.083L616.545,811.182L616.545,829.462L611.553,829.462Z" style="fill:rgb(29,29,27);fill-rule:nonzero;"/>
    </g>
    <g transform="matrix(0.58256,0,0,0.58256,1.7053e-13,227.01)">
        <path d="M661.216,829.462L661.216,784.083L680.664,784.083C685.074,784.083 688.638,785.278 691.36,787.678C694.087,790.078 695.448,793.221 695.448,797.111C695.448,800.093 694.57,802.667 692.82,804.829C691.069,806.987 688.728,808.478 685.786,809.302L695.967,829.462L690.456,829.462L680.732,809.951L666.208,809.951L666.208,829.462L661.216,829.462ZM680.342,788.556L666.208,788.556L666.208,805.734L680.342,805.734C683.364,805.734 685.809,804.946 687.667,803.37C689.524,801.79 690.456,799.708 690.456,797.111C690.456,794.519 689.524,792.446 687.667,790.888C685.809,789.335 683.364,788.556 680.342,788.556Z" style="fill:rgb(29,29,27);fill-rule:nonzero;"/>
    </g>
    <g transform="matrix(0.58256,0,0,0.58256,1.7053e-13,227.01)">
        <path d="M751.397,806.773C751.397,810.014 750.792,813.072 749.579,815.946C748.37,818.82 746.718,821.305 744.623,823.4C742.523,825.5 740.052,827.152 737.2,828.361C734.344,829.574 731.299,830.178 728.058,830.178C724.817,830.178 721.759,829.574 718.885,828.361C716.01,827.152 713.526,825.5 711.426,823.4C709.331,821.305 707.679,818.82 706.47,815.946C705.257,813.072 704.652,810.014 704.652,806.773C704.652,803.531 705.257,800.473 706.47,797.599C707.679,794.725 709.331,792.24 711.426,790.145C713.526,788.045 716.01,786.393 718.885,785.184C721.759,783.971 724.817,783.367 728.058,783.367C731.299,783.367 734.344,783.971 737.2,785.184C740.052,786.393 742.523,788.045 744.623,790.145C746.718,792.24 748.37,794.725 749.579,797.599C750.792,800.473 751.397,803.531 751.397,806.773ZM746.338,806.773C746.338,804.136 745.863,801.66 744.914,799.35C743.96,797.035 742.675,795.047 741.055,793.386C739.434,791.721 737.5,790.405 735.253,789.429C733.005,788.457 730.605,787.969 728.058,787.969C725.461,787.969 723.044,788.457 720.796,789.429C718.549,790.405 716.615,791.721 714.994,793.386C713.373,795.047 712.089,797.035 711.135,799.35C710.186,801.66 709.711,804.136 709.711,806.773C709.711,809.409 710.186,811.872 711.135,814.164C712.089,816.456 713.373,818.444 714.994,820.127C716.615,821.815 718.549,823.14 720.796,824.116C723.044,825.088 725.461,825.576 728.058,825.576C730.605,825.576 733.005,825.088 735.253,824.116C737.5,823.14 739.434,821.815 741.055,820.127C742.675,818.444 743.96,816.456 744.914,814.164C745.863,811.872 746.338,809.409 746.338,806.773Z" style="fill:rgb(29,29,27);fill-rule:nonzero;"/>
    </g>
    <g transform="matrix(0.58256,0,0,0.58256,1.7053e-13,227.01)">
        <path d="M763.001,829.462L763.001,784.083L777.976,784.083C781.392,784.083 784.567,784.656 787.508,785.798C790.445,786.944 792.974,788.511 795.092,790.499C797.21,792.486 798.866,794.877 800.053,797.662C801.243,800.451 801.834,803.486 801.834,806.773C801.834,810.059 801.243,813.094 800.053,815.883C798.866,818.668 797.223,821.059 795.123,823.046C793.028,825.034 790.512,826.601 787.571,827.747C784.634,828.889 781.437,829.462 777.976,829.462L763.001,829.462ZM778.236,788.618L767.993,788.618L767.993,824.927L778.236,824.927C780.828,824.927 783.273,824.461 785.565,823.53C787.853,822.603 789.818,821.327 791.461,819.707C793.104,818.086 794.403,816.161 795.352,813.936C796.305,811.711 796.78,809.324 796.78,806.773C796.78,804.221 796.305,801.834 795.352,799.609C794.403,797.384 793.104,795.459 791.461,793.838C789.818,792.218 787.853,790.942 785.565,790.015C783.273,789.084 780.828,788.618 778.236,788.618Z" style="fill:rgb(29,29,27);fill-rule:nonzero;"/>
    </g>
    <g transform="matrix(0.58256,0,0,0.58256,1.7053e-13,227.01)">
        <path d="M813.439,829.462L813.439,784.083L845.919,784.083L845.919,788.488L818.431,788.488L818.431,804.373L836.392,804.373L836.392,808.716L818.431,808.716L818.431,825.057L846.179,825.057L846.179,829.462L813.439,829.462Z" style="fill:rgb(29,29,27);fill-rule:nonzero;"/>
    </g>
    <g transform="matrix(0.58256,0,0,0.58256,1.7053e-13,227.01)">
        <path d="M857.139,784.083L862.131,784.083L889.422,820.906L889.422,784.083L894.155,784.083L894.155,829.462L889.749,829.462L861.871,791.667L861.871,829.462L857.139,829.462L857.139,784.083Z" style="fill:rgb(29,29,27);fill-rule:nonzero;"/>
    </g>
    <g transform="matrix(0.58256,0,0,0.58256,1.7053e-13,227.01)">
        <path d="M904.013,788.556L904.013,784.083L941.808,784.083L941.808,788.556L925.404,788.556L925.404,829.462L920.412,829.462L920.412,788.556L904.013,788.556Z" style="fill:rgb(29,29,27);fill-rule:nonzero;"/>
    </g>
    <g transform="matrix(0.58256,0,0,0.58256,1.7053e-13,227.01)">
        <path d="M948.031,821.685L951.339,818.247C953.672,820.709 956.17,822.581 958.825,823.857C961.484,825.133 964.282,825.768 967.224,825.768C970.765,825.768 973.684,824.927 975.976,823.239C978.264,821.556 979.41,819.416 979.41,816.823C979.41,814.486 978.6,812.696 976.979,811.442C975.358,810.188 972.69,809.257 968.974,808.653L962.424,807.614C958.059,806.925 954.84,805.64 952.763,803.759C950.69,801.879 949.651,799.336 949.651,796.14C949.651,792.379 951.124,789.335 954.061,786.998C956.998,784.665 960.848,783.497 965.603,783.497C968.755,783.497 971.889,784.016 975,785.055C978.112,786.093 980.946,787.584 983.493,789.527L980.641,793.418C978.179,791.56 975.672,790.154 973.12,789.205C970.572,788.251 967.998,787.777 965.406,787.777C962.165,787.777 959.541,788.524 957.531,790.015C955.521,791.506 954.513,793.418 954.513,795.75C954.513,797.868 955.23,799.488 956.653,800.612C958.082,801.736 960.436,802.56 963.723,803.079L970.205,804.113C975.13,804.937 978.729,806.338 980.999,808.331C983.269,810.318 984.402,813.063 984.402,816.564C984.402,818.551 983.981,820.378 983.139,822.039C982.298,823.705 981.107,825.133 979.571,826.319C978.04,827.51 976.2,828.437 974.06,829.108C971.924,829.775 969.578,830.111 967.027,830.111C963.44,830.111 959.993,829.39 956.685,827.94C953.381,826.494 950.497,824.407 948.031,821.685Z" style="fill:rgb(29,29,27);fill-rule:nonzero;"/>
    </g>
    <g transform="matrix(0.58256,0,0,0.58256,1.7053e-13,227.01)">
        <path d="M994.385,824.667L999.574,824.667L994.385,838.344L990.625,838.344L994.385,824.667Z" style="fill:rgb(29,29,27);fill-rule:nonzero;"/>
    </g>
    <g transform="matrix(0.58256,0,0,0.58256,1.7053e-13,227.01)">
        <path d="M1073.35,806.773C1073.35,810.188 1072.68,813.385 1071.34,816.367C1070,819.348 1068.19,821.9 1065.9,824.018L1070.69,829.789L1065.57,830.501L1062.39,826.677C1060.62,827.756 1058.68,828.611 1056.56,829.238C1054.44,829.865 1052.26,830.178 1050.01,830.178C1046.77,830.178 1043.71,829.574 1040.84,828.361C1037.96,827.152 1035.48,825.5 1033.38,823.4C1031.28,821.305 1029.63,818.82 1028.42,815.946C1027.21,813.072 1026.61,810.014 1026.61,806.773C1026.61,803.531 1027.21,800.473 1028.42,797.599C1029.63,794.725 1031.28,792.24 1033.38,790.145C1035.48,788.045 1037.96,786.393 1040.84,785.184C1043.71,783.971 1046.77,783.367 1050.01,783.367C1053.25,783.367 1056.3,783.971 1059.15,785.184C1062.01,786.393 1064.48,788.045 1066.58,790.145C1068.67,792.24 1070.32,794.725 1071.54,797.599C1072.75,800.473 1073.35,803.531 1073.35,806.773ZM1057.92,814.554L1062.78,820.387C1064.51,818.659 1065.86,816.626 1066.84,814.294C1067.81,811.957 1068.3,809.454 1068.3,806.773C1068.3,804.136 1067.82,801.66 1066.87,799.35C1065.92,797.035 1064.63,795.047 1063.01,793.386C1061.39,791.721 1059.45,790.405 1057.21,789.429C1054.96,788.457 1052.56,787.969 1050.01,787.969C1047.42,787.969 1045,788.457 1042.75,789.429C1040.5,790.405 1038.57,791.721 1036.95,793.386C1035.33,795.047 1034.04,797.035 1033.09,799.35C1032.14,801.66 1031.66,804.136 1031.66,806.773C1031.66,809.409 1032.14,811.872 1033.09,814.164C1034.04,816.456 1035.33,818.444 1036.95,820.127C1038.57,821.815 1040.5,823.14 1042.75,824.116C1045,825.088 1047.42,825.576 1050.01,825.576C1051.74,825.576 1053.38,825.357 1054.94,824.927C1056.49,824.492 1057.94,823.866 1059.28,823.046L1052.8,815.333L1057.92,814.554Z" style="fill:rgb(29,29,27);fill-rule:nonzero;"/>
    </g>
    <g transform="matrix(0.58256,0,0,0.58256,1.7053e-13,227.01)">
        <path d="M1121.52,810.274C1121.52,816.326 1119.82,821.153 1116.43,824.766C1113.04,828.374 1108.49,830.178 1102.78,830.178C1097.04,830.178 1092.47,828.383 1089.1,824.797C1085.73,821.206 1084.05,816.367 1084.05,810.274L1084.05,784.083L1089.04,784.083L1089.04,810.274C1089.04,814.898 1090.29,818.605 1092.8,821.39C1095.31,824.179 1098.63,825.576 1102.78,825.576C1106.93,825.576 1110.26,824.179 1112.77,821.39C1115.28,818.605 1116.53,814.898 1116.53,810.274L1116.53,784.083L1121.52,784.083L1121.52,810.274Z" style="fill:rgb(29,29,27);fill-rule:nonzero;"/>
    </g>
    <g transform="matrix(0.58256,0,0,0.58256,1.7053e-13,227.01)">
        <path d="M1127.94,829.462L1146.81,784.083L1152.84,784.083L1171.44,829.462L1166,829.462L1160.29,815.203L1138.9,815.203L1133.13,829.462L1127.94,829.462ZM1140.65,810.923L1158.54,810.923L1149.66,788.748L1140.65,810.923Z" style="fill:rgb(29,29,27);fill-rule:nonzero;"/>
    </g>
    <g transform="matrix(0.58256,0,0,0.58256,1.7053e-13,227.01)">
        <path d="M1180.45,829.462L1180.45,784.083L1185.44,784.083L1185.44,824.989L1212.48,824.989L1212.48,829.462L1180.45,829.462Z" style="fill:rgb(29,29,27);fill-rule:nonzero;"/>
    </g>
    <g transform="matrix(0.58256,0,0,0.58256,1.7053e-13,227.01)">
        <rect x="1223.38" y="784.08" width="4.992" height="45.382" style="fill:rgb(29,29,27);"/>
    </g>
    <g transform="matrix(0.58256,0,0,0.58256,1.7053e-13,227.01)">
        <path d="M1238.22,788.556L1238.22,784.083L1276.01,784.083L1276.01,788.556L1259.62,788.556L1259.62,829.462L1254.62,829.462L1254.62,788.556L1238.22,788.556Z" style="fill:rgb(29,29,27);fill-rule:nonzero;"/>
    </g>
    <g transform="matrix(0.58256,0,0,0.58256,1.7053e-13,227.01)">
        <path d="M1299.74,829.462L1299.74,810.985L1281.72,784.083L1287.55,784.083L1302.4,806.58L1317.18,784.083L1322.82,784.083L1304.73,811.182L1304.73,829.462L1299.74,829.462Z" style="fill:rgb(29,29,27);fill-rule:nonzero;"/>
    </g>
    <g transform="matrix(0.58256,0,0,0.58256,1.7053e-13,227.01)">
        <path d="M1349.41,829.462L1349.41,784.083L1369.12,784.083C1373.53,784.083 1377.07,785.278 1379.75,787.678C1382.43,790.078 1383.77,793.243 1383.77,797.178C1383.77,801.109 1382.42,804.288 1379.72,806.71C1377.02,809.127 1373.48,810.336 1369.12,810.336L1354.4,810.336L1354.4,829.462L1349.41,829.462ZM1368.73,788.556L1354.4,788.556L1354.4,805.994L1368.73,805.994C1371.8,805.994 1374.24,805.206 1376.06,803.63C1377.87,802.049 1378.78,799.923 1378.78,797.241C1378.78,794.564 1377.87,792.446 1376.06,790.888C1374.24,789.335 1371.8,788.556 1368.73,788.556Z" style="fill:rgb(29,29,27);fill-rule:nonzero;"/>
    </g>
    <g transform="matrix(0.58256,0,0,0.58256,1.7053e-13,227.01)">
        <path d="M1395.11,829.462L1395.11,784.083L1414.56,784.083C1418.97,784.083 1422.54,785.278 1425.26,787.678C1427.98,790.078 1429.34,793.221 1429.34,797.111C1429.34,800.093 1428.47,802.667 1426.72,804.829C1424.97,806.987 1422.62,808.478 1419.68,809.302L1429.86,829.462L1424.35,829.462L1414.63,809.951L1400.1,809.951L1400.1,829.462L1395.11,829.462ZM1414.24,788.556L1400.1,788.556L1400.1,805.734L1414.24,805.734C1417.26,805.734 1419.7,804.946 1421.56,803.37C1423.42,801.79 1424.35,799.708 1424.35,797.111C1424.35,794.519 1423.42,792.446 1421.56,790.888C1419.7,789.335 1417.26,788.556 1414.24,788.556Z" style="fill:rgb(29,29,27);fill-rule:nonzero;"/>
    </g>
    <g transform="matrix(0.58256,0,0,0.58256,1.7053e-13,227.01)">
        <rect x="1440.69" y="784.08" width="4.992" height="45.382" style="fill:rgb(29,29,27);"/>
    </g>
    <g transform="matrix(0.58256,0,0,0.58256,1.7053e-13,227.01)">
        <path d="M1480.95,825.576C1483.76,825.576 1486.44,825.021 1488.99,823.919C1491.54,822.818 1493.68,821.296 1495.41,819.348L1498.65,822.72C1496.4,825.057 1493.72,826.883 1490.61,828.199C1487.5,829.516 1484.24,830.178 1480.82,830.178C1477.54,830.178 1474.46,829.574 1471.58,828.361C1468.71,827.152 1466.21,825.5 1464.09,823.4C1461.98,821.305 1460.31,818.82 1459.1,815.946C1457.89,813.072 1457.29,810.014 1457.29,806.773C1457.29,803.531 1457.89,800.473 1459.1,797.599C1460.31,794.725 1461.98,792.24 1464.09,790.145C1466.21,788.045 1468.71,786.393 1471.58,785.184C1474.46,783.971 1477.54,783.367 1480.82,783.367C1484.32,783.367 1487.64,784.029 1490.77,785.346C1493.91,786.662 1496.58,788.488 1498.78,790.825L1495.47,794.326C1493.7,792.339 1491.51,790.781 1488.89,789.657C1486.28,788.533 1483.59,787.969 1480.82,787.969C1478.23,787.969 1475.8,788.457 1473.53,789.429C1471.26,790.405 1469.3,791.721 1467.66,793.386C1466.02,795.047 1464.72,797.035 1463.77,799.35C1462.82,801.66 1462.34,804.136 1462.34,806.773C1462.34,809.409 1462.82,811.885 1463.77,814.195C1464.72,816.51 1466.03,818.498 1467.69,820.159C1469.35,821.824 1471.32,823.14 1473.59,824.116C1475.86,825.088 1478.31,825.576 1480.95,825.576Z" style="fill:rgb(29,29,27);fill-rule:nonzero;"/>
    </g>
    <g transform="matrix(0.58256,0,0,0.58256,1.7053e-13,227.01)">
        <path d="M1510,829.462L1510,784.083L1542.48,784.083L1542.48,788.488L1514.99,788.488L1514.99,804.373L1532.95,804.373L1532.95,808.716L1514.99,808.716L1514.99,825.057L1542.74,825.057L1542.74,829.462L1510,829.462Z" style="fill:rgb(29,29,27);fill-rule:nonzero;"/>
    </g>
    <g transform="matrix(0.58256,0,0,0.58256,1.7053e-13,227.01)">
        <path d="M212.886,734.876L221.687,734.926L124.854,601.869C146.819,595.114 161.006,585.64 169.902,574.824C179.863,562.709 183.337,548.821 183.337,534.643C183.337,501.128 156.193,470.823 109.848,470.823C74.887,470.823 31.446,471.15 30.448,471.159L-0,471.159L-0,719.534L55.591,719.534L55.591,606.234L55.725,606.23C77.68,628.624 107.945,669.405 140.878,698.85C164.158,719.668 188.871,734.738 212.886,734.876ZM60.484,497.063C80.25,497.063 95.27,496.49 107.067,502.865L107.148,502.91C118.896,508.631 124.747,523.195 124.747,539.644C124.747,552.6 121.653,561.724 116.16,568.073C110.689,574.39 102.935,577.895 94.039,579.954C82.462,582.641 69.004,582.873 55.591,582.891L55.591,497.063L60.484,497.063Z" style="fill:rgb(239,51,64);fill-rule:nonzero;"/>
    </g>
    <g transform="matrix(0.58256,0,0,0.58256,1.7053e-13,227.01)">
        <path d="M295.298,547.541C242.962,547.541 206.797,583.021 206.797,635.707C206.797,662.77 215.791,684.34 231.299,699.28C246.759,714.17 268.785,722.52 295.235,722.869L295.312,722.869C321.829,722.345 343.851,713.911 359.301,698.935C374.805,683.915 383.795,662.264 383.795,635.039L383.795,635.022C383.446,585.484 350.441,547.541 295.298,547.541ZM328.54,635.371C328.54,652.491 326.642,668.59 321.121,680.391C316.13,691.06 308.026,697.964 295.298,697.964C282.418,697.964 274.31,691.074 269.354,680.4C263.87,668.599 262.052,652.495 262.052,635.371C262.052,618.228 263.879,601.869 269.363,589.858C274.31,579.023 282.391,571.963 295.244,572.111C308.004,572.254 316.107,579.408 321.108,590.247C326.633,602.214 328.54,618.398 328.54,635.371Z" style="fill:rgb(239,51,64);fill-rule:nonzero;"/>
    </g>
    <g transform="matrix(0.58256,0,0,0.58256,1.7053e-13,227.01)">
        <path d="M525.299,721.159L525.366,725.614L573.548,724.794L573.548,440.724L524.632,465.187L524.632,551.732C516.023,549.139 507.364,548.208 499.391,548.208C441.969,548.208 402.554,591.787 402.554,638.706C402.554,697.247 441.897,723.165 479.629,723.868L479.638,723.868C497.484,724.159 513.413,719.677 525.125,709.743C525.129,709.743 525.299,721.159 525.299,721.159ZM452.808,623.363C452.808,606.552 461.963,591.989 472.56,582.999C479.276,577.304 486.533,573.776 492.389,573.776C507.472,573.776 522.183,585.022 524.628,608.894C524.632,608.912 524.632,679.411 524.632,679.411C516.56,684.595 507.476,685.016 501.84,685.298L501.795,685.298C496.642,685.652 490.365,684.004 484.044,680.588C468.401,672.131 452.808,652.827 452.808,623.363Z" style="fill:rgb(239,51,64);fill-rule:nonzero;"/>
    </g>
    <g transform="matrix(0.58256,0,0,0.58256,1.7053e-13,227.01)">
        <path d="M675.955,722.869L678.068,722.865C710.947,722.524 736.049,700.735 744.475,686.691L745.276,685.356L741.78,658.897L735.785,663.074C725.367,670.336 709.331,680.266 691.029,680.288L690.63,680.311L690.63,680.288C661.745,680.288 643.223,661.346 640.081,633.146L752.113,633.146L752.113,611.911L752.108,611.795C749.619,563.063 707.482,547.541 677.956,547.541C626.667,547.541 593.126,589.191 593.126,638.375C593.126,681.703 621.358,722.869 675.955,722.869ZM700.417,607.578L639.892,607.578C641.773,585.018 657.85,572.111 672.955,572.111C690.38,572.111 699.329,586.585 700.417,607.578Z" style="fill:rgb(239,51,64);fill-rule:nonzero;"/>
    </g>
    <g transform="matrix(0.58256,0,0,0.58256,1.7053e-13,227.01)">
        <path d="M847.607,580.447C857.743,580.447 864.929,583.2 868.873,589.396L868.886,589.414C873.525,596.533 874.178,603.674 874.183,620.024L873.833,719.534L922.754,719.534L923.098,610.031C923.098,589.62 916.942,574.103 906.695,563.636C896.357,553.07 881.776,547.541 864.62,547.541C841.098,547.541 825.477,555.716 814.285,569.635L807.435,540.736L770.115,565.615L770.115,719.534L819.035,719.534L819.035,604.52C820.902,596.488 826.803,580.447 847.607,580.447Z" style="fill:rgb(239,51,64);fill-rule:nonzero;"/>
    </g>
    <g transform="matrix(0.58256,0,0,0.58256,1.7053e-13,227.01)">
        <path d="M1062.35,694.677L1063.25,693.155L1062.87,691.432C1059.86,678.054 1060.52,680.06 1059.18,674.379L1057.57,667.529L1052.08,671.921C1041.46,680.418 1034.24,683.288 1024.84,683.288C1009.21,683.288 998.938,670.488 998.933,651.389L999.247,581.114L1054.64,581.114L1054.64,550.876L998.602,550.876L998.602,500.51L978.451,500.51L952.104,550.876L927.001,550.876L927.001,581.114L950.331,581.114L950.013,657.044C950.013,677.32 954.996,693.616 964.774,704.907C974.704,716.369 989.612,722.869 1009.83,722.869C1037.56,722.869 1055.51,706.201 1062.35,694.677Z" style="fill:rgb(239,51,64);fill-rule:nonzero;"/>
    </g>
    <g transform="matrix(0.58256,0,0,0.58256,1.7053e-13,227.01)">
        <path d="M1212.02,699.137L1124.6,520.155L1124.6,715.088L1101.63,715.088L1101.63,491.762L1136.09,491.762L1212.34,650.324L1288.27,491.762L1322.72,491.762L1322.72,715.088L1299.43,715.088L1299.43,519.837L1212.02,699.137Z" style="fill:rgb(239,51,64);fill-rule:nonzero;"/>
    </g>
    <g transform="matrix(0.58256,0,0,0.58256,1.7053e-13,227.01)">
        <path d="M1408.58,717.958C1391.14,717.958 1376.94,713.49 1365.99,704.558C1355.04,695.627 1349.56,684.036 1349.56,669.785C1349.56,654.895 1355.3,643.04 1366.79,634.211C1378.27,625.387 1393.8,620.973 1413.37,620.973C1421.87,620.973 1430.11,621.931 1438.09,623.842C1446.07,625.759 1453.46,628.418 1460.26,631.82L1460.26,610.761C1460.26,598.001 1456.65,588.376 1449.41,581.889C1442.18,575.401 1431.65,572.16 1417.83,572.16C1409.96,572.16 1402.04,573.275 1394.07,575.509C1386.09,577.743 1377.31,581.307 1367.75,586.195L1358.81,568.01C1370.3,562.481 1380.93,558.443 1390.71,555.891C1400.5,553.334 1410.28,552.058 1420.06,552.058C1440.27,552.058 1455.85,556.844 1466.8,566.416C1477.76,575.988 1483.23,589.705 1483.23,607.573L1483.23,715.088L1460.26,715.088L1460.26,699.454C1453.03,705.624 1445.11,710.248 1436.49,713.333C1427.88,716.418 1418.58,717.958 1408.58,717.958ZM1372.21,669.145C1372.21,678.077 1375.98,685.365 1383.54,691.002C1391.08,696.638 1400.82,699.454 1412.73,699.454C1422.3,699.454 1431.02,697.964 1438.89,694.986C1446.76,692.009 1453.88,687.331 1460.26,680.951L1460.26,650.96C1453.67,646.496 1446.6,643.25 1439.05,641.231C1431.5,639.212 1423.15,638.2 1414,638.2C1401.24,638.2 1391.08,641.016 1383.54,646.653C1375.98,652.289 1372.21,659.788 1372.21,669.145Z" style="fill:rgb(239,51,64);fill-rule:nonzero;"/>
    </g>
    <g transform="matrix(0.58256,0,0,0.58256,1.7053e-13,227.01)">
        <path d="M1513.23,715.088L1513.23,555.25L1536.84,555.25L1536.84,577.904C1541.52,569.608 1547.68,563.175 1555.34,558.599C1563,554.028 1571.72,551.74 1581.5,551.74C1584.48,551.74 1587.14,551.902 1589.48,552.219C1591.82,552.537 1594.16,553.124 1596.5,553.974L1596.5,575.67C1593.73,574.819 1590.96,574.125 1588.2,573.597C1585.43,573.064 1582.67,572.796 1579.91,572.796C1570.12,572.796 1561.51,575.616 1554.07,581.253C1546.62,586.889 1540.88,595.024 1536.84,605.657L1536.84,715.088L1513.23,715.088Z" style="fill:rgb(239,51,64);fill-rule:nonzero;"/>
    </g>
    <g transform="matrix(0.58256,0,0,0.58256,1.7053e-13,227.01)">
        <path d="M1645.1,679.357L1645.1,575.348L1610.64,575.348L1610.64,555.25L1645.1,555.25L1645.1,514.734L1668.39,508.672L1668.39,555.25L1716.56,555.25L1716.56,575.348L1668.39,575.348L1668.39,673.295C1668.39,681.802 1670.31,687.917 1674.13,691.638C1677.96,695.358 1684.23,697.22 1692.95,697.22C1697.42,697.22 1701.41,696.903 1704.92,696.262C1708.43,695.627 1712.21,694.561 1716.24,693.075L1716.24,713.812C1712.21,715.299 1707.68,716.364 1702.69,717C1697.69,717.64 1692.85,717.958 1688.17,717.958C1674.34,717.958 1663.71,714.663 1656.27,708.068C1648.82,701.474 1645.1,691.902 1645.1,679.357Z" style="fill:rgb(239,51,64);fill-rule:nonzero;"/>
    </g>
    <g transform="matrix(0.58256,0,0,0.58256,1.7053e-13,227.01)">
        <path d="M883.078,900.964L869.509,900.964L869.509,893.958L858.191,879.64L846.873,893.958L846.873,900.964L833.308,900.964L841.474,923.434L854.435,923.434L854.435,931.94L861.951,931.94L861.951,923.434L874.912,923.434L883.078,900.964Z" style="fill:rgb(239,51,64);fill-rule:nonzero;"/>
    </g>
    <g transform="matrix(0.58256,0,0,0.58256,1.7053e-13,227.01)">
        <rect x="785.386" y="874.373" width="34.746" height="62.837" style="fill:rgb(239,51,64);"/>
    </g>
    <g transform="matrix(0.58256,0,0,0.58256,1.7053e-13,227.01)">
        <rect x="896.254" y="874.373" width="34.746" height="62.837" style="fill:rgb(239,51,64);"/>
    </g>
</svg>
