<?xml version="1.0" encoding="UTF-8" standalone="no"?>
<!DOCTYPE svg PUBLIC "-//W3C//DTD SVG 1.1//EN" "http://www.w3.org/Graphics/SVG/1.1/DTD/svg11.dtd">
<svg width="100%" height="100%" viewBox="0 0 603 253" version="1.1" xmlns="http://www.w3.org/2000/svg" xmlns:xlink="http://www.w3.org/1999/xlink" xml:space="preserve" xmlns:serif="http://www.serif.com/" style="fill-rule:evenodd;clip-rule:evenodd;stroke-linejoin:round;stroke-miterlimit:10;">
    <g transform="matrix(1,0,0,1,91.7027,251.709)">
        <path d="M0,-14.472L-5.261,-14.472L-5.261,0L-4.532,0L-4.532,-5.76L0,-5.76C2.391,-5.76 4.346,-7.715 4.346,-10.106C4.346,-12.518 2.391,-14.472 0,-14.472ZM0,-6.488L-4.532,-6.488L-4.532,-13.744L0,-13.744C1.996,-13.744 3.618,-12.122 3.618,-10.106C3.618,-8.11 1.996,-6.488 0,-6.488Z" style="fill:rgb(95,197,144);fill-rule:nonzero;stroke:rgb(95,197,144);stroke-width:1.25px;"/>
    </g>
    <g transform="matrix(1,0,0,1,123.687,245.14)">
        <path d="M0,-1.417L-0.208,-1.479C-2.204,-2.082 -4.45,-2.768 -4.387,-4.659C-4.366,-5.533 -3.971,-6.303 -3.181,-6.864C-2.432,-7.384 -1.372,-7.634 -0.125,-7.611C1.705,-7.55 3.161,-6.614 3.763,-5.159L3.763,-5.117L4.471,-5.366L4.471,-5.408C3.763,-7.155 2.037,-8.235 -0.104,-8.319C-2.995,-8.401 -5.095,-6.926 -5.156,-4.68C-5.24,-2.269 -2.745,-1.499 -1.102,-0.98L-0.915,-0.917C-0.707,-0.855 -0.52,-0.792 -0.312,-0.751C1.664,-0.168 4.096,0.581 4.013,2.992C3.992,3.969 3.556,4.822 2.725,5.425C1.913,6.008 0.811,6.298 -0.499,6.256C-3.327,6.174 -4.616,4.469 -4.866,2.888L-4.866,2.867L-4.886,2.847L-4.907,2.847L-5.635,2.825L-5.635,2.867C-5.49,3.928 -4.99,4.904 -4.241,5.591C-3.306,6.443 -2.017,6.921 -0.52,6.964C-0.436,6.984 -0.354,6.984 -0.27,6.984C1.081,6.984 2.308,6.63 3.244,5.944C4.18,5.238 4.741,4.198 4.782,3.013C4.886,0.039 1.934,-0.834 0,-1.417Z" style="fill:rgb(95,197,144);fill-rule:nonzero;stroke:rgb(95,197,144);stroke-width:1.25px;"/>
    </g>
    <g transform="matrix(1,0,0,1,161.929,251.689)">
        <path d="M0,-14.43L-0.915,-14.43L-5.926,-7.818L-10.916,-14.43L-11.851,-14.43L-6.299,-7.112L-6.299,0L-5.531,0L-5.531,-7.112L0,-14.43Z" style="fill:rgb(95,197,144);fill-rule:nonzero;stroke:rgb(95,197,144);stroke-width:1.25px;"/>
    </g>
    <g transform="matrix(1,0,0,1,191.188,251.376)">
        <path d="M0,-13.765C2.309,-13.765 4.409,-12.62 5.698,-10.708L5.781,-10.708L6.364,-11.145C4.97,-13.245 2.579,-14.555 0,-14.555C-4.199,-14.555 -7.672,-11.083 -7.672,-6.883C-7.672,-2.682 -4.199,0.79 0,0.79C2.579,0.79 4.97,-0.52 6.364,-2.62L5.781,-3.057L5.698,-3.057C4.409,-1.143 2.309,-0 0,-0C-3.825,-0 -6.903,-3.057 -6.903,-6.883C-6.903,-10.708 -3.825,-13.765 0,-13.765" style="fill:rgb(95,197,144);fill-rule:nonzero;"/>
    </g>
    <g transform="matrix(1,0,0,1,191.188,251.376)">
        <path d="M0,-13.765C2.309,-13.765 4.409,-12.62 5.698,-10.708L5.781,-10.708L6.364,-11.145C4.97,-13.245 2.579,-14.555 0,-14.555C-4.199,-14.555 -7.672,-11.083 -7.672,-6.883C-7.672,-2.682 -4.199,0.79 0,0.79C2.579,0.79 4.97,-0.52 6.364,-2.62L5.781,-3.057L5.698,-3.057C4.409,-1.143 2.309,-0 0,-0C-3.825,-0 -6.903,-3.057 -6.903,-6.883C-6.903,-10.708 -3.825,-13.765 0,-13.765Z" style="fill:none;fill-rule:nonzero;stroke:rgb(95,197,144);stroke-width:1.25px;"/>
    </g>
    <g transform="matrix(1,0,0,1,229.244,251.689)">
        <path d="M0,-14.43L0,-7.611L-8.504,-7.611L-8.504,-14.43L-9.273,-14.43L-9.273,0L-8.504,0L-8.504,-6.821L0,-6.821L0,0L0.77,0L0.77,-14.43L0,-14.43Z" style="fill:rgb(95,197,144);fill-rule:nonzero;stroke:rgb(95,197,144);stroke-width:1.25px;"/>
    </g>
    <g transform="matrix(1,0,0,1,259.897,252.125)">
        <path d="M0,-15.304C-4.2,-15.304 -7.651,-11.853 -7.651,-7.653C-7.651,-3.451 -4.2,0 0,0C4.201,0 7.652,-3.451 7.652,-7.653C7.652,-11.853 4.201,-15.304 0,-15.304M0,-0.749C-3.826,-0.749 -6.923,-3.826 -6.923,-7.653C-6.923,-11.478 -3.826,-14.555 0,-14.555C3.826,-14.555 6.903,-11.478 6.903,-7.653C6.903,-3.826 3.826,-0.749 0,-0.749" style="fill:rgb(95,197,144);fill-rule:nonzero;"/>
    </g>
    <g transform="matrix(1,0,0,1,259.897,252.125)">
        <path d="M0,-15.304C-4.2,-15.304 -7.651,-11.853 -7.651,-7.653C-7.651,-3.451 -4.2,0 0,0C4.201,0 7.652,-3.451 7.652,-7.653C7.652,-11.853 4.201,-15.304 0,-15.304ZM0,-0.749C-3.826,-0.749 -6.923,-3.826 -6.923,-7.653C-6.923,-11.478 -3.826,-14.555 0,-14.555C3.826,-14.555 6.903,-11.478 6.903,-7.653C6.903,-3.826 3.826,-0.749 0,-0.749Z" style="fill:none;fill-rule:nonzero;stroke:rgb(95,197,144);stroke-width:1.25px;"/>
    </g>
    <g transform="matrix(1,0,0,1,300.322,251.689)">
        <path d="M0,-14.43L-11.166,-14.43L-11.166,-13.661L-5.967,-13.661L-5.967,0L-5.199,0L-5.199,-13.661L0,-13.661L0,-14.43Z" style="fill:rgb(95,197,144);fill-rule:nonzero;stroke:rgb(95,197,144);stroke-width:1.25px;"/>
    </g>
    <g transform="matrix(1,0,0,1,331.641,251.689)">
        <path d="M0,-14.43L0,-7.611L-8.505,-7.611L-8.505,-14.43L-9.274,-14.43L-9.274,0L-8.505,0L-8.505,-6.821L0,-6.821L0,0L0.769,0L0.769,-14.43L0,-14.43Z" style="fill:rgb(95,197,144);fill-rule:nonzero;stroke:rgb(95,197,144);stroke-width:1.25px;"/>
    </g>
    <g transform="matrix(1,0,0,1,364.102,251.667)">
        <path d="M0,-14.388L-9.003,-14.388L-9.003,0L0,0L0,-0.728L-8.275,-0.728L-8.275,-6.82L-1.061,-6.82L-1.061,-7.569L-8.275,-7.569L-8.275,-13.66L0,-13.66L0,-14.388Z" style="fill:rgb(95,197,144);fill-rule:nonzero;stroke:rgb(95,197,144);stroke-width:1.25px;"/>
    </g>
    <g transform="matrix(1,0,0,1,396.148,247.364)">
        <path d="M0,-5.761C0,-8.153 -1.933,-10.085 -4.324,-10.085L-9.564,-10.085L-9.564,4.324L-8.878,4.324L-8.878,-1.415L-4.512,-1.415L-0.997,4.324L-0.082,4.324L-3.617,-1.477C-1.559,-1.811 0,-3.598 0,-5.761M-4.324,-2.122L-8.878,-2.122L-8.878,-9.4L-4.324,-9.4C-2.328,-9.4 -0.686,-7.757 -0.686,-5.761C-0.686,-3.743 -2.328,-2.122 -4.324,-2.122" style="fill:rgb(95,197,144);fill-rule:nonzero;"/>
    </g>
    <g transform="matrix(1,0,0,1,396.148,247.364)">
        <path d="M0,-5.761C0,-8.153 -1.933,-10.085 -4.324,-10.085L-9.564,-10.085L-9.564,4.324L-8.878,4.324L-8.878,-1.415L-4.512,-1.415L-0.997,4.324L-0.082,4.324L-3.617,-1.477C-1.559,-1.811 0,-3.598 0,-5.761ZM-4.324,-2.122L-8.878,-2.122L-8.878,-9.4L-4.324,-9.4C-2.328,-9.4 -0.686,-7.757 -0.686,-5.761C-0.686,-3.743 -2.328,-2.122 -4.324,-2.122Z" style="fill:none;fill-rule:nonzero;stroke:rgb(95,197,144);stroke-width:1.25px;"/>
    </g>
    <g transform="matrix(1,0,0,1,423.911,251.647)">
        <path d="M0,-14.347L-0.852,-14.347L-6.299,0L-5.509,0L-3.971,-4.097L3.119,-4.097L4.658,0L5.449,0L0,-14.347ZM2.829,-4.783L-3.679,-4.783L-0.437,-13.474L2.829,-4.783Z" style="fill:rgb(95,197,144);fill-rule:nonzero;stroke:rgb(95,197,144);stroke-width:1.25px;"/>
    </g>
    <g transform="matrix(1,0,0,1,456.478,251.709)">
        <path d="M0,-14.472L-5.261,-14.472L-5.261,0L-4.534,0L-4.534,-5.76L0,-5.76C2.391,-5.76 4.344,-7.715 4.344,-10.106C4.344,-12.518 2.391,-14.472 0,-14.472ZM0,-6.488L-4.534,-6.488L-4.534,-13.744L0,-13.744C1.995,-13.744 3.617,-12.122 3.617,-10.106C3.617,-8.11 1.995,-6.488 0,-6.488Z" style="fill:rgb(95,197,144);fill-rule:nonzero;stroke:rgb(95,197,144);stroke-width:1.25px;"/>
    </g>
    <g transform="matrix(1,0,0,1,-194.719,-149.22)">
        <rect x="678.397" y="386.478" width="0.77" height="14.43" style="fill:rgb(95,197,144);stroke:rgb(95,197,144);stroke-width:1.25px;"/>
    </g>
    <g transform="matrix(1,0,0,1,516.556,251.667)">
        <path d="M0,-14.388L-9.003,-14.388L-9.003,0L0,0L0,-0.728L-8.275,-0.728L-8.275,-6.82L-1.061,-6.82L-1.061,-7.569L-8.275,-7.569L-8.275,-13.66L0,-13.66L0,-14.388Z" style="fill:rgb(95,197,144);fill-rule:nonzero;stroke:rgb(95,197,144);stroke-width:1.25px;"/>
    </g>
    <g transform="matrix(1,0,0,1,20.357,180.166)">
        <path d="M0,-5.001L-0.735,-5.222C-7.796,-7.355 -15.741,-9.782 -15.519,-16.476C-15.446,-19.564 -14.048,-22.286 -11.253,-24.272C-8.606,-26.11 -4.854,-26.993 -0.441,-26.92C6.032,-26.698 11.179,-23.389 13.313,-18.241L13.313,-18.093L15.813,-18.976L15.813,-19.122C13.313,-25.301 7.208,-29.126 -0.368,-29.421C-10.591,-29.715 -18.02,-24.493 -18.241,-16.549C-18.536,-8.017 -9.708,-5.296 -3.898,-3.457L-3.237,-3.235C-2.5,-3.016 -1.839,-2.794 -1.103,-2.647C5.883,-0.589 14.489,2.061 14.196,10.593C14.123,14.049 12.577,17.064 9.635,19.196C6.767,21.257 2.868,22.286 -1.766,22.14C-11.768,21.845 -16.329,15.813 -17.211,10.225L-17.211,10.151L-17.285,10.076L-17.358,10.076L-19.932,10.003L-19.932,10.151C-19.417,13.901 -17.653,17.359 -15.004,19.786C-11.694,22.802 -7.135,24.493 -1.839,24.641C-1.544,24.714 -1.25,24.714 -0.957,24.714C3.825,24.714 8.164,23.463 11.474,21.035C14.784,18.535 16.77,14.857 16.916,10.666C17.284,0.147 6.84,-2.942 0,-5.001Z" style="fill:rgb(129,129,129);fill-rule:nonzero;stroke:rgb(129,129,129);stroke-width:0.85px;"/>
    </g>
    <g transform="matrix(1,0,0,1,91.856,202.23)">
        <path d="M0,-48.689C8.165,-48.689 15.594,-44.645 20.153,-37.878L20.448,-37.878L22.507,-39.422C17.58,-46.85 9.121,-51.485 0,-51.485C-14.857,-51.485 -27.141,-39.201 -27.141,-24.343C-27.141,-9.486 -14.857,2.796 0,2.796C9.121,2.796 17.58,-1.836 22.507,-9.266L20.448,-10.81L20.153,-10.81C15.594,-4.043 8.165,0.001 0,0.001C-13.533,0.001 -24.419,-10.81 -24.419,-24.343C-24.419,-37.878 -13.533,-48.689 0,-48.689" style="fill:rgb(129,129,129);fill-rule:nonzero;"/>
    </g>
    <g transform="matrix(1,0,0,1,91.856,202.23)">
        <path d="M0,-48.689C8.165,-48.689 15.594,-44.645 20.153,-37.878L20.448,-37.878L22.507,-39.422C17.58,-46.85 9.121,-51.485 0,-51.485C-14.857,-51.485 -27.141,-39.201 -27.141,-24.343C-27.141,-9.486 -14.857,2.796 0,2.796C9.121,2.796 17.58,-1.836 22.507,-9.266L20.448,-10.81L20.153,-10.81C15.594,-4.043 8.165,0.001 0,0.001C-13.533,0.001 -24.419,-10.81 -24.419,-24.343C-24.419,-37.878 -13.533,-48.689 0,-48.689Z" style="fill:none;fill-rule:nonzero;stroke:rgb(129,129,129);stroke-width:0.85px;"/>
    </g>
    <g transform="matrix(1,0,0,1,177.625,203.335)">
        <path d="M0,-51.045L0,-26.919L-30.083,-26.919L-30.083,-51.045L-32.805,-51.045L-32.805,0L-30.083,0L-30.083,-24.126L0,-24.126L0,0L2.72,0L2.72,-51.045L0,-51.045Z" style="fill:rgb(129,129,129);fill-rule:nonzero;stroke:rgb(129,129,129);stroke-width:0.85px;"/>
    </g>
    <g transform="matrix(1,0,0,1,248.02,204.879)">
        <path d="M0,-52.736L0,-19.638C0,-10.223 -7.501,-2.796 -16.843,-2.796C-26.258,-2.796 -33.76,-10.223 -33.76,-19.638L-33.76,-52.736L-36.481,-52.736L-36.481,-19.638C-36.481,-8.9 -27.581,0 -16.843,0C-6.179,0 2.722,-8.9 2.722,-19.638L2.722,-52.736L0,-52.736Z" style="fill:rgb(129,129,129);fill-rule:nonzero;stroke:rgb(129,129,129);stroke-width:0.85px;"/>
    </g>
    <g transform="matrix(1,0,0,1,314.739,203.335)">
        <path d="M0,-51.045L0,-26.919L-30.083,-26.919L-30.083,-51.045L-32.804,-51.045L-32.804,0L-30.083,0L-30.083,-24.126L0,-24.126L0,0L2.722,0L2.722,-51.045L0,-51.045Z" style="fill:rgb(129,129,129);fill-rule:nonzero;stroke:rgb(129,129,129);stroke-width:0.85px;"/>
    </g>
    <g transform="matrix(1,0,0,1,396.387,203.335)">
        <path d="M0,-51.045L-3.603,-51.045L-23.904,-10.739L-44.131,-51.045L-47.587,-51.045L-47.587,0L-44.865,0L-44.865,-46.338L-25.448,-7.649L-22.285,-7.649L-2.72,-46.706L-2.72,0L0,0L0,-51.045Z" style="fill:rgb(129,129,129);fill-rule:nonzero;stroke:rgb(129,129,129);stroke-width:0.85px;"/>
    </g>
    <g transform="matrix(1,0,0,1,447.219,203.187)">
        <path d="M0,-50.75L-3.016,-50.75L-22.287,0L-19.492,0L-14.048,-14.489L11.032,-14.489L16.475,0L19.271,0L0,-50.75ZM10.003,-16.917L-13.019,-16.917L-1.544,-47.661L10.003,-16.917Z" style="fill:rgb(129,129,129);fill-rule:nonzero;stroke:rgb(129,129,129);stroke-width:0.85px;"/>
    </g>
    <g transform="matrix(1,0,0,1,530.413,203.335)">
        <path d="M0,-51.045L0,-4.046L-31.995,-51.045L-35.379,-51.045L-35.379,0L-32.656,0L-32.656,-47.221L-0.515,0L2.722,0L2.648,-0.148L2.722,-0.148L2.722,-51.045L0,-51.045Z" style="fill:rgb(129,129,129);fill-rule:nonzero;stroke:rgb(129,129,129);stroke-width:0.85px;"/>
    </g>
    <g transform="matrix(1,0,0,1,599.853,203.335)">
        <path d="M0,-51.045L0,-4.046L-31.995,-51.045L-35.379,-51.045L-35.379,0L-32.657,0L-32.657,-47.221L-0.515,0L2.721,0L2.647,-0.148L2.721,-0.148L2.721,-51.045L0,-51.045Z" style="fill:rgb(129,129,129);fill-rule:nonzero;stroke:rgb(129,129,129);stroke-width:0.85px;"/>
    </g>
    <g transform="matrix(1,0,0,1,266.679,2.07625)">
        <path d="M0,101.26C3.026,102.499 6.104,103.485 9.149,104.189C19.827,106.66 30.734,106.393 41.565,103.391C50.746,100.846 57.645,97.753 63.275,93.658C73.787,86.013 79.6,75.327 80.087,62.757C80.727,46.236 71.853,27.637 57.478,15.376C34.683,-4.069 4.89,-2.155 -14.972,20.027C-22.004,27.88 -26.583,36.184 -28.97,45.415C-32.355,58.514 -31.416,69.911 -26.179,79.287C-23.922,83.329 -20.872,87.132 -17.113,90.59C-12.45,94.876 -6.693,98.466 0,101.26M23.719,109.868C18.534,109.868 13.367,109.276 8.246,108.091C4.99,107.337 1.703,106.285 -1.522,104.964C-1.526,104.963 -1.531,104.96 -1.534,104.959C-8.661,101.985 -14.814,98.142 -19.823,93.537C-23.896,89.791 -27.211,85.654 -29.675,81.24C-35.432,70.934 -36.499,58.544 -32.847,44.412C-30.296,34.547 -25.425,25.697 -17.955,17.356C3.442,-6.543 35.529,-8.608 60.077,12.328C75.35,25.357 84.774,45.212 84.088,62.912C83.553,76.752 77.169,88.504 65.63,96.897C59.6,101.282 52.293,104.573 42.634,107.251C36.338,108.995 30.016,109.868 23.719,109.868" style="fill:rgb(253,209,0);fill-rule:nonzero;"/>
    </g>
    <g transform="matrix(1,0,0,1,264.801,28.9672)">
        <path d="M0,66.396C17.66,89.246 53.818,95.384 77.388,79.522C90.869,70.448 99.843,56.079 102.01,40.099C104.185,24.078 99.353,7.798 88.753,-4.568C71.532,-24.657 42.758,-21.114 21.884,-8.688C-7.835,8.999 -14.112,35.305 -7.148,53.531C-5.334,58.275 -2.929,62.604 0,66.396ZM47.044,92.28C27.993,92.28 8.599,84.01 -3.138,68.821C-6.305,64.721 -8.9,60.053 -10.853,54.947C-15.583,42.567 -14.646,29.333 -8.146,16.673C-2.372,5.431 7.572,-4.787 19.855,-12.097C42.158,-25.37 73.043,-28.988 91.764,-7.149C103.099,6.075 108.267,23.491 105.941,40.632C103.622,57.732 94.021,73.106 79.602,82.812C70.074,89.225 58.622,92.28 47.044,92.28" style="fill:rgb(95,197,144);fill-rule:nonzero;"/>
    </g>
</svg>
