<svg viewBox="0 0 2337 362" xmlns="http://www.w3.org/2000/svg" fill-rule="evenodd" clip-rule="evenodd" stroke-linejoin="round" stroke-miterlimit="2"><path d="M190.222 0l44.905 138.204h145.317L262.881 223.62l44.905 138.204-117.564-85.415-117.564 85.415 44.906-138.204L0 138.204h145.317L190.222 0zM1168.12 0l44.906 138.204h145.317l-117.564 85.416 44.905 138.204-117.564-85.415-117.563 85.415 44.905-138.204-117.564-85.416h145.317L1168.12 0zM679.171 0l44.905 138.204h145.317L751.829 223.62l44.906 138.204-117.564-85.415-117.564 85.415 44.905-138.204-117.563-85.416h145.316L679.171 0zM1657.07 0l44.906 138.204h145.316l-117.563 85.416 44.905 138.204-117.564-85.415-117.564 85.415 44.906-138.204-117.564-85.416h145.317L1657.07 0zM2146.02 0l44.905 138.204h145.317l-117.564 85.416 44.906 138.204-117.564-85.415-117.564 85.415 44.905-138.204-117.563-85.416h145.317L2146.02 0z"/></svg>