<?xml version="1.0" encoding="UTF-8" standalone="no"?>
<!DOCTYPE svg PUBLIC "-//W3C//DTD SVG 1.1//EN" "http://www.w3.org/Graphics/SVG/1.1/DTD/svg11.dtd">
<svg width="100%" height="100%" viewBox="0 0 757 86" version="1.1" xmlns="http://www.w3.org/2000/svg" xmlns:xlink="http://www.w3.org/1999/xlink" xml:space="preserve" xmlns:serif="http://www.serif.com/" style="fill-rule:evenodd;clip-rule:evenodd;stroke-linejoin:round;stroke-miterlimit:2;">
    <g transform="matrix(0.779885,0,0,0.779885,-12837.2,-1828.37)">
        <g transform="matrix(8.22859e-17,-1.34383,0.776828,4.7567e-17,14648.7,3666.93)">
            <path d="M960.525,2408.05L906.521,2354.96C903.129,2351.62 901.94,2344.15 903.867,2338.28C905.795,2332.41 910.114,2330.36 913.506,2333.69L978.438,2397.53C980.659,2399.71 982.026,2403.79 982.015,2408.21C982.003,2412.63 980.615,2416.69 978.384,2418.84L913.161,2481.64C909.752,2484.93 905.443,2482.8 903.546,2476.9C901.648,2471.01 902.876,2463.55 906.285,2460.27L960.525,2408.05Z" style="fill:url(#_Linear1);"/>
        </g>
        <g transform="matrix(0.958789,-3.99741e-32,-2.21904e-32,0.692142,15736.6,734.166)">
            <path d="M957.706,2408.04L904.279,2355.52C899.82,2351.13 898.768,2342.56 901.933,2336.38C905.098,2330.2 911.288,2328.75 915.748,2333.13L980.68,2396.96C983.312,2399.55 984.869,2403.75 984.854,2408.22C984.838,2412.7 983.251,2416.88 980.601,2419.43L915.378,2482.23C910.888,2486.55 904.708,2485.01 901.587,2478.79C898.466,2472.57 899.577,2464.01 904.068,2459.69L957.706,2408.04Z" style="fill:url(#_Linear2);"/>
        </g>
        <g transform="matrix(-0.958789,-3.99741e-32,2.21904e-32,0.692142,17766.6,734.166)">
            <path d="M957.706,2408.04L904.068,2459.69C899.577,2464.01 898.466,2472.57 901.587,2478.79C904.708,2485.01 910.888,2486.55 915.378,2482.23L980.601,2419.43C983.251,2416.88 984.838,2412.7 984.854,2408.22C984.869,2403.75 983.312,2399.55 980.68,2396.96L915.748,2333.13C911.288,2328.75 905.098,2330.2 901.933,2336.38C898.768,2342.56 899.82,2351.13 904.279,2355.52L957.706,2408.04Z" style="fill:url(#_Linear3);"/>
        </g>
        <g transform="matrix(8.22859e-17,1.34383,-0.69577,4.26036e-17,18426,1134.26)">
            <path d="M959.232,2408.03L906.807,2356.49C903.33,2353.07 901.944,2344.85 903.713,2338.13C905.483,2331.41 909.743,2328.74 913.22,2332.16L978.152,2395.99C980.532,2398.33 982.026,2403.06 982.015,2408.21C982.004,2413.37 980.489,2418.08 978.099,2420.38L912.877,2483.18C909.385,2486.54 905.137,2483.79 903.396,2477.05C901.655,2470.3 903.077,2462.1 906.569,2458.74L959.232,2408.03Z" style="fill:url(#_Linear4);"/>
        </g>
        <g transform="matrix(1,0,0,0.946758,9228.82,1182.64)">
            <path d="M7743.04,1247.49L7742.94,1332.74C7742.93,1338.28 7738.67,1342.77 7733.43,1342.77C7728.19,1342.76 7723.93,1338.26 7723.94,1332.72L7724.05,1238.44C7724.06,1233.19 7727.9,1228.83 7732.86,1228.45C7736.23,1228.18 7747.69,1226.26 7759.88,1227.51C7769.21,1228.47 7778.85,1231.31 7786.43,1237.3C7799.01,1247.25 7805.07,1267.02 7798.11,1283.92C7794.64,1292.34 7787.95,1300.28 7776.84,1305.53C7783.67,1314.89 7792.23,1326.6 7792.23,1326.6C7795.44,1330.98 7794.67,1337.29 7790.52,1340.67C7786.37,1344.06 7780.4,1343.25 7777.19,1338.86C7777.19,1338.86 7761.94,1318 7755.9,1309.71C7753.43,1306.33 7752.73,1301.87 7754.03,1297.83C7755.34,1293.8 7758.47,1290.72 7762.41,1289.63C7772.22,1286.96 7778.17,1282.01 7780.68,1275.92C7784.05,1267.74 7781.13,1258.18 7775.05,1253.37C7770.22,1249.56 7763.98,1248.1 7758.03,1247.49C7752.59,1246.93 7747.31,1247.13 7743.04,1247.49Z" style="fill:url(#_Linear5);"/>
        </g>
        <g transform="matrix(1,0,0,1,9230.65,-1006)">
            <g>
                <path d="M7852.89,3372.33L7855.69,3374.54C7869.43,3385.39 7877.47,3401.92 7877.51,3419.43C7877.55,3434.12 7877.59,3450.4 7877.59,3450.4C7877.6,3455.64 7873.35,3459.91 7868.11,3459.92C7862.87,3459.93 7858.6,3455.68 7858.59,3450.44C7858.59,3450.44 7858.55,3434.17 7858.51,3419.48C7858.49,3407.77 7853.11,3396.71 7843.92,3389.45C7838.84,3385.45 7833.53,3381.26 7829.18,3377.82C7824.59,3374.21 7822.8,3368.09 7824.71,3362.57C7826.62,3357.05 7831.82,3353.35 7837.66,3353.34C7862.04,3353.32 7914.71,3353.27 7914.71,3353.27C7919.95,3353.26 7924.21,3357.52 7924.22,3362.76C7924.22,3368.01 7919.97,3372.26 7914.73,3372.27L7852.89,3372.33Z" style="fill:url(#_Linear6);"/>
            </g>
        </g>
        <g transform="matrix(0.971701,0,0,0.971701,9549.89,1149.72)">
            <path d="M7875.21,1332.43L7875.5,1242.23C7875.52,1236.84 7871.15,1232.44 7865.75,1232.42C7860.36,1232.41 7855.96,1236.78 7855.95,1242.17L7855.66,1332.37C7855.64,1337.77 7860.01,1342.16 7865.4,1342.18C7870.8,1342.2 7875.2,1337.83 7875.21,1332.43Z" style="fill:url(#_Linear7);"/>
        </g>
        <g transform="matrix(1,0,0,1,-3.98144,-5.68434e-14)">
            <path d="M17377,2404.2L17340.5,2363.07C17337.1,2359.15 17337.4,2353.14 17341.3,2349.66C17345.3,2346.18 17351.3,2346.55 17354.8,2350.47L17386.5,2386.27L17418.2,2350.47C17421.7,2346.55 17427.7,2346.18 17431.6,2349.66C17435.5,2353.14 17435.9,2359.15 17432.4,2363.07L17396,2404.2L17396,2444.42C17396,2449.66 17391.7,2453.92 17386.5,2453.92C17381.2,2453.92 17377,2449.66 17377,2444.42L17377,2404.2Z" style="fill:url(#_Linear8);"/>
        </g>
        <g transform="matrix(1,0,0,1,-3.98144,0)">
            <path d="M17259.6,2413.73L17259.6,2444.42C17259.6,2449.66 17255.4,2453.92 17250.1,2453.92C17244.9,2453.92 17240.6,2449.66 17240.6,2444.42L17240.6,2381.08C17240.6,2362.41 17255.8,2347.27 17274.4,2347.27L17305.3,2347.27C17310.5,2347.27 17314.8,2351.53 17314.8,2356.77C17314.8,2362.01 17310.5,2366.27 17305.3,2366.27L17274.4,2366.27C17266.3,2366.27 17259.6,2372.9 17259.6,2381.08L17259.6,2394.73L17292.3,2394.73C17297.5,2394.73 17301.8,2398.99 17301.8,2404.23C17301.8,2409.47 17297.5,2413.73 17292.3,2413.73L17259.6,2413.73Z" style="fill:url(#_Linear9);"/>
        </g>
        <g transform="matrix(1.77592,0,0,1.40246,9075.22,1321.8)">
            <circle cx="4406.78" cy="769.597" r="11.051" style="fill:url(#_Linear10);"/>
        </g>
    </g>
    <defs>
        <linearGradient id="_Linear1" x1="0" y1="0" x2="1" y2="0" gradientUnits="userSpaceOnUse" gradientTransform="matrix(146.07,1184.25,-684.579,252.687,853.533,2398.42)"><stop offset="0" style="stop-color:rgb(72,106,201);stop-opacity:1"/><stop offset="1" style="stop-color:rgb(0,255,113);stop-opacity:1"/></linearGradient>
        <linearGradient id="_Linear2" x1="0" y1="0" x2="1" y2="0" gradientUnits="userSpaceOnUse" gradientTransform="matrix(959.501,-283.604,204.731,1329.15,808.576,2580.05)"><stop offset="0" style="stop-color:rgb(72,106,201);stop-opacity:1"/><stop offset="1" style="stop-color:rgb(0,255,113);stop-opacity:1"/></linearGradient>
        <linearGradient id="_Linear3" x1="0" y1="0" x2="1" y2="0" gradientUnits="userSpaceOnUse" gradientTransform="matrix(-959.501,-283.604,-204.731,1329.15,1308.68,2580.05)"><stop offset="0" style="stop-color:rgb(72,106,201);stop-opacity:1"/><stop offset="1" style="stop-color:rgb(0,255,113);stop-opacity:1"/></linearGradient>
        <linearGradient id="_Linear4" x1="0" y1="0" x2="1" y2="0" gradientUnits="userSpaceOnUse" gradientTransform="matrix(-146.07,-1322.22,684.579,-282.125,1031.14,2751.15)"><stop offset="0" style="stop-color:rgb(72,106,201);stop-opacity:1"/><stop offset="1" style="stop-color:rgb(0,255,113);stop-opacity:1"/></linearGradient>
        <linearGradient id="_Linear5" x1="0" y1="0" x2="1" y2="0" gradientUnits="userSpaceOnUse" gradientTransform="matrix(919.959,-207.333,196.294,971.694,7283.03,1412.49)"><stop offset="0" style="stop-color:rgb(72,106,201);stop-opacity:1"/><stop offset="1" style="stop-color:rgb(0,255,113);stop-opacity:1"/></linearGradient>
        <linearGradient id="_Linear6" x1="0" y1="0" x2="1" y2="0" gradientUnits="userSpaceOnUse" gradientTransform="matrix(919.959,-196.294,196.294,919.959,7281.21,3525.93)"><stop offset="0" style="stop-color:rgb(72,106,201);stop-opacity:1"/><stop offset="1" style="stop-color:rgb(0,255,113);stop-opacity:1"/></linearGradient>
        <linearGradient id="_Linear7" x1="0" y1="0" x2="1" y2="0" gradientUnits="userSpaceOnUse" gradientTransform="matrix(946.751,-202.011,202.011,946.751,7164.72,1410.11)"><stop offset="0" style="stop-color:rgb(72,106,201);stop-opacity:1"/><stop offset="1" style="stop-color:rgb(0,255,113);stop-opacity:1"/></linearGradient>
        <linearGradient id="_Linear8" x1="0" y1="0" x2="1" y2="0" gradientUnits="userSpaceOnUse" gradientTransform="matrix(919.959,-196.294,196.294,919.959,16515.8,2519.93)"><stop offset="0" style="stop-color:rgb(72,106,201);stop-opacity:1"/><stop offset="1" style="stop-color:rgb(0,255,113);stop-opacity:1"/></linearGradient>
        <linearGradient id="_Linear9" x1="0" y1="0" x2="1" y2="0" gradientUnits="userSpaceOnUse" gradientTransform="matrix(919.959,-196.294,196.294,919.959,16515.8,2519.93)"><stop offset="0" style="stop-color:rgb(72,106,201);stop-opacity:1"/><stop offset="1" style="stop-color:rgb(0,255,113);stop-opacity:1"/></linearGradient>
        <linearGradient id="_Linear10" x1="0" y1="0" x2="1" y2="0" gradientUnits="userSpaceOnUse" gradientTransform="matrix(518.018,-139.964,110.531,655.96,4187.48,854.304)"><stop offset="0" style="stop-color:rgb(72,106,201);stop-opacity:1"/><stop offset="1" style="stop-color:rgb(0,255,113);stop-opacity:1"/></linearGradient>
    </defs>
</svg>
